<?xml version="1.0" encoding="utf-8"?>
<!-- Generator: Adobe Illustrator 15.0.0, SVG Export Plug-In . SVG Version: 6.00 Build 0)  -->
<!DOCTYPE svg PUBLIC "-//W3C//DTD SVG 1.1//EN" "http://www.w3.org/Graphics/SVG/1.1/DTD/svg11.dtd">
<svg version="1.1" id="Icon_:_comprendre" xmlns="http://www.w3.org/2000/svg" xmlns:xlink="http://www.w3.org/1999/xlink" x="0px"
	 y="0px" width="56.693px" height="56.693px" viewBox="0 0 56.693 56.693" enable-background="new 0 0 56.693 56.693"
	 xml:space="preserve">
<g id="Icon_Comprendre_Trans_1_">
	<circle fill="#FFFFFF" cx="27.217" cy="35.444" r="1.601"/>
	<circle fill="#FFFFFF" cx="35.451" cy="29.89" r="1.965"/>
	<path fill="#FFFFFF" d="M27.428,24.182c0-1.322-1.078-2.4-2.4-2.4s-2.4,1.078-2.4,2.4c0,1.324,1.078,2.402,2.4,2.402
		C26.349,26.584,27.428,25.506,27.428,24.182z"/>
	<path fill="#FFFFFF" d="M51.397,27.345l-22.05-22.05c-0.551-0.551-1.453-0.551-2.004,0L5.296,27.343
		c-0.551,0.551-0.551,1.454,0,2.005l22.049,22.05c0.551,0.551,1.453,0.551,2.004,0l22.049-22.049
		C51.948,28.798,51.948,27.896,51.397,27.345z M21.553,29.525c-0.246,0.195-0.596,0.175-0.817-0.046l-1.025-1.027
		c-0.219-0.221-0.24-0.571-0.046-0.817l0.596-0.751c-0.21-0.37-0.375-0.764-0.494-1.173l-0.942-0.11
		c-0.312-0.037-0.545-0.3-0.545-0.611v-1.453c0-0.311,0.232-0.574,0.545-0.61l0.896-0.103c0.112-0.447,0.282-0.877,0.506-1.281
		l-0.56-0.708c-0.195-0.245-0.176-0.596,0.046-0.817l1.025-1.027c0.223-0.218,0.571-0.24,0.817-0.045l0.669,0.53
		c0.429-0.255,0.889-0.45,1.37-0.579l0.097-0.834c0.036-0.312,0.3-0.545,0.61-0.545h1.453c0.311,0,0.572,0.233,0.609,0.545
		l0.099,0.834c0.469,0.126,0.917,0.314,1.335,0.559l0.646-0.51c0.244-0.195,0.597-0.176,0.816,0.045l1.024,1.025
		c0.22,0.221,0.24,0.572,0.047,0.817l-0.526,0.664c0.225,0.4,0.399,0.826,0.517,1.271l0.854,0.1c0.312,0.036,0.545,0.299,0.545,0.61
		v1.453c0,0.311-0.232,0.574-0.545,0.61l-0.866,0.101c-0.122,0.45-0.304,0.88-0.539,1.284l0.563,0.713
		c0.194,0.245,0.176,0.595-0.046,0.817l-1.027,1.026c-0.221,0.218-0.571,0.241-0.816,0.046l-0.724-0.572
		c-0.411,0.231-0.849,0.408-1.306,0.527l-0.107,0.928c-0.037,0.311-0.299,0.545-0.61,0.545h-1.451c-0.312,0-0.574-0.234-0.611-0.545
		l-0.112-0.961c-0.426-0.122-0.835-0.295-1.219-0.516L21.553,29.525z M31.677,35.822c-0.003,0.309-0.237,0.566-0.545,0.599
		l-0.404,0.041c-0.085,0.3-0.209,0.584-0.369,0.853l0.26,0.338c0.189,0.244,0.166,0.59-0.057,0.807l-0.438,0.432
		c-0.223,0.217-0.568,0.23-0.809,0.035l-0.342-0.273c-0.276,0.15-0.568,0.264-0.875,0.34l-0.056,0.443
		c-0.039,0.307-0.303,0.535-0.611,0.529l-0.614-0.008c-0.31-0.002-0.566-0.238-0.6-0.544l-0.048-0.467
		c-0.283-0.082-0.554-0.202-0.809-0.353l-0.362,0.279c-0.246,0.189-0.592,0.166-0.809-0.056l-0.432-0.44
		c-0.216-0.221-0.23-0.566-0.036-0.808l0.292-0.359c-0.139-0.248-0.246-0.511-0.32-0.786l-0.453-0.059
		c-0.307-0.039-0.534-0.303-0.529-0.611l0.007-0.615c0.003-0.309,0.238-0.566,0.545-0.598l0.428-0.044
		c0.077-0.299,0.196-0.584,0.349-0.853l-0.261-0.334c-0.189-0.246-0.166-0.592,0.057-0.809l0.442-0.433
		c0.223-0.218,0.566-0.231,0.809-0.036l0.304,0.248c0.287-0.166,0.597-0.292,0.917-0.375l0.049-0.379
		c0.038-0.307,0.302-0.536,0.61-0.531l0.615,0.008c0.309,0.002,0.566,0.238,0.599,0.545l0.039,0.381
		c0.312,0.088,0.607,0.217,0.885,0.386l0.295-0.228c0.245-0.189,0.592-0.164,0.809,0.057l0.431,0.439
		c0.217,0.223,0.231,0.567,0.037,0.809l-0.246,0.301c0.146,0.268,0.258,0.555,0.333,0.852l0.395,0.051
		c0.307,0.039,0.535,0.303,0.529,0.611L31.677,35.822z M40.463,30.594l-0.607,0.124c-0.067,0.375-0.188,0.74-0.351,1.086
		l0.444,0.473c0.212,0.224,0.222,0.572,0.021,0.808l-0.646,0.767c-0.198,0.235-0.542,0.285-0.8,0.115l-0.553-0.365
		c-0.318,0.217-0.664,0.392-1.028,0.521l-0.021,0.672c-0.01,0.31-0.25,0.56-0.558,0.586l-1,0.085
		c-0.307,0.025-0.586-0.184-0.646-0.486l-0.139-0.686c-0.355-0.066-0.701-0.182-1.029-0.335l-0.501,0.47
		c-0.225,0.211-0.572,0.221-0.809,0.021l-0.767-0.646c-0.235-0.199-0.283-0.543-0.113-0.801l0.382-0.576
		c-0.196-0.289-0.359-0.599-0.483-0.925l-0.685-0.022c-0.31-0.01-0.561-0.25-0.586-0.557l-0.085-1
		c-0.023-0.306,0.186-0.585,0.486-0.647l0.633-0.129c0.062-0.372,0.173-0.734,0.325-1.08l-0.442-0.472
		c-0.212-0.224-0.223-0.572-0.021-0.808l0.646-0.771c0.198-0.236,0.542-0.284,0.801-0.114l0.506,0.335
		c0.331-0.238,0.693-0.428,1.078-0.567l0.02-0.593c0.011-0.31,0.25-0.56,0.558-0.587l1-0.084c0.307-0.025,0.587,0.184,0.646,0.486
		l0.119,0.584c0.393,0.071,0.771,0.192,1.129,0.365l0.423-0.396c0.227-0.211,0.572-0.221,0.809-0.022l0.768,0.648
		c0.236,0.199,0.285,0.545,0.107,0.798l-0.332,0.5c0.211,0.312,0.382,0.648,0.508,1.003l0.609,0.019
		c0.31,0.01,0.56,0.252,0.586,0.558l0.085,1C40.973,30.254,40.765,30.534,40.463,30.594z"/>
</g>
</svg>
