<?xml version="1.0" encoding="utf-8"?>
<!-- Generator: Adobe Illustrator 15.0.0, SVG Export Plug-In . SVG Version: 6.00 Build 0)  -->
<!DOCTYPE svg PUBLIC "-//W3C//DTD SVG 1.1//EN" "http://www.w3.org/Graphics/SVG/1.1/DTD/svg11.dtd">
<svg version="1.1" id="icon_:_comprendre" xmlns="http://www.w3.org/2000/svg" xmlns:xlink="http://www.w3.org/1999/xlink" x="0px"
	 y="0px" width="56.693px" height="56.693px" viewBox="0 0 56.693 56.693" enable-background="new 0 0 56.693 56.693"
	 xml:space="preserve">
<g>
	<path fill="#104F96" d="M51.398,27.345c0.551,0.551,0.551,1.453,0,2.004L29.349,51.397c-0.551,0.552-1.453,0.552-2.004,0
		L5.296,29.348c-0.552-0.551-0.552-1.454,0-2.005L27.344,5.295c0.551-0.551,1.453-0.551,2.004,0L51.398,27.345z"/>
</g>
<g>
	<g>
		<path fill="#FFFFFF" d="M19.766,25.711c0.119,0.409,0.284,0.803,0.494,1.173l-0.597,0.751c-0.193,0.246-0.172,0.596,0.047,0.817
			l1.025,1.027c0.222,0.221,0.571,0.241,0.817,0.046l0.747-0.591c0.384,0.221,0.793,0.394,1.219,0.516l0.112,0.96
			c0.036,0.312,0.299,0.545,0.61,0.545h1.452c0.312,0,0.573-0.233,0.61-0.545l0.106-0.927c0.457-0.119,0.896-0.296,1.307-0.527
			l0.724,0.572c0.245,0.195,0.596,0.172,0.816-0.046l1.026-1.026c0.223-0.222,0.241-0.572,0.046-0.817l-0.562-0.713
			c0.234-0.404,0.417-0.834,0.539-1.284l0.866-0.101c0.312-0.036,0.545-0.299,0.545-0.61v-1.453c0-0.311-0.232-0.574-0.545-0.61
			l-0.854-0.1c-0.117-0.445-0.292-0.871-0.517-1.271l0.525-0.664c0.194-0.245,0.173-0.596-0.046-0.817l-1.024-1.025
			c-0.222-0.221-0.572-0.24-0.816-0.045l-0.646,0.51c-0.418-0.245-0.865-0.433-1.335-0.559l-0.098-0.834
			c-0.037-0.312-0.3-0.545-0.61-0.545h-1.452c-0.312,0-0.574,0.233-0.61,0.545l-0.097,0.834c-0.481,0.129-0.941,0.324-1.37,0.579
			l-0.669-0.53c-0.246-0.195-0.597-0.173-0.817,0.045l-1.026,1.027c-0.221,0.221-0.24,0.572-0.046,0.817l0.561,0.708
			c-0.225,0.404-0.395,0.834-0.506,1.281l-0.896,0.103c-0.312,0.036-0.545,0.299-0.545,0.61v1.453c0,0.311,0.233,0.574,0.545,0.611
			L19.766,25.711z M25.027,21.782c1.322,0,2.4,1.078,2.4,2.4c0,1.324-1.078,2.402-2.4,2.402c-1.323,0-2.4-1.078-2.4-2.402
			C22.627,22.86,23.704,21.782,25.027,21.782L25.027,21.782z"/>
		<path fill="#FFFFFF" d="M39.386,26.069l-0.768-0.648c-0.235-0.199-0.583-0.189-0.809,0.022l-0.423,0.396
			c-0.357-0.173-0.736-0.294-1.129-0.365l-0.119-0.584c-0.062-0.302-0.341-0.511-0.646-0.486l-1,0.084
			c-0.308,0.027-0.547,0.277-0.558,0.587l-0.021,0.593c-0.384,0.139-0.747,0.329-1.077,0.567L32.331,25.9
			c-0.258-0.17-0.602-0.122-0.8,0.114l-0.646,0.771c-0.2,0.236-0.189,0.584,0.021,0.808l0.442,0.472
			c-0.152,0.346-0.264,0.708-0.325,1.08l-0.633,0.129c-0.302,0.062-0.511,0.341-0.486,0.647l0.085,1
			c0.025,0.307,0.276,0.547,0.586,0.557l0.685,0.022c0.124,0.325,0.287,0.635,0.483,0.924l-0.382,0.577
			c-0.17,0.258-0.122,0.601,0.113,0.8l0.767,0.647c0.235,0.199,0.584,0.189,0.809-0.022l0.501-0.469
			c0.328,0.153,0.674,0.268,1.028,0.335l0.14,0.686c0.062,0.303,0.341,0.512,0.646,0.486l1-0.085
			c0.308-0.027,0.547-0.277,0.558-0.586l0.021-0.673c0.364-0.129,0.71-0.303,1.028-0.521l0.553,0.365
			c0.258,0.17,0.602,0.121,0.8-0.115l0.646-0.766c0.199-0.236,0.188-0.584-0.021-0.808l-0.444-0.473
			c0.163-0.346,0.281-0.711,0.351-1.086l0.607-0.124c0.302-0.062,0.511-0.34,0.485-0.647l-0.085-1
			c-0.026-0.306-0.276-0.548-0.586-0.558l-0.61-0.019c-0.126-0.355-0.297-0.691-0.508-1.003l0.333-0.5
			C39.671,26.614,39.622,26.268,39.386,26.069L39.386,26.069z M35.617,31.849c-1.08,0.092-2.034-0.713-2.124-1.793
			c-0.092-1.08,0.713-2.034,1.793-2.124c1.08-0.092,2.034,0.713,2.124,1.793C37.503,30.805,36.698,31.759,35.617,31.849
			L35.617,31.849z"/>
	</g>
	<path fill="#FFFFFF" d="M23.264,34.541c-0.308,0.031-0.542,0.289-0.545,0.598l-0.007,0.615c-0.006,0.309,0.224,0.572,0.529,0.611
		l0.453,0.059c0.074,0.275,0.183,0.538,0.32,0.786l-0.292,0.358c-0.194,0.242-0.181,0.588,0.036,0.809l0.432,0.439
		c0.217,0.223,0.562,0.246,0.808,0.057l0.363-0.279c0.255,0.15,0.524,0.27,0.809,0.352l0.048,0.467
		c0.031,0.307,0.29,0.543,0.6,0.545l0.614,0.008c0.31,0.006,0.572-0.223,0.61-0.53l0.057-0.442c0.307-0.076,0.599-0.189,0.875-0.34
		l0.342,0.273c0.24,0.195,0.586,0.182,0.808-0.036l0.439-0.431c0.223-0.217,0.246-0.562,0.057-0.807l-0.26-0.339
		c0.16-0.268,0.284-0.552,0.369-0.852l0.404-0.041c0.308-0.032,0.542-0.29,0.545-0.599l0.007-0.615
		c0.006-0.31-0.224-0.572-0.529-0.611l-0.395-0.051c-0.075-0.297-0.188-0.584-0.333-0.852l0.246-0.302
		c0.193-0.241,0.18-0.586-0.037-0.808l-0.432-0.44c-0.216-0.221-0.562-0.246-0.808-0.056l-0.295,0.227
		c-0.276-0.168-0.573-0.297-0.885-0.385l-0.039-0.382c-0.031-0.306-0.29-0.542-0.6-0.544l-0.614-0.009
		c-0.31-0.005-0.572,0.225-0.61,0.532l-0.049,0.379c-0.32,0.082-0.63,0.209-0.917,0.375l-0.304-0.248
		c-0.241-0.195-0.587-0.182-0.809,0.035l-0.443,0.434c-0.222,0.217-0.245,0.562-0.056,0.808l0.26,0.335
		c-0.15,0.268-0.271,0.553-0.348,0.852L23.264,34.541z M27.236,33.843c0.883,0.01,1.591,0.738,1.581,1.621
		c-0.011,0.883-0.737,1.591-1.62,1.581c-0.883-0.011-1.591-0.737-1.581-1.62C25.627,34.542,26.354,33.834,27.236,33.843
		L27.236,33.843z"/>
</g>
</svg>
