<?xml version="1.0" encoding="utf-8"?>
<!-- Generator: Adobe Illustrator 15.0.0, SVG Export Plug-In . SVG Version: 6.00 Build 0)  -->
<!DOCTYPE svg PUBLIC "-//W3C//DTD SVG 1.1//EN" "http://www.w3.org/Graphics/SVG/1.1/DTD/svg11.dtd">
<svg version="1.1" id="Layer_2" xmlns="http://www.w3.org/2000/svg" xmlns:xlink="http://www.w3.org/1999/xlink" x="0px" y="0px"
	 width="56.693px" height="56.693px" viewBox="0 0 56.693 56.693" enable-background="new 0 0 56.693 56.693" xml:space="preserve">
<g>
	<path fill="#104F96" d="M51.398,27.345c0.551,0.551,0.551,1.453,0,2.004L29.349,51.397c-0.551,0.552-1.453,0.552-2.004,0
		L5.296,29.348c-0.552-0.551-0.552-1.454,0-2.005L27.344,5.295c0.551-0.551,1.453-0.551,2.004,0L51.398,27.345z"/>
</g>
<g>
	<g>
		<path fill="#FFFFFF" d="M35.311,19.122l1.213,10.298l-1.36,0.16l-1.083-9.197H22.614l-1.082,9.197l-1.359-0.16l1.211-10.298
			H35.311z M23.734,21.428h9.226v1.153h-9.226V21.428z M23.734,23.734h9.226v1.154h-9.226V23.734z M23.734,26.04h9.226v1.153h-9.226
			V26.04z M23.734,28.347h9.226V29.5h-9.226V28.347z M36.995,30.654H19.697c-0.316,0-0.494,0.246-0.395,0.547l1.94,5.824
			c0.102,0.301,0.441,0.547,0.76,0.547h12.686c0.316,0,0.658-0.246,0.759-0.547l1.94-5.826C37.49,30.9,37.313,30.654,36.995,30.654
			L36.995,30.654z M30.654,32.959H26.04v-1.153h4.614V32.959z"/>
	</g>
</g>
</svg>
