<?xml version="1.0" encoding="utf-8"?>
<!-- Generator: Adobe Illustrator 15.0.0, SVG Export Plug-In . SVG Version: 6.00 Build 0)  -->
<!DOCTYPE svg PUBLIC "-//W3C//DTD SVG 1.1//EN" "http://www.w3.org/Graphics/SVG/1.1/DTD/svg11.dtd">
<svg version="1.1" id="Layer_2" xmlns="http://www.w3.org/2000/svg" xmlns:xlink="http://www.w3.org/1999/xlink" x="0px" y="0px"
	 width="56.693px" height="56.693px" viewBox="0 0 56.693 56.693" enable-background="new 0 0 56.693 56.693" xml:space="preserve">
<g id="Découvrir_:_blue_copy">
	<g id="Icon_Découvrir_Trans_1_">
		<rect x="25.75" y="31.901" fill="#FFFFFF" width="4.612" height="1.153"/>
		<path fill="#FFFFFF" d="M51.106,27.44L29.056,5.39c-0.551-0.551-1.453-0.551-2.004,0L5.004,27.438
			c-0.552,0.551-0.552,1.454,0,2.005l22.049,22.05c0.551,0.551,1.453,0.551,2.004,0l22.049-22.049
			C51.657,28.894,51.657,27.991,51.106,27.44z M21.091,19.217h13.928l1.213,10.298l-1.359,0.16l-1.083-9.197H22.322l-1.082,9.197
			l-1.359-0.16L21.091,19.217z M23.443,27.289v-1.153h9.226v1.153H23.443z M32.668,28.442v1.153h-9.226v-1.153H32.668z
			 M23.443,24.983v-1.154h9.226v1.154H23.443z M23.443,22.676v-1.153h9.226v1.153H23.443z M37.097,31.293l-1.94,5.826
			c-0.101,0.301-0.441,0.547-0.759,0.547H21.712c-0.317,0-0.658-0.246-0.76-0.547l-1.94-5.824c-0.101-0.301,0.077-0.547,0.395-0.547
			h17.297C37.02,30.749,37.198,30.995,37.097,31.293z"/>
	</g>
</g>
</svg>
