<?xml version="1.0" encoding="utf-8"?>
<!-- Generator: Adobe Illustrator 15.0.0, SVG Export Plug-In . SVG Version: 6.00 Build 0)  -->
<!DOCTYPE svg PUBLIC "-//W3C//DTD SVG 1.1//EN" "http://www.w3.org/Graphics/SVG/1.1/DTD/svg11.dtd">
<svg version="1.1" id="Layer_1" xmlns="http://www.w3.org/2000/svg" xmlns:xlink="http://www.w3.org/1999/xlink" x="0px" y="0px"
	 width="42.52px" height="42.52px" viewBox="0 0 42.52 42.52" enable-background="new 0 0 42.52 42.52" xml:space="preserve">
<g>
	<path fill="#B3B3B3" d="M26.814,23.939c-0.085,0.253-0.32,0.424-0.589,0.424h-9.931c-0.268,0-0.505-0.171-0.589-0.424l-1.101-3.301
		h-5.14v7.449H29.95c1.711,0,3.104-1.394,3.104-3.104v-4.345h-5.139L26.814,23.939z"/>
	<path fill="#B3B3B3" d="M21.26,0C9.519,0,0,9.519,0,21.26s9.519,21.26,21.26,21.26s21.26-9.519,21.26-21.26S33.001,0,21.26,0z
		 M34.295,24.983c0,2.396-1.95,4.347-4.345,4.347H8.847c-0.344,0-0.621-0.278-0.621-0.621v-8.69c0-0.026,0.012-0.051,0.017-0.078
		c0.006-0.042,0.011-0.083,0.024-0.124c0.016-0.042,0.036-0.079,0.061-0.115c0.014-0.022,0.019-0.048,0.034-0.068l4.967-6.207
		c0.215-0.267,0.604-0.311,0.873-0.098c0.267,0.215,0.311,0.604,0.096,0.873l-4.158,5.197h4.915c0.27,0,0.505,0.171,0.589,0.426
		l1.101,3.3h9.036l1.101-3.3c0.085-0.255,0.322-0.426,0.589-0.426h4.915L28.226,14.2c-0.027-0.035-0.039-0.076-0.059-0.114h-11.87
		c-0.344,0-0.621-0.277-0.621-0.62c0-0.344,0.277-0.621,0.621-0.621h12.414c0.343,0,0.62,0.277,0.62,0.621
		c0,0.037-0.016,0.068-0.021,0.103l4.852,6.063c0.017,0.021,0.021,0.047,0.035,0.069c0.022,0.036,0.045,0.072,0.06,0.114
		c0.015,0.04,0.02,0.081,0.024,0.123c0.004,0.027,0.017,0.053,0.017,0.079v4.965H34.295z"/>
</g>
</svg>
