<?xml version="1.0" encoding="utf-8"?>
<!-- Generator: Adobe Illustrator 15.0.0, SVG Export Plug-In . SVG Version: 6.00 Build 0)  -->
<!DOCTYPE svg PUBLIC "-//W3C//DTD SVG 1.1//EN" "http://www.w3.org/Graphics/SVG/1.1/DTD/svg11.dtd">
<svg version="1.1" id="Layer_1" xmlns="http://www.w3.org/2000/svg" xmlns:xlink="http://www.w3.org/1999/xlink" x="0px" y="0px"
	 width="42.52px" height="42.52px" viewBox="0 0 42.52 42.52" enable-background="new 0 0 42.52 42.52" xml:space="preserve">
<g>
	<path fill="#104F96" d="M23.036,29.549v2.123l5.084-5.083h-2.123C24.364,26.589,23.036,27.917,23.036,29.549z"/>
	<path fill="#104F96" d="M21.26,0C9.519,0,0,9.519,0,21.26c0,11.742,9.519,21.26,21.26,21.26c11.742,0,21.26-9.518,21.26-21.26
		C42.521,9.519,33.002,0,21.26,0z M30.142,25.996c0,0.026-0.012,0.05-0.016,0.076c-0.003,0.026-0.008,0.049-0.015,0.075
		c-0.026,0.098-0.068,0.19-0.14,0.263c-0.002,0.002-0.002,0.004-0.003,0.005l-7.105,7.105c-0.056,0.056-0.121,0.099-0.192,0.128
		c-0.072,0.029-0.148,0.045-0.227,0.045h-9.473c-0.328,0-0.593-0.265-0.593-0.592s0.265-0.592,0.593-0.592h8.881v-2.961
		c0-2.285,1.86-4.145,4.145-4.145h2.961V10.01H13.563v20.724c0,0.327-0.266,0.592-0.592,0.592c-0.328,0-0.593-0.265-0.593-0.592
		V9.417c0-0.327,0.265-0.592,0.593-0.592H29.55c0.328,0,0.592,0.265,0.592,0.592V25.996z M16.523,15.931h9.474
		c0.328,0,0.592,0.265,0.592,0.592s-0.264,0.593-0.592,0.593h-9.474c-0.327,0-0.592-0.266-0.592-0.593S16.196,15.931,16.523,15.931z
		 M15.931,14.154c0-0.327,0.265-0.592,0.592-0.592h5.921c0.328,0,0.592,0.265,0.592,0.592s-0.264,0.592-0.592,0.592h-5.921
		C16.196,14.746,15.931,14.481,15.931,14.154z M16.523,18.299h9.474c0.328,0,0.592,0.265,0.592,0.592
		c0,0.328-0.264,0.593-0.592,0.593h-9.474c-0.327,0-0.592-0.265-0.592-0.593C15.931,18.563,16.196,18.299,16.523,18.299z"/>
</g>
</svg>
