<?xml version="1.0" encoding="utf-8"?>
<!-- Generator: Adobe Illustrator 15.0.0, SVG Export Plug-In . SVG Version: 6.00 Build 0)  -->
<!DOCTYPE svg PUBLIC "-//W3C//DTD SVG 1.1//EN" "http://www.w3.org/Graphics/SVG/1.1/DTD/svg11.dtd">
<svg version="1.1" id="Layer_1" xmlns="http://www.w3.org/2000/svg" xmlns:xlink="http://www.w3.org/1999/xlink" x="0px" y="0px"
	 width="42.52px" height="42.52px" viewBox="0 0 42.52 42.52" enable-background="new 0 0 42.52 42.52" xml:space="preserve">
<g>
	<path fill="#B3B3B3" d="M23.036,29.549v2.123l5.084-5.083h-2.123C24.364,26.589,23.036,27.917,23.036,29.549z"/>
	<path fill="#B3B3B3" d="M21.26,0C9.519,0,0,9.519,0,21.26c0,11.742,9.519,21.26,21.26,21.26c11.742,0,21.26-9.518,21.26-21.26
		C42.521,9.519,33.002,0,21.26,0z M30.142,25.996c0,0.024-0.012,0.05-0.016,0.074c-0.003,0.026-0.008,0.051-0.017,0.075
		c-0.024,0.1-0.066,0.19-0.14,0.265c-0.002,0.002-0.002,0.004-0.003,0.005l-7.105,7.104c-0.056,0.058-0.119,0.101-0.19,0.128
		c-0.072,0.029-0.148,0.045-0.229,0.045H12.97c-0.328,0-0.593-0.265-0.593-0.592s0.265-0.592,0.593-0.592h8.881v-2.961
		c0-2.285,1.86-4.146,4.146-4.146h2.961V10.01H13.563v20.724c0,0.327-0.266,0.594-0.592,0.594c-0.328,0-0.593-0.267-0.593-0.594
		V9.417c0-0.327,0.265-0.592,0.593-0.592H29.55c0.328,0,0.592,0.265,0.592,0.592V25.996z M16.523,15.931h9.476
		c0.328,0,0.592,0.265,0.592,0.592s-0.264,0.595-0.592,0.595h-9.476c-0.327,0-0.592-0.268-0.592-0.595S16.196,15.931,16.523,15.931z
		 M15.931,14.154c0-0.325,0.265-0.592,0.592-0.592h5.921c0.328,0,0.594,0.267,0.594,0.592c0,0.327-0.266,0.594-0.594,0.594h-5.921
		C16.196,14.746,15.931,14.481,15.931,14.154z M16.523,18.299h9.476c0.328,0,0.592,0.265,0.592,0.592
		c0,0.328-0.264,0.593-0.592,0.593h-9.476c-0.327,0-0.592-0.265-0.592-0.593S16.196,18.299,16.523,18.299z"/>
</g>
</svg>
