<?xml version="1.0" encoding="utf-8"?>
<!-- Generator: Adobe Illustrator 15.0.0, SVG Export Plug-In . SVG Version: 6.00 Build 0)  -->
<!DOCTYPE svg PUBLIC "-//W3C//DTD SVG 1.1//EN" "http://www.w3.org/Graphics/SVG/1.1/DTD/svg11.dtd">
<svg version="1.1" id="Layer_1" xmlns="http://www.w3.org/2000/svg" xmlns:xlink="http://www.w3.org/1999/xlink" x="0px" y="0px"
	 width="42.52px" height="42.52px" viewBox="0 0 42.52 42.52" enable-background="new 0 0 42.52 42.52" xml:space="preserve">
<g>
	<path fill="#104F96" d="M26.814,23.939c-0.085,0.253-0.321,0.424-0.589,0.424h-9.931c-0.267,0-0.505-0.171-0.589-0.424l-1.1-3.301
		h-5.14v7.449H29.95c1.711,0,3.104-1.393,3.104-3.104v-4.345h-5.139L26.814,23.939z"/>
	<path fill="#104F96" d="M21.26,0C9.519,0,0,9.519,0,21.26s9.519,21.26,21.26,21.26s21.26-9.519,21.26-21.26S33.001,0,21.26,0z
		 M34.295,24.983c0,2.396-1.95,4.346-4.345,4.346H8.847c-0.344,0-0.621-0.278-0.621-0.621v-8.69c0-0.027,0.012-0.051,0.016-0.078
		c0.006-0.042,0.011-0.083,0.025-0.124c0.015-0.042,0.036-0.079,0.06-0.116c0.014-0.022,0.019-0.047,0.035-0.068l4.966-6.207
		c0.215-0.267,0.604-0.311,0.873-0.098c0.267,0.215,0.311,0.605,0.096,0.873l-4.158,5.198h4.915c0.269,0,0.505,0.171,0.589,0.425
		l1.1,3.3h9.037l1.1-3.3c0.085-0.254,0.322-0.425,0.589-0.425h4.915l-4.158-5.198c-0.028-0.035-0.039-0.076-0.059-0.114h-11.87
		c-0.344,0-0.621-0.277-0.621-0.62c0-0.344,0.277-0.621,0.621-0.621h12.414c0.343,0,0.62,0.277,0.62,0.621
		c0,0.037-0.015,0.068-0.021,0.103l4.851,6.063c0.017,0.021,0.021,0.047,0.036,0.069c0.022,0.037,0.044,0.073,0.059,0.115
		c0.015,0.04,0.02,0.081,0.025,0.123c0.003,0.027,0.016,0.052,0.016,0.079V24.983z"/>
</g>
</svg>
