<?xml version="1.0" encoding="utf-8"?>
<!-- Generator: Adobe Illustrator 15.0.0, SVG Export Plug-In . SVG Version: 6.00 Build 0)  -->
<!DOCTYPE svg PUBLIC "-//W3C//DTD SVG 1.1//EN" "http://www.w3.org/Graphics/SVG/1.1/DTD/svg11.dtd">
<svg version="1.1" id="Layer_1" xmlns="http://www.w3.org/2000/svg" xmlns:xlink="http://www.w3.org/1999/xlink" x="0px" y="0px"
	 width="42.52px" height="42.52px" viewBox="0 0 42.52 42.52" enable-background="new 0 0 42.52 42.52" xml:space="preserve">
<g>
	<rect x="17.115" y="10.01" fill="#B3B3B3" width="11.842" height="15.395"/>
	<path fill="#B3B3B3" d="M15.931,10.096c-1.043,0.253-2.369,1.136-2.369,2.874v13.738c0.684-0.683,1.551-1.105,2.369-1.244V10.096z"
		/>
	<path fill="#B3B3B3" d="M21.259,0C9.519,0,0,9.519,0,21.259c0,11.743,9.519,21.26,21.259,21.26c11.743,0,21.26-9.518,21.26-21.26
		C42.52,9.519,33.002,0,21.259,0z M30.143,25.997c0,0.327-0.266,0.592-0.592,0.592H16.523c-1.031,0-2.961,0.869-2.961,2.961
		s1.93,2.961,2.961,2.961h13.028c0.326,0,0.592,0.265,0.592,0.592s-0.266,0.592-0.592,0.592H16.523
		c-1.736,0-4.145-1.438-4.145-4.145c0-0.075,0.02-0.139,0.021-0.211c-0.008-0.039-0.021-0.075-0.021-0.117V12.97
		c0-2.704,2.406-4.145,4.145-4.145h13.028c0.326,0,0.592,0.265,0.592,0.592V25.997z M27.182,28.958H16.523
		c-0.328,0-0.592-0.268-0.592-0.593c0-0.327,0.264-0.594,0.592-0.594h10.659c0.326,0,0.592,0.267,0.592,0.594
		C27.774,28.692,27.508,28.958,27.182,28.958z M27.773,30.734c0,0.327-0.266,0.594-0.592,0.594H16.523
		c-0.328,0-0.592-0.267-0.592-0.594c0-0.326,0.264-0.593,0.592-0.593h10.659C27.508,30.142,27.773,30.406,27.773,30.734z"/>
</g>
</svg>
