<?xml version="1.0" encoding="utf-8"?>
<!-- Generator: Adobe Illustrator 15.0.0, SVG Export Plug-In . SVG Version: 6.00 Build 0)  -->
<!DOCTYPE svg PUBLIC "-//W3C//DTD SVG 1.1//EN" "http://www.w3.org/Graphics/SVG/1.1/DTD/svg11.dtd">
<svg version="1.1" id="Layer_1" xmlns="http://www.w3.org/2000/svg" xmlns:xlink="http://www.w3.org/1999/xlink" x="0px" y="0px"
	 width="42.52px" height="42.52px" viewBox="0 0 42.52 42.52" enable-background="new 0 0 42.52 42.52" xml:space="preserve">
<path fill="#B3B3B3" d="M21.26,0C9.52,0,0,9.519,0,21.26s9.52,21.26,21.26,21.26c11.742,0,21.26-9.519,21.26-21.26S33.002,0,21.26,0
	z M30.876,24.224c-0.201,0.128-0.462,0.121-0.657-0.017c-3.067-2.166-5.594-1.145-8.522,0.04c-1.755,0.71-3.555,1.438-5.524,1.438
	c-0.644,0-1.302-0.077-1.984-0.258c-0.315-0.084-0.506-0.407-0.421-0.724c0.083-0.317,0.407-0.504,0.725-0.421
	c2.395,0.634,4.518-0.226,6.764-1.134c2.654-1.073,5.389-2.179,8.498-0.605c-0.119-0.681-0.238-1.354-0.359-2.025
	c-0.347-1.938-0.352-4.644-0.01-6.155c0.171-0.747,0.341-1.486,0.51-2.218c-2.961-1.884-5.61-0.828-8.412,0.286
	c-2.803,1.117-5.694,2.268-8.928,0.518v2.485v8.29v8.289c0,0.327-0.266,0.592-0.592,0.592c-0.328,0-0.593-0.265-0.593-0.592v-8.289
	v-8.29v-3.553c0-0.221,0.122-0.424,0.318-0.525c0.197-0.103,0.434-0.087,0.615,0.042c3.092,2.184,5.836,1.09,8.739-0.065
	c3.068-1.226,6.243-2.486,9.86,0.065c0.196,0.14,0.289,0.385,0.234,0.618c-0.2,0.856-0.399,1.728-0.598,2.608
	c-0.309,1.357-0.301,3.908,0.019,5.686c0.194,1.092,0.392,2.196,0.586,3.312C31.185,23.857,31.08,24.095,30.876,24.224z"/>
</svg>
