<?xml version="1.0" encoding="utf-8"?>
<!-- Generator: Adobe Illustrator 15.0.0, SVG Export Plug-In . SVG Version: 6.00 Build 0)  -->
<!DOCTYPE svg PUBLIC "-//W3C//DTD SVG 1.1//EN" "http://www.w3.org/Graphics/SVG/1.1/DTD/svg11.dtd">
<svg version="1.1" id="Layer_1" xmlns="http://www.w3.org/2000/svg" xmlns:xlink="http://www.w3.org/1999/xlink" x="0px" y="0px"
	 width="42.52px" height="42.52px" viewBox="0 0 42.52 42.52" enable-background="new 0 0 42.52 42.52" xml:space="preserve">
<path fill="#B3B3B3" d="M21.26,0C9.519,0,0,9.52,0,21.26c0,11.742,9.519,21.26,21.26,21.26c11.742,0,21.26-9.518,21.26-21.26
	C42.521,9.52,33.002,0,21.26,0z M31.918,29.549c0,2.285-1.859,4.146-4.146,4.146H14.747c-0.327,0-0.593-0.265-0.593-0.593v-4.145
	h-2.961c-0.326,0-0.592-0.266-0.592-0.592c0-0.327,0.266-0.593,0.592-0.593h2.961V24.22h-2.961c-0.326,0-0.592-0.266-0.592-0.592
	c0-0.328,0.266-0.593,0.592-0.593h2.961v-3.554h-2.961c-0.326,0-0.592-0.265-0.592-0.592s0.266-0.593,0.592-0.593h2.961v-3.552
	h-2.961c-0.326,0-0.592-0.266-0.592-0.593s0.266-0.593,0.592-0.593h5.922c0.327,0,0.593,0.266,0.593,0.593s-0.266,0.593-0.593,0.593
	h-1.776v3.552h1.776c0.327,0,0.593,0.266,0.593,0.593s-0.266,0.592-0.593,0.592h-1.776v3.554h1.776c0.327,0,0.593,0.265,0.593,0.593
	c0,0.326-0.266,0.592-0.593,0.592h-1.776v3.553h1.776c0.327,0,0.593,0.266,0.593,0.593c0,0.326-0.266,0.592-0.593,0.592h-1.776
	v3.553h12.435c1.634,0,2.961-1.327,2.961-2.961V10.01H15.338v1.776c0,0.326-0.265,0.593-0.592,0.593s-0.593-0.267-0.593-0.593V9.418
	c0-0.327,0.266-0.592,0.593-0.592h16.58c0.326,0,0.592,0.265,0.592,0.592V29.549z"/>
</svg>
