<?xml version="1.0" encoding="utf-8"?>
<!-- Generator: Adobe Illustrator 15.0.0, SVG Export Plug-In . SVG Version: 6.00 Build 0)  -->
<!DOCTYPE svg PUBLIC "-//W3C//DTD SVG 1.1//EN" "http://www.w3.org/Graphics/SVG/1.1/DTD/svg11.dtd">
<svg version="1.1" id="Layer_1" xmlns="http://www.w3.org/2000/svg" xmlns:xlink="http://www.w3.org/1999/xlink" x="0px" y="0px"
	 width="42.52px" height="42.52px" viewBox="0 0 42.52 42.52" enable-background="new 0 0 42.52 42.52" xml:space="preserve">
<path fill="#B3B3B3" d="M21.26,0C9.52,0,0,9.519,0,21.26c0,11.742,9.52,21.26,21.26,21.26c11.742,0,21.26-9.518,21.26-21.259
	C42.52,9.519,33.002,0,21.26,0z M21.355,33.636c-5.189,0-9.731-3.217-11.543-7.907L8.879,29.76
	c-0.069,0.304-0.338,0.507-0.634,0.507c-0.051,0-0.101-0.006-0.146-0.017c-0.352-0.082-0.571-0.434-0.489-0.782l1.471-6.342
	c0.046-0.2,0.184-0.366,0.37-0.449c0.188-0.086,0.402-0.073,0.584,0.025l5.679,3.188c0.312,0.178,0.425,0.574,0.249,0.889
	c-0.176,0.312-0.571,0.424-0.888,0.249l-4.256-2.388c1.445,4.529,5.667,7.693,10.537,7.693c5.352,0,9.932-3.812,10.894-9.065
	c0.063-0.354,0.411-0.577,0.757-0.522c0.354,0.063,0.59,0.403,0.522,0.759C32.454,29.373,27.334,33.636,21.355,33.636z
	 M34.909,13.052l-1.47,6.344c-0.048,0.199-0.185,0.366-0.372,0.448c-0.084,0.039-0.174,0.057-0.263,0.057
	c-0.111,0-0.221-0.026-0.319-0.083l-5.68-3.188c-0.312-0.176-0.424-0.573-0.249-0.887c0.176-0.314,0.571-0.426,0.889-0.25
	l4.255,2.386c-1.445-4.528-5.667-7.692-10.536-7.692c-5.352,0-9.933,3.813-10.894,9.065c-0.063,0.354-0.411,0.58-0.759,0.522
	c-0.354-0.063-0.588-0.403-0.521-0.758c1.073-5.872,6.192-10.134,12.174-10.134c5.191,0,9.731,3.218,11.542,7.91l0.934-4.035
	c0.082-0.352,0.438-0.57,0.781-0.489C34.772,12.353,34.991,12.704,34.909,13.052z"/>
</svg>
