<?xml version="1.0" encoding="utf-8"?>
<!-- Generator: Adobe Illustrator 15.0.0, SVG Export Plug-In . SVG Version: 6.00 Build 0)  -->
<!DOCTYPE svg PUBLIC "-//W3C//DTD SVG 1.1//EN" "http://www.w3.org/Graphics/SVG/1.1/DTD/svg11.dtd">
<svg version="1.1" id="Layer_1" xmlns="http://www.w3.org/2000/svg" xmlns:xlink="http://www.w3.org/1999/xlink" x="0px" y="0px"
	 width="42.52px" height="42.52px" viewBox="0 0 42.52 42.52" enable-background="new 0 0 42.52 42.52" xml:space="preserve">
<g>
	<path fill="#B3B3B3" d="M26.224,26.847c-1.711,0-3.103,1.395-3.103,3.104v2.226l5.328-5.329L26.224,26.847L26.224,26.847z"/>
	<path fill="#B3B3B3" d="M21.26,0C9.52,0,0,9.518,0,21.26c0,11.741,9.52,21.26,21.26,21.26c11.742,0,21.26-9.519,21.26-21.259
		C42.52,9.518,33.002,0,21.26,0z M30.569,26.226c0,0.028-0.013,0.054-0.017,0.081c-0.003,0.027-0.008,0.05-0.015,0.076
		c-0.028,0.104-0.073,0.204-0.151,0.282l-7.446,7.446c-0.06,0.061-0.129,0.104-0.204,0.137c-0.053,0.021-0.106,0.024-0.165,0.033
		c-0.021,0.002-0.046,0.014-0.068,0.014h-9.934c-0.344,0-0.619-0.277-0.619-0.62c0-0.344,0.275-0.621,0.619-0.621h9.312V29.95
		c0-2.396,1.95-4.347,4.345-4.347h3.104V9.466H13.19v21.725c0,0.345-0.277,0.621-0.621,0.621s-0.619-0.276-0.619-0.621V8.846
		c0-0.343,0.275-0.621,0.619-0.621h17.381c0.344,0,0.619,0.278,0.619,0.621V26.226z M20.344,15.999
		c-0.244-0.243-0.244-0.639-0.001-0.878c0.243-0.242,0.636-0.242,0.878,0l3.718,3.719c0.062,0.059,0.108,0.129,0.143,0.208
		c0.029,0.075,0.048,0.155,0.048,0.235c0,0.082-0.019,0.16-0.048,0.236c-0.031,0.076-0.077,0.146-0.136,0.201l-3.725,3.724
		c-0.242,0.243-0.635,0.243-0.878,0.001c-0.243-0.241-0.243-0.637,0.001-0.879l2.663-2.665h-5.948c-0.345,0-0.621-0.275-0.622-0.619
		c0.001-0.344,0.277-0.619,0.622-0.621l5.949,0.001L20.344,15.999z"/>
</g>
</svg>
