<?xml version="1.0" encoding="UTF-8" standalone="no"?>
<!-- Generator: Adobe Illustrator 15.0.0, SVG Export Plug-In . SVG Version: 6.00 Build 0)  -->

<svg
   xmlns:dc="http://purl.org/dc/elements/1.1/"
   xmlns:cc="http://creativecommons.org/ns#"
   xmlns:rdf="http://www.w3.org/1999/02/22-rdf-syntax-ns#"
   xmlns:svg="http://www.w3.org/2000/svg"
   xmlns="http://www.w3.org/2000/svg"
   xmlns:xlink="http://www.w3.org/1999/xlink"
   xmlns:sodipodi="http://sodipodi.sourceforge.net/DTD/sodipodi-0.dtd"
   xmlns:inkscape="http://www.inkscape.org/namespaces/inkscape"
   version="1.1"
   x="0px"
   y="0px"
   width="154.13356"
   height="82.647583"
   viewBox="0 0 144.50021 77.482106"
   enable-background="new 0 0 595.276 113.386"
   xml:space="preserve"
   id="svg2"
   inkscape:version="0.92.0 r15299"
   sodipodi:docname="FranceArchive_Small_Signature.svg"><metadata
     id="metadata225"><rdf:RDF><cc:Work
         rdf:about=""><dc:format>image/svg+xml</dc:format><dc:type
           rdf:resource="http://purl.org/dc/dcmitype/StillImage" /><dc:title></dc:title></cc:Work></rdf:RDF></metadata><defs
     id="defs223" /><sodipodi:namedview
     pagecolor="#ffffff"
     bordercolor="#666666"
     borderopacity="1"
     objecttolerance="1"
     gridtolerance="10000"
     guidetolerance="2"
     inkscape:pageopacity="0"
     inkscape:pageshadow="2"
     inkscape:window-width="1920"
     inkscape:window-height="1148"
     id="namedview221"
     showgrid="false"
     fit-margin-top="0"
     fit-margin-left="0"
     fit-margin-right="0"
     fit-margin-bottom="0"
     inkscape:zoom="4.5288715"
     inkscape:cx="76.685822"
     inkscape:cy="40.417052"
     inkscape:window-x="0"
     inkscape:window-y="27"
     inkscape:window-maximized="1"
     inkscape:current-layer="svg2" /><rect
     style="opacity:1;fill:#ffffff;fill-opacity:1;fill-rule:nonzero;stroke:none;stroke-width:0.72290754;stroke-linecap:round;stroke-linejoin:miter;stroke-miterlimit:4;stroke-dasharray:none;stroke-dashoffset:0;stroke-opacity:0.8;paint-order:normal"
     id="rect1772"
     width="144.47491"
     height="77.482109"
     x="0.012647497"
     y="0" /><g
     id="Layer_5"
     display="none"
     style="display:none"
     transform="translate(-11.891939,-17.303479)"><rect
       x="13.772"
       y="14.733"
       display="inline"
       width="141.42599"
       height="47.472"
       id="rect5"
       style="display:inline;fill:#ffffff" /></g><g
     id="Repères"
     transform="translate(-11.891939,-17.303479)" /><g
     id="g1833"
     transform="translate(-0.42276472,-0.26756135)"><g
       transform="translate(98.9173,-111.85799)"
       id="g13"><g
         id="g15"><g
           transform="matrix(1.0217372,0,0,1.0217372,-112.5659,97.077401)"
           id="g111"><defs
             id="defs113"><polygon
               id="SVGID_1_"
               points="13.772,14.733 155.198,14.733 155.198,62.205 13.772,62.205 " /></defs><clipPath
             id="SVGID_2_"><use
               xlink:href="#SVGID_1_"
               overflow="visible"
               id="use117"
               style="overflow:visible"
               x="0"
               y="0"
               width="595.276"
               height="113.386" /></clipPath><path
             clip-path="url(#SVGID_2_)"
             d="m 13.411,62.486 c 0.216,-11.776 0,-23.444 0.324,-35.22 0.108,-4.213 -0.107,-8.427 -0.107,-12.641 2.916,-0.54 5.833,-0.216 8.749,-0.108 18.688,0 37.267,-0.108 55.954,0 -1.296,0.648 -2.809,1.188 -3.781,2.377 -0.864,1.08 -1.729,2.161 -2.052,3.457 -1.404,0.864 -2.268,2.161 -3.025,3.457 -0.972,1.837 -2.376,3.458 -2.16,5.51 0.216,1.729 0.648,3.349 0.973,5.186 0.107,0.648 0.216,1.188 0.432,1.836 0.216,0.648 0,1.405 0.324,1.945 0.216,0.324 0.108,0.756 0.54,0.973 0,0.107 0,0.324 0,0.432 0.108,0.108 0.108,0.216 0.324,0.216 0,0.108 0,0.324 0,0.433 0.864,1.08 1.944,2.053 2.484,3.241 0.216,0.648 -1.08,0.324 -1.62,0.108 -1.08,-0.541 -1.729,-1.405 -2.593,-2.161 0,0 -0.108,0.108 -0.108,0.216 0.432,0.756 2.052,1.729 1.188,2.269 -0.432,0.216 -0.972,-0.324 -1.404,0.108 -0.108,0.216 0,0.432 0,0.648 -0.648,-0.433 -1.296,-0.216 -1.944,-0.433 -0.432,-0.107 -0.54,-0.972 -1.08,-0.972 -1.404,-0.324 -2.7,-0.648 -4.104,-0.756 -1.944,-0.216 -3.781,-0.54 -5.725,-0.216 -1.728,0.108 -3.024,1.404 -4.105,2.701 0,0.108 0,0.324 0,0.324 0.756,0.108 1.081,-0.541 1.729,-0.756 1.08,-0.216 2.053,-0.648 3.133,-0.864 1.62,-0.324 3.132,-0.756 4.645,-0.648 0.324,0 0.756,-0.107 1.08,0 -1.944,-0.107 -3.672,0.541 -5.509,1.081 v 0 c -1.282,0.377 -2.593,0.432 -3.78,1.08 2.808,-0.108 5.617,0.324 8.317,1.188 0.972,0.324 1.836,0.756 2.7,1.296 0.432,0.324 0.648,0.648 1.08,0.864 0.54,0.324 1.296,0.324 1.836,0.108 0.108,0 0.432,0 0.54,0 1.621,-0.432 3.349,-0.864 4.429,-2.053 0,0.108 0.108,0.108 0.216,0.108 -0.324,0.864 -0.324,1.836 -0.973,2.593 0,0.108 -0.107,0.324 0.108,0.432 0.108,0 0.108,0 0.216,0 -0.108,0 -0.216,0 -0.216,0.108 0,0.216 0.324,0 0.432,0.216 -0.541,0.108 -1.081,0.217 -1.405,0.648 0,0.108 0.217,0.108 0.324,0.108 -0.216,0.216 -0.54,0.108 -0.648,0.324 0,0 0.108,0.107 0.216,0.107 -0.108,0 -0.216,0 -0.216,0.108 0,0.108 0,0.216 0,0.324 -0.324,0 -0.432,0.216 -0.648,0.324 0.432,0.324 0.756,0 1.188,0 -1.188,0.432 -2.161,1.08 -3.349,1.404 -0.216,0 0,0.324 -0.216,0.324 0.324,0.216 0.54,-0.108 0.864,-0.108 -1.512,0.864 -3.024,1.621 -4.645,2.593 0,0 -0.216,0.216 -0.216,0.433 -0.108,0 -0.324,0 -0.432,0 -0.216,0.107 -0.108,0.432 -0.324,0.648 0.54,0.324 1.188,-0.433 1.512,0 0.108,0 -0.216,0.107 -0.432,0.107 -0.108,0 -0.108,0.217 -0.216,0.217 -0.108,0 -0.216,0 -0.324,0 -0.216,0.216 -0.432,0.324 -0.432,0.647 -0.216,0 -0.432,0 -0.54,0.217 2.377,-0.324 4.861,-0.108 7.129,-1.297 1.728,-0.864 3.349,-2.053 4.752,-3.565 0,0 0.108,0.108 0.108,0.216 -0.324,1.081 -0.972,1.836 -1.836,2.485 -0.648,0.324 -1.08,0.864 -1.621,1.08 -0.324,0.217 -0.647,0.433 -0.972,0.648 -3.997,1.404 -8.75,0.757 -12.206,3.457 0,-0.107 -0.108,-0.107 -0.216,-0.107 -0.216,0.216 -0.541,0.324 -0.648,0.54 0,0.216 0.324,0.108 0.432,0.108 0.648,-0.433 1.296,-0.757 2.052,-0.973 -0.864,0.432 -1.729,1.08 -2.592,1.296 -1.836,0.324 -3.565,0.217 -5.401,0 1.08,-0.647 2.16,-1.404 3.349,-2.053 -0.324,-0.216 -0.648,-0.216 -0.973,-0.216 -0.54,0.108 -1.188,-0.216 -1.728,0 -1.621,0.757 -3.781,0.54 -4.645,2.269"
             id="path119"
             inkscape:connector-curvature="0"
             style="fill:#014ea2" /><path
             clip-path="url(#SVGID_2_)"
             d="m 49.921,49.414 c -0.332,0.083 -0.648,0.324 -0.54,0.54 0.324,0.433 0.972,-0.108 1.512,-0.108 -0.647,0.216 -1.404,0.108 -1.944,0.648 0.433,0.324 0.864,0.108 1.297,0.108 0,0.216 0.216,0.216 0.324,0.324 -0.54,0.216 -0.972,0.648 -1.08,0.972 -0.216,0.541 -0.756,0.757 -1.081,1.188 0,0.108 0,0.217 0,0.324 -1.08,0.973 -2.268,1.621 -3.132,2.81 0.108,0 0.108,0.107 0.108,0.216 -0.216,0.324 -0.648,0.432 -0.756,0.756 0,0.108 0,0.217 0.108,0.217 1.296,-0.433 2.268,-1.405 3.457,-1.837 0.864,-0.216 1.513,-0.756 2.269,-0.973 0.54,-0.107 1.188,-0.324 1.729,-0.432 0,0.107 0,0.216 0.107,0.216 0.324,0 0.54,0 0.864,0 -0.108,0.216 -0.54,0.108 -0.432,0.216 0.324,0.324 0.972,0.216 1.404,0 0.324,-0.216 0.647,-0.216 1.08,-0.216 0.108,0 0.108,-0.216 0.108,-0.324 0.324,0.108 0.54,0.108 0.864,0.108 2.593,-0.541 5.077,-1.081 7.454,-2.27 -2.809,-2.16 -6.374,-2.917 -9.722,-3.889 0.324,0 0.648,0.324 0.972,0 -0.54,-0.433 -1.188,-0.216 -1.729,-0.54 0.108,0 0.324,0.107 0.433,-0.108 -0.864,-0.432 -1.729,-0.432 -2.593,-0.648 0.54,-0.108 0.864,-0.54 0.864,-1.08 0,-0.108 -0.216,-0.108 -0.324,-0.108 -1.296,0.648 -2.16,1.837 -2.7,3.241 0.756,0.433 1.62,0.108 2.376,0.216 -0.325,0.324 -0.865,0.324 -1.297,0.433 z"
             id="path121"
             inkscape:connector-curvature="0"
             style="fill:#ffffff" /><path
             clip-path="url(#SVGID_2_)"
             d="m 45.492,45.2 c -1.103,1.168 -2.269,2.27 -3.673,3.025 -0.972,1.944 -2.052,3.673 -3.457,5.51 0,0.108 0.108,0.216 0.108,0.216 2.593,-2.917 4.969,-5.402 8.317,-7.455 0.216,-0.108 -0.324,0.324 0.108,0.216 1.404,-0.324 1.836,-1.729 2.484,-2.809 0.864,-1.405 2.376,-1.945 3.456,-3.133 0,0.108 0,0.216 -0.107,0.324 0.107,0.108 0.216,0.108 0.324,0.108 0.432,-0.324 0.972,-0.216 1.296,-0.648 -0.864,-0.324 -1.944,-0.432 -2.809,-0.108 -2.267,1.081 -4.211,2.809 -6.047,4.754 z"
             id="path123"
             inkscape:connector-curvature="0"
             style="fill:#ffffff" /><path
             clip-path="url(#SVGID_2_)"
             d="m 47.112,47.252 c 0.097,-0.193 0.216,-0.216 0.324,-0.432 0,-0.108 0,-0.216 -0.108,-0.216 -0.432,0.108 -0.756,0.541 -0.864,0.972 0,0.108 0.108,0.108 0.216,0.108 0.216,-0.107 0.324,-0.215 0.432,-0.432 z"
             id="path125"
             inkscape:connector-curvature="0"
             style="fill:#ffffff" /><path
             clip-path="url(#SVGID_2_)"
             d="m 55.754,55.463 c -0.432,0.216 -1.188,0.216 -1.296,0.757 -0.108,0.216 0.324,0.107 0.54,0.107 0.756,-0.324 1.621,0 2.268,-0.648 -0.216,-0.216 -0.54,-0.108 -0.756,-0.432 -0.216,-0.107 -0.54,0.108 -0.756,0.216 z"
             id="path127"
             inkscape:connector-curvature="0"
             style="fill:#ffffff" /><path
             clip-path="url(#SVGID_2_)"
             d="m 67.528,61.298 c 0.667,-0.148 1.296,-0.541 1.944,-0.757 0,0.108 0,0.108 0,0.216 1.621,-0.647 2.809,-2.053 4.429,-2.593 0.108,0 0.324,0.216 0.54,0.108 0.972,-0.864 2.052,-1.837 3.457,-1.621 0,0.108 0,0.216 0.108,0.216 0.108,0 0.216,0 0.216,-0.107 -0.432,0.324 -0.864,0.648 -1.296,0.973 -0.108,0.107 0,0.216 0.108,0.216 0.54,-0.216 0.864,-0.648 1.404,-0.864 -0.108,0.107 -0.108,0.324 -0.216,0.432 -2.053,1.513 -3.564,3.241 -5.185,5.078 -1.08,0 -2.268,0 -3.348,0 0,-0.108 0,-0.216 -0.108,-0.216 -3.78,0.324 -7.453,0.216 -11.234,0.216 2.161,-0.324 4.321,-0.973 6.481,-1.188 0.863,-10e-4 1.728,0.107 2.7,-0.109 z"
             id="path129"
             inkscape:connector-curvature="0"
             style="fill:#014ea2" /><path
             clip-path="url(#SVGID_2_)"
             d="m 110.087,55.788 c 0.261,-0.78 0.54,-1.62 0.108,-2.377 -0.648,-0.972 0.648,-1.296 1.08,-1.944 0.324,-0.54 -0.217,-0.864 -0.324,-1.404 -0.107,-0.216 -0.541,-0.108 -0.756,-0.433 0.756,-0.324 1.943,-0.972 1.404,-1.944 -0.324,-0.54 -0.865,-1.404 -0.217,-1.945 0.756,-0.432 1.944,-0.324 2.269,-1.081 0.54,-1.296 -0.647,-2.377 -1.296,-3.457 -0.324,-0.648 -0.756,-1.08 -1.188,-1.729 -0.433,-0.756 -0.972,-1.405 -1.188,-2.269 -0.324,-0.865 0.108,-1.621 0.108,-2.485 0.108,-1.62 -0.324,-3.241 -0.756,-4.861 -0.324,-0.757 -0.433,-1.621 -0.757,-2.377 -0.107,-0.433 -0.216,-0.864 -0.539,-1.297 -0.108,-0.216 -0.108,-0.54 0,-0.756 0.432,-0.324 0.863,-0.648 1.296,-1.081 0.323,-0.541 0.108,-1.296 -0.433,-1.621 -0.756,-0.324 -0.648,0.756 -1.188,0.973 -0.108,0 -0.217,0 -0.324,0 -0.108,-0.324 0.107,-0.433 0.324,-0.648 0,-0.108 0,-0.324 -0.108,-0.324 -0.433,0 -0.864,-0.108 -0.972,-0.324 -1.08,-1.513 -2.594,-2.269 -4.213,-2.917 0.432,0.108 0.863,0.216 1.296,0.216 0.757,0.108 1.62,0.108 2.269,-0.216 0.54,-0.216 0.648,-1.08 0.863,-1.621 0.217,-0.432 -0.107,-1.081 -0.323,-1.404 -0.54,-0.865 -1.404,-1.405 -2.269,-1.837 17.066,0 34.134,0 51.201,0 0.107,15.99 -0.108,31.979 -0.217,47.969 -20.199,0.324 -40.398,0 -60.598,0 0.647,-2.161 1.836,-4.214 3.78,-5.618 0.433,-0.216 0.972,-0.324 1.513,-0.433 1.836,0 3.672,0.541 5.508,0.757 0.217,0 0.434,0.108 0.648,0.216 0.648,0.108 1.404,0.108 2.053,-0.107 0.757,-0.217 1.622,-0.649 1.946,-1.621 z"
             id="path131"
             inkscape:connector-curvature="0"
             style="fill:#ed1c24" /><path
             clip-path="url(#SVGID_2_)"
             d="m 105.982,34.504 c -0.638,-0.159 -1.188,0 -1.836,0 -0.865,0.216 -1.621,0.324 -2.377,0.648 0.648,-0.432 1.296,-0.864 2.053,-1.081 0.539,-0.107 1.08,-0.432 1.619,-0.432 0.648,-0.108 1.297,-0.324 1.837,-0.108 0.54,0.216 1.404,0.216 1.513,0.54 0.216,0.648 -0.324,1.297 -0.973,1.729 -0.107,0.217 0.324,0.324 0.324,0.541 -0.107,0.216 -0.432,0.324 -0.648,0.324 -0.216,0.108 -0.432,0.432 -0.648,0.648 0.217,0 0,0.324 0.217,0.324 -0.432,0.54 0.216,1.621 -0.432,1.837 -0.756,0.216 -1.621,0.216 -2.484,0 0.432,-0.108 0.972,0.108 1.295,-0.324 0,-0.108 0,-0.324 0,-0.432 0,-0.108 -0.107,-0.108 -0.215,-0.108 -0.108,0.108 -0.217,0.108 -0.217,0.108 0,-0.216 -0.216,-0.432 -0.324,-0.432 -0.648,0.108 -1.188,-0.216 -1.62,-0.648 0.324,-0.108 0.648,-0.216 0.972,-0.108 0.324,0 0.217,-0.541 0.541,-0.756 0.107,0 0.216,0 0.324,0 0.648,-0.864 1.943,-1.08 2.16,-1.944 -0.001,-0.218 -0.649,-0.218 -1.081,-0.326 z"
             id="path133"
             inkscape:connector-curvature="0"
             style="fill:#808080" /></g></g></g><g
       transform="matrix(0.36760168,0,0,0.36760168,-69.170468,42.544869)"
       id="Baseline"><g
         id="g136"><path
           style="fill:#a7aaac"
           inkscape:connector-curvature="0"
           id="path138"
           d="M 192.029,86.043 V 73.188 h 5.06 c 5.005,0 4.987,7.94 0,7.94 h -2.485 v 4.915 z m 4.844,-7.418 c 1.729,0 1.729,-2.881 0,-2.881 h -2.269 v 2.881 z" /><path
           style="fill:#a7aaac"
           inkscape:connector-curvature="0"
           id="path140"
           d="m 212.677,72.954 c 8.859,0 8.859,13.271 0,13.271 -8.859,0 -8.859,-13.271 0,-13.271 z m 0,2.647 c -5.149,0 -5.149,7.958 0,7.958 5.149,0 5.15,-7.958 0,-7.958 z" /><path
           style="fill:#a7aaac"
           inkscape:connector-curvature="0"
           id="path142"
           d="m 231.739,86.043 -2.593,-4.915 h -1.243 v 4.915 h -2.575 V 73.17 h 5.078 c 4.591,0 5.042,6.464 1.26,7.562 l 2.989,5.311 z m -3.835,-7.418 h 2.269 c 1.747,0 1.747,-2.881 0,-2.881 h -2.269 z" /><path
           style="fill:#a7aaac"
           inkscape:connector-curvature="0"
           id="path144"
           d="M 242.087,86.043 V 75.745 h -3.205 v -2.557 h 8.985 v 2.557 h -3.205 v 10.299 h -2.575 z" /><path
           style="fill:#a7aaac"
           inkscape:connector-curvature="0"
           id="path146"
           d="m 257.676,72.702 h 0.271 l 5.419,13.342 h -2.899 l -0.522,-1.386 h -4.268 l -0.504,1.386 h -2.917 z m 1.314,9.543 -1.17,-3.349 -1.206,3.349 z" /><path
           style="fill:#a7aaac"
           inkscape:connector-curvature="0"
           id="path148"
           d="M 268.763,86.043 V 73.17 h 2.575 v 12.873 z" /><path
           style="fill:#a7aaac"
           inkscape:connector-curvature="0"
           id="path150"
           d="m 280.409,73.17 v 10.299 h 4.087 v 2.574 h -6.662 V 73.17 Z" /><path
           style="fill:#a7aaac"
           inkscape:connector-curvature="0"
           id="path152"
           d="M 301.595,86.043 H 299.02 V 72.9 h 0.685 l 6.5,7.562 v -7.274 h 2.592 v 13.126 h -0.684 l -6.518,-7.274 z" /><path
           style="fill:#a7aaac"
           inkscape:connector-curvature="0"
           id="path154"
           d="m 319.559,72.702 h 0.271 l 5.42,13.342 h -2.899 l -0.522,-1.386 h -4.268 l -0.504,1.386 h -2.916 z m 1.315,9.543 -1.171,-3.349 -1.205,3.349 z" /><path
           style="fill:#a7aaac"
           inkscape:connector-curvature="0"
           id="path156"
           d="M 332.771,86.043 V 75.745 h -3.205 v -2.557 h 8.984 v 2.557 h -3.205 v 10.299 h -2.574 z" /><path
           style="fill:#a7aaac"
           inkscape:connector-curvature="0"
           id="path158"
           d="M 344.092,86.043 V 73.17 h 2.575 v 12.873 z" /><path
           style="fill:#a7aaac"
           inkscape:connector-curvature="0"
           id="path160"
           d="m 359.358,72.954 c 8.858,0 8.858,13.271 0,13.271 -8.858,0 -8.858,-13.271 0,-13.271 z m 0,2.647 c -5.149,0 -5.149,7.958 0,7.958 5.149,0 5.149,-7.958 0,-7.958 z" /><path
           style="fill:#a7aaac"
           inkscape:connector-curvature="0"
           id="path162"
           d="m 374.583,86.043 h -2.574 V 72.9 h 0.684 l 6.5,7.562 v -7.274 h 2.594 v 13.126 h -0.685 l -6.519,-7.274 z" /><path
           style="fill:#a7aaac"
           inkscape:connector-curvature="0"
           id="path164"
           d="m 392.548,72.702 h 0.27 l 5.42,13.342 h -2.898 l -0.521,-1.386 h -4.268 l -0.504,1.386 h -2.918 z m 1.315,9.543 -1.17,-3.349 -1.207,3.349 z" /><path
           style="fill:#a7aaac"
           inkscape:connector-curvature="0"
           id="path166"
           d="m 406.21,73.17 v 10.299 h 4.087 v 2.574 h -6.662 V 73.17 Z" /><path
           style="fill:#a7aaac"
           inkscape:connector-curvature="0"
           id="path168"
           d="m 428.656,86.043 h -3.834 V 73.17 h 3.834 c 8.571,0 8.571,12.873 0,12.873 z m -1.26,-10.298 v 7.725 h 1.26 c 5.006,0 5.006,-7.725 0,-7.725 z" /><path
           style="fill:#a7aaac"
           inkscape:connector-curvature="0"
           id="path170"
           d="M 441.093,86.043 V 73.17 h 6.445 v 2.574 h -3.871 v 2.575 h 3.385 v 2.575 h -3.385 v 2.574 h 4.088 v 2.574 h -6.662 z" /><path
           style="fill:#a7aaac"
           inkscape:connector-curvature="0"
           id="path172"
           d="m 453.495,82.515 c 1.477,1.044 3.079,1.08 3.673,1.026 0.756,-0.055 1.404,-0.595 1.332,-1.297 -0.053,-0.738 -0.611,-1.062 -1.332,-1.314 -2.017,-0.738 -3.816,-1.764 -3.816,-3.925 0,-2.161 1.494,-3.817 3.637,-3.925 0.666,-0.037 1.549,-0.037 3.205,0.539 l -0.324,2.485 c -1.422,-0.576 -2.232,-0.558 -2.629,-0.54 -0.918,0.054 -1.332,0.721 -1.278,1.44 0.071,0.72 0.702,1.044 1.44,1.296 1.998,0.738 3.727,1.891 3.727,3.943 0,2.143 -1.477,3.781 -3.889,3.907 -0.721,0.054 -2.322,-0.036 -4.069,-0.937 z" /><path
           style="fill:#a7aaac"
           inkscape:connector-curvature="0"
           id="path174"
           d="m 479.867,72.702 h 0.27 l 5.42,13.342 h -2.9 l -0.521,-1.386 h -4.268 l -0.504,1.386 h -2.916 z m 1.314,9.543 -1.172,-3.349 -1.205,3.349 z" /><path
           style="fill:#a7aaac"
           inkscape:connector-curvature="0"
           id="path176"
           d="m 497.363,86.043 -2.594,-4.915 h -1.242 v 4.915 h -2.574 V 73.17 h 5.076 c 4.592,0 5.043,6.464 1.262,7.562 l 2.988,5.311 z m -3.836,-7.418 h 2.27 c 1.746,0 1.746,-2.881 0,-2.881 h -2.27 z" /><path
           style="fill:#a7aaac"
           inkscape:connector-curvature="0"
           id="path178"
           d="m 511.546,75.601 c -5.096,0 -5.096,7.851 0,7.851 1.115,0 1.998,-0.324 2.484,-0.576 l 0.342,2.664 c -0.793,0.324 -1.926,0.541 -2.826,0.541 -8.732,0 -8.715,-13.072 0,-13.072 0.9,0 1.764,0.162 2.537,0.504 l -0.305,2.646 c -0.486,-0.252 -1.116,-0.558 -2.232,-0.558 z" /><path
           style="fill:#a7aaac"
           inkscape:connector-curvature="0"
           id="path180"
           d="m 526.451,86.043 v -5.148 h -3.854 v 5.148 h -2.574 V 73.17 h 2.574 v 5.149 h 3.854 V 73.17 h 2.574 v 12.873 z" /><path
           style="fill:#a7aaac"
           inkscape:connector-curvature="0"
           id="path182"
           d="M 535.519,86.043 V 73.17 h 2.576 v 12.873 z" /><path
           style="fill:#a7aaac"
           inkscape:connector-curvature="0"
           id="path184"
           d="m 548.589,86.314 -5.33,-13.144 h 2.971 l 1.711,4.285 0.936,2.664 0.918,-2.574 1.729,-4.375 h 2.973 l -5.33,13.144 z" /><path
           style="fill:#a7aaac"
           inkscape:connector-curvature="0"
           id="path186"
           d="M 559.658,86.043 V 73.17 h 6.445 v 2.574 h -3.871 v 2.575 h 3.385 v 2.575 h -3.385 v 2.574 h 4.088 v 2.574 h -6.662 z" /><path
           style="fill:#a7aaac"
           inkscape:connector-curvature="0"
           id="path188"
           d="m 572.058,82.515 c 1.477,1.044 3.08,1.08 3.674,1.026 0.756,-0.055 1.404,-0.595 1.332,-1.297 -0.053,-0.738 -0.611,-1.062 -1.332,-1.314 -2.016,-0.738 -3.816,-1.764 -3.816,-3.925 0,-2.161 1.494,-3.817 3.637,-3.925 0.666,-0.037 1.549,-0.037 3.205,0.539 l -0.324,2.485 c -1.422,-0.576 -2.232,-0.558 -2.629,-0.54 -0.918,0.054 -1.332,0.721 -1.279,1.44 0.072,0.72 0.703,1.044 1.441,1.296 1.998,0.738 3.727,1.891 3.727,3.943 0,2.143 -1.477,3.781 -3.889,3.907 -0.721,0.054 -2.322,-0.036 -4.068,-0.937 z" /></g></g><g
       transform="matrix(0.36760168,0,0,0.36760168,-68.89201,42.544869)"
       id="Signature"><g
         id="g191"><path
           style="fill:#0d4e97"
           inkscape:connector-curvature="0"
           id="path193"
           d="m 195.976,62.184 h -5.555 V 27.918 h 19.336 v 4.734 h -13.781 v 10.711 h 12.914 v 4.758 h -12.914 z" /><path
           style="fill:#0d4e97"
           inkscape:connector-curvature="0"
           id="path195"
           d="m 234.291,35.793 c 1.109,0 2.023,0.078 2.742,0.234 l -0.539,5.133 c -0.781,-0.188 -1.594,-0.281 -2.438,-0.281 -2.203,0 -3.988,0.719 -5.355,2.156 -1.367,1.437 -2.051,3.305 -2.051,5.602 v 13.547 h -5.508 V 36.262 h 4.312 l 0.727,4.57 h 0.281 c 0.859,-1.547 1.98,-2.773 3.363,-3.68 1.383,-0.907 2.872,-1.359 4.466,-1.359 z" /><path
           style="fill:#0d4e97"
           inkscape:connector-curvature="0"
           id="path197"
           d="m 263.816,62.184 -1.102,-3.609 h -0.188 c -1.25,1.578 -2.508,2.652 -3.773,3.223 -1.265,0.571 -2.891,0.855 -4.875,0.855 -2.547,0 -4.535,-0.688 -5.965,-2.062 -1.43,-1.374 -2.145,-3.32 -2.145,-5.836 0,-2.672 0.992,-4.688 2.977,-6.047 1.985,-1.359 5.008,-2.102 9.07,-2.227 l 4.477,-0.141 v -1.383 c 0,-1.656 -0.387,-2.895 -1.16,-3.715 -0.773,-0.82 -1.973,-1.23 -3.598,-1.23 -1.328,0 -2.602,0.195 -3.82,0.586 -1.218,0.391 -2.391,0.852 -3.516,1.383 l -1.781,-3.938 c 1.406,-0.734 2.945,-1.293 4.617,-1.676 1.672,-0.383 3.25,-0.574 4.734,-0.574 3.297,0 5.785,0.719 7.465,2.156 1.68,1.438 2.52,3.695 2.52,6.773 v 17.461 h -3.937 z m -8.203,-3.75 c 2,0 3.605,-0.559 4.816,-1.676 1.211,-1.118 1.816,-2.684 1.816,-4.7 v -2.25 l -3.328,0.141 c -2.594,0.094 -4.48,0.527 -5.66,1.301 -1.18,0.774 -1.77,1.957 -1.77,3.551 0,1.157 0.344,2.051 1.031,2.684 0.687,0.633 1.72,0.949 3.095,0.949 z" /><path
           style="fill:#0d4e97"
           inkscape:connector-curvature="0"
           id="path199"
           d="m 304.006,62.184 h -5.531 V 46.246 c 0,-2 -0.402,-3.492 -1.207,-4.477 -0.805,-0.985 -2.082,-1.477 -3.832,-1.477 -2.328,0 -4.031,0.688 -5.109,2.062 -1.078,1.374 -1.617,3.68 -1.617,6.914 v 12.915 h -5.508 V 36.262 h 4.312 l 0.773,3.398 h 0.281 c 0.781,-1.234 1.891,-2.188 3.328,-2.859 1.437,-0.671 3.031,-1.008 4.781,-1.008 6.219,0 9.328,3.164 9.328,9.492 v 16.899 z" /><path
           style="fill:#0d4e97"
           inkscape:connector-curvature="0"
           id="path201"
           d="m 327.883,62.653 c -3.922,0 -6.902,-1.145 -8.941,-3.434 -2.039,-2.289 -3.059,-5.575 -3.059,-9.856 0,-4.359 1.066,-7.711 3.199,-10.055 2.133,-2.344 5.215,-3.516 9.246,-3.516 2.734,0 5.195,0.508 7.383,1.523 l -1.664,4.43 c -2.328,-0.906 -4.25,-1.359 -5.766,-1.359 -4.484,0 -6.727,2.977 -6.727,8.93 0,2.906 0.559,5.09 1.676,6.551 1.117,1.461 2.754,2.191 4.91,2.191 2.453,0 4.773,-0.609 6.961,-1.828 v 4.805 c -0.984,0.578 -2.035,0.992 -3.152,1.242 -1.117,0.25 -2.472,0.376 -4.066,0.376 z" /><path
           style="fill:#0d4e97"
           inkscape:connector-curvature="0"
           id="path203"
           d="m 358.276,62.653 c -4.031,0 -7.184,-1.176 -9.457,-3.527 -2.273,-2.351 -3.41,-5.59 -3.41,-9.715 0,-4.234 1.055,-7.562 3.164,-9.984 2.109,-2.422 5.008,-3.633 8.695,-3.633 3.422,0 6.125,1.039 8.109,3.117 1.984,2.078 2.977,4.938 2.977,8.578 v 2.977 h -17.273 c 0.078,2.516 0.758,4.449 2.039,5.801 1.281,1.352 3.086,2.027 5.414,2.027 1.531,0 2.957,-0.145 4.277,-0.434 1.32,-0.289 2.738,-0.77 4.254,-1.441 v 4.477 c -1.344,0.641 -2.703,1.094 -4.078,1.359 -1.375,0.265 -2.945,0.398 -4.711,0.398 z m -1.008,-22.688 c -1.75,0 -3.152,0.555 -4.207,1.664 -1.055,1.109 -1.684,2.727 -1.887,4.852 h 11.766 c -0.031,-2.141 -0.547,-3.762 -1.547,-4.863 -1,-1.101 -2.375,-1.653 -4.125,-1.653 z" /><path
           style="fill:#0d4e97"
           inkscape:connector-curvature="0"
           id="path205"
           d="m 395.301,49.996 h -12 l -6.727,12.188 h -2.742 l 19.266,-34.407 h 1.57 l 4.711,34.407 h -2.461 z m -0.281,-2.156 -0.914,-6.82 c -0.484,-3.781 -0.789,-6.922 -0.914,-9.422 -0.469,0.984 -0.973,2 -1.512,3.047 -0.539,1.047 -2.934,5.445 -7.184,13.195 z" /><path
           style="fill:#0d4e97"
           inkscape:connector-curvature="0"
           id="path207"
           d="m 423.726,36.262 c 1.078,0 2.039,0.109 2.883,0.328 l -0.492,2.18 c -0.734,-0.234 -1.617,-0.352 -2.648,-0.352 -1.469,0 -2.867,0.5 -4.195,1.5 -1.328,1 -2.523,2.5 -3.586,4.5 -1.063,2 -1.844,4.164 -2.344,6.492 L 411,62.184 h -2.297 l 5.414,-25.477 h 1.875 l -0.68,4.781 h 0.141 c 1.141,-1.469 2.102,-2.527 2.883,-3.176 0.781,-0.649 1.613,-1.152 2.496,-1.512 0.883,-0.36 1.847,-0.538 2.894,-0.538 z" /><path
           style="fill:#0d4e97"
           inkscape:connector-curvature="0"
           id="path209"
           d="m 441.58,62.653 c -2.719,0 -4.863,-0.863 -6.434,-2.59 -1.571,-1.727 -2.355,-4.121 -2.355,-7.184 0,-3.016 0.574,-5.84 1.723,-8.473 1.149,-2.633 2.699,-4.641 4.652,-6.023 1.953,-1.382 4.219,-2.074 6.797,-2.074 2.094,0 3.977,0.336 5.648,1.008 l -0.656,2.109 c -1.672,-0.734 -3.375,-1.102 -5.109,-1.102 -2.016,0 -3.832,0.602 -5.449,1.805 -1.617,1.203 -2.887,2.938 -3.809,5.203 -0.922,2.265 -1.383,4.766 -1.383,7.5 0,2.469 0.574,4.372 1.723,5.708 1.149,1.336 2.777,2.004 4.887,2.004 1.109,0 2.137,-0.102 3.082,-0.305 0.945,-0.203 1.973,-0.562 3.082,-1.078 v 2.156 c -1.813,0.891 -3.946,1.336 -6.399,1.336 z" /><path
           style="fill:#0d4e97"
           inkscape:connector-curvature="0"
           id="path211"
           d="m 474.855,62.184 3.492,-16.219 c 0.328,-1.438 0.492,-2.656 0.492,-3.656 0,-1.25 -0.34,-2.227 -1.02,-2.93 -0.68,-0.703 -1.73,-1.055 -3.152,-1.055 -1.75,0 -3.395,0.523 -4.934,1.57 -1.539,1.047 -2.836,2.516 -3.891,4.406 -1.055,1.89 -1.863,4.125 -2.426,6.703 l -2.391,11.18 h -2.297 l 7.781,-36.469 h 2.25 l -2.016,9.633 c -0.688,3.125 -1.203,5.305 -1.547,6.539 h 0.141 c 1.219,-1.766 2.676,-3.137 4.371,-4.113 1.695,-0.976 3.488,-1.465 5.379,-1.465 1.938,0 3.438,0.508 4.5,1.523 1.062,1.015 1.594,2.445 1.594,4.289 0,1.094 -0.188,2.516 -0.562,4.266 l -3.469,15.797 h -2.295 z" /><path
           style="fill:#0d4e97"
           inkscape:connector-curvature="0"
           id="path213"
           d="m 493.576,62.184 h -2.297 l 5.414,-25.477 h 2.25 z m 4.125,-32.016 c 0,-0.859 0.172,-1.547 0.516,-2.062 0.344,-0.515 0.812,-0.773 1.406,-0.773 0.891,0 1.336,0.562 1.336,1.688 0,0.891 -0.172,1.594 -0.516,2.109 -0.344,0.515 -0.789,0.773 -1.336,0.773 -0.453,0 -0.801,-0.152 -1.043,-0.457 -0.242,-0.305 -0.363,-0.731 -0.363,-1.278 z" /><path
           style="fill:#0d4e97"
           inkscape:connector-curvature="0"
           id="path215"
           d="m 512.86,62.184 -4.031,-25.477 h 2.367 l 2.531,17.227 c 0.406,2.579 0.664,4.563 0.773,5.954 h 0.141 c 0.797,-1.797 1.805,-3.797 3.023,-6 l 9.516,-17.18 h 2.391 l -14.062,25.477 h -2.649 z" /><path
           style="fill:#0d4e97"
           inkscape:connector-curvature="0"
           id="path217"
           d="m 544.12,62.653 c -2.703,0 -4.812,-0.855 -6.328,-2.566 -1.516,-1.711 -2.273,-4.098 -2.273,-7.161 0,-2.828 0.555,-5.539 1.664,-8.133 1.109,-2.594 2.637,-4.656 4.582,-6.188 1.945,-1.532 4.09,-2.297 6.434,-2.297 1.781,0 3.203,0.477 4.266,1.43 1.063,0.953 1.594,2.25 1.594,3.891 0,2.828 -1.277,4.984 -3.832,6.469 -2.555,1.485 -6.348,2.227 -11.379,2.227 h -0.773 c -0.094,0.688 -0.141,1.453 -0.141,2.297 0,2.578 0.578,4.543 1.734,5.895 1.156,1.352 2.82,2.027 4.992,2.027 2.062,0 4.219,-0.57 6.469,-1.711 v 2.203 c -2.189,1.078 -4.525,1.617 -7.009,1.617 z m 3.797,-24.329 c -2.047,0 -3.949,0.902 -5.707,2.707 -1.758,1.805 -3.027,4.215 -3.809,7.23 h 1.148 c 8.078,0 12.117,-2.109 12.117,-6.328 0,-1.047 -0.34,-1.91 -1.02,-2.59 -0.68,-0.68 -1.589,-1.019 -2.729,-1.019 z" /><path
           style="fill:#0d4e97"
           inkscape:connector-curvature="0"
           id="path219"
           d="m 577.348,55.27 c 0,2.25 -0.805,4.043 -2.414,5.379 -1.609,1.336 -3.797,2.004 -6.562,2.004 -2.703,0 -5.086,-0.586 -7.148,-1.758 v -2.508 c 1.156,0.719 2.352,1.273 3.586,1.664 1.234,0.391 2.391,0.586 3.469,0.586 2.156,0 3.805,-0.449 4.945,-1.348 1.14,-0.899 1.711,-2.176 1.711,-3.833 0,-0.656 -0.121,-1.234 -0.363,-1.734 -0.242,-0.5 -0.633,-0.98 -1.172,-1.441 -0.539,-0.461 -1.574,-1.129 -3.105,-2.004 -2.312,-1.25 -3.875,-2.387 -4.688,-3.41 -0.813,-1.023 -1.219,-2.27 -1.219,-3.738 0,-2 0.77,-3.637 2.309,-4.91 1.539,-1.273 3.566,-1.91 6.082,-1.91 1.172,0 2.41,0.137 3.715,0.41 1.305,0.273 2.402,0.637 3.293,1.09 l -0.82,2.062 c -2.125,-1 -4.188,-1.5 -6.188,-1.5 -1.812,0 -3.266,0.414 -4.359,1.242 -1.093,0.828 -1.641,1.906 -1.641,3.234 0,0.859 0.133,1.547 0.398,2.062 0.265,0.515 0.738,1.051 1.418,1.605 0.68,0.554 1.613,1.152 2.801,1.793 1.781,0.984 3.043,1.793 3.785,2.426 0.742,0.633 1.289,1.309 1.641,2.027 0.352,0.718 0.526,1.556 0.526,2.51 z" /></g></g></g></svg>