<?xml version="1.0" encoding="utf-8"?>
<!-- Generator: Adobe Illustrator 15.0.0, SVG Export Plug-In . SVG Version: 6.00 Build 0)  -->
<!DOCTYPE svg PUBLIC "-//W3C//DTD SVG 1.1//EN" "http://www.w3.org/Graphics/SVG/1.1/DTD/svg11.dtd">
<svg version="1.1" xmlns="http://www.w3.org/2000/svg" xmlns:xlink="http://www.w3.org/1999/xlink" x="0px" y="0px"
	 width="595.276px" height="113.386px" viewBox="0 0 595.276 113.386" enable-background="new 0 0 595.276 113.386"
	 xml:space="preserve">
<g id="Layer_5" display="none">
	<rect x="13.772" y="14.733" display="inline" fill="#FFFFFF" width="141.426" height="47.472"/>
</g>
<g id="Repères">
</g>
<g id="Marianne">
	<g>
		<g>
			<g>
				<g>
					<path d="M21.016,96.199c-0.521,0-0.816-0.07-1.112-0.268c-0.465-0.31-0.958-1.155-1.239-1.634
						c-0.479-0.831-1.015-1.719-1.521-2.465c-0.084,0.014-0.155,0.014-0.211,0.014c-0.141,0-0.254-0.014-0.395-0.014v0.746
						c0,0.38,0.014,0.761,0.014,1.141c0.014,0.761,0.028,1.085,0.141,1.381c0.141,0.366,0.394,0.549,0.859,0.592v0.395l-0.324-0.015
						c-0.367-0.014-0.874,0-1.535,0c-0.648,0-1.155-0.014-1.521,0l-0.338,0.015v-0.395c0.352-0.028,0.521-0.099,0.69-0.282
						c0.155-0.183,0.253-0.437,0.282-0.76c0.042-0.423,0.057-0.677,0.057-2.071v-2.366c0-1.719-0.057-2.142-0.155-2.536
						c-0.099-0.38-0.395-0.535-0.873-0.592V86.69c0.282,0.028,0.563,0.015,0.845,0.015c0.732,0,0.958,0,1.831-0.042
						c0.761-0.028,1.197-0.043,1.535-0.043c0.958,0,1.535,0.142,2.014,0.479c0.535,0.38,0.887,1.112,0.887,1.845
						c0,1.155-0.761,2.1-2.056,2.578c0.535,0.676,0.958,1.353,1.451,2.127c0.451,0.719,0.901,1.339,1.253,1.69
						c0.197,0.212,0.324,0.282,0.591,0.353v0.395C21.818,96.17,21.452,96.199,21.016,96.199L21.016,96.199z M17.396,87.38
						c-0.282,0-0.536,0.042-0.845,0.113c0,0.831-0.014,2.338-0.014,3.507c0.155,0.028,0.437,0.043,0.62,0.043
						c1.155,0,1.93-0.719,1.93-1.817C19.086,88.156,18.368,87.38,17.396,87.38L17.396,87.38z"/>
					<path d="M25.647,87.568l-0.547-0.326l1.152-1.698l1.338,0.244L25.647,87.568L25.647,87.568z M28.242,95.912
						c-0.104,0.175-0.221,0.209-0.861,0.209c-0.396,0-0.779-0.022-1.175-0.034c-0.559-0.012-1.117-0.035-1.675-0.035
						c-0.559,0-1.117,0.012-1.675,0.035V95.76c0.523-0.047,0.756-0.349,0.803-0.861c0.035-0.349,0.035-0.722,0.035-1.326v-3.294
						c0-0.616-0.035-0.896-0.128-1.14c-0.105-0.303-0.314-0.442-0.709-0.489v-0.325H28.3c0,0.337-0.011,0.687-0.011,1.023
						c0,0.279-0.012,0.547,0.011,0.826h-0.418c-0.082-0.896-0.466-1.14-1.851-1.14c-0.256,0-0.593,0.011-0.872,0.022
						c-0.023,0.454-0.035,0.605-0.035,1.28v1.35c0.175,0.012,0.314,0.012,0.523,0.012c1.21,0,1.583-0.174,1.652-0.803h0.419
						c-0.023,0.187-0.023,0.57-0.023,1.152c0,0.593,0.012,0.942,0.023,1.129H27.3c-0.035-0.663-0.349-0.826-1.548-0.826
						c-0.209,0-0.418,0.011-0.628,0.011c0,0.733,0.012,1.467,0.012,2.2c0,0.488,0.081,0.651,0.36,0.722
						c0.175,0.046,0.442,0.058,0.803,0.058c1.257,0,1.699-0.279,1.967-1.233l0.454,0.093C28.557,95.015,28.37,95.691,28.242,95.912
						L28.242,95.912z"/>
					<path d="M33.094,92.63c-0.116,0-0.174,0-0.325-0.012l-0.256-0.594c1.094-0.07,1.699-0.605,1.699-1.489
						c0-0.932-0.64-1.595-1.524-1.595c-0.14,0-0.256,0.012-0.442,0.047c0,0.722-0.023,1.443-0.023,2.164v2.037
						c0,1.524,0.012,1.78,0.128,2.083c0.104,0.302,0.314,0.454,0.709,0.488v0.326l-0.279-0.012c-0.302-0.012-0.721-0.012-1.28-0.012
						c-0.547,0-0.978,0-1.268,0.012l-0.279,0.012V95.76c0.523-0.047,0.756-0.349,0.803-0.861c0.035-0.349,0.035-0.559,0.035-1.71
						v-2.91c0-0.616-0.035-0.896-0.128-1.14c-0.104-0.303-0.314-0.442-0.709-0.489v-0.325c0.14,0.011,0.035,0.011,0.535,0.011
						c0.198,0,0.477,0,0.849-0.011c0.594-0.023,1.187-0.059,1.78-0.059c1.652,0,2.641,0.814,2.641,2.165
						C35.758,91.699,34.63,92.63,33.094,92.63L33.094,92.63z"/>
					<path d="M43.668,88.906c-0.128,0.175-0.186,0.407-0.209,0.873c-0.023,0.5-0.035,0.885-0.035,1.606
						c0,0.268,0.012,1.07,0.012,1.873c0,0.814-0.128,1.304-0.466,1.792c-0.535,0.779-1.419,1.176-2.583,1.176
						c-0.733,0-1.291-0.14-1.814-0.489c-0.814-0.523-1.129-1.21-1.129-2.443c0-1.257,0.023-1.804,0.023-2.211
						c0-0.594,0.035-1.211-0.07-1.792c-0.07-0.419-0.291-0.594-0.78-0.641v-0.325l0.268,0.011c0.303,0.013,0.733,0.013,1.292,0.013
						c0.559,0,0.989,0,1.292-0.013l0.268-0.011v0.325c-0.36,0.047-0.535,0.14-0.651,0.338c-0.104,0.174-0.151,0.407-0.163,0.919
						c-0.023,0.733-0.035,1.455-0.035,2.188c0,2.002,0.047,2.386,0.407,2.805c0.279,0.326,0.757,0.547,1.315,0.547
						c0.779,0,1.535-0.396,1.768-1.175c0.151-0.5,0.174-0.861,0.174-2.177v-1.151c0-1.327-0.035-1.734-0.163-1.932
						c-0.128-0.21-0.302-0.326-0.605-0.361v-0.325c0.465,0.023,0.628,0.023,1.21,0.023c0.593,0,0.756,0,1.222-0.023v0.325
						C43.959,88.685,43.796,88.755,43.668,88.906L43.668,88.906z"/>
					<path d="M50.822,95.54c-0.547,0.418-1.163,0.559-2.35,0.559c-0.629,0-1.269-0.047-1.897-0.047c-0.256,0-0.733,0-1.059,0.023
						l-0.14,0.012V95.76c0.547-0.047,0.756-0.326,0.803-0.861c0.035-0.349,0.046-0.559,0.046-1.71v-2.2
						c0-1.082-0.012-1.547-0.128-1.85s-0.326-0.442-0.721-0.489v-0.325c0.535,0.023,0.849,0.023,1.594,0.023
						c0.675,0,1.687-0.035,2.361-0.035c1.071,0,2.048,0.512,2.048,1.722c0,0.896-0.559,1.502-1.664,1.78
						c1.233,0.245,1.885,0.955,1.885,2.106C51.602,94.62,51.346,95.144,50.822,95.54L50.822,95.54z M48.286,88.929
						c-0.209,0-0.419,0.023-0.628,0.023c-0.012,0.757-0.035,2.06-0.047,2.549c0.128,0.011,0.291,0.023,0.512,0.023
						c1.141,0,1.792-0.478,1.792-1.315C49.915,89.407,49.31,88.929,48.286,88.929L48.286,88.929z M48.321,92.176
						c-0.198,0-0.407,0.012-0.71,0.035C47.6,92.525,47.6,92.583,47.6,93.119v0.687c0,0.651,0.023,1.001,0.104,1.233
						c0.094,0.291,0.373,0.431,0.861,0.431c0.989,0,1.547-0.547,1.547-1.524C50.113,92.863,49.415,92.176,48.321,92.176
						L48.321,92.176z"/>
					<path d="M58.174,95.923c-0.105,0.163-0.245,0.197-0.826,0.197c-0.291,0-0.594-0.011-0.885-0.022
						c-0.721-0.023-1.373-0.047-2.164-0.047c-0.593,0-0.989,0.012-1.361,0.035V95.76c0.291-0.023,0.442-0.081,0.57-0.232
						c0.209-0.244,0.268-0.547,0.268-1.396c0-0.582,0.012-1.048,0.012-1.652v-1.245c0-1.571-0.012-1.781-0.128-2.095
						c-0.104-0.303-0.326-0.442-0.722-0.489v-0.325l0.291,0.011c0.314,0.013,0.745,0.013,1.327,0.013c0.57,0,1.012,0,1.315-0.013
						l0.291-0.011v0.325c-0.593,0-0.849,0.314-0.919,0.873c-0.023,0.197-0.035,0.384-0.035,1.711v1.943
						c0,1.617,0.012,1.815,0.163,1.979c0.128,0.128,0.372,0.186,0.873,0.186c0.64,0,0.989-0.069,1.28-0.232
						c0.326-0.175,0.57-0.523,0.687-1.013l0.442,0.116C58.522,94.887,58.302,95.726,58.174,95.923L58.174,95.923z"/>
					<path d="M62.221,96.075c-0.291-0.012-0.722-0.012-1.269-0.012c-0.559,0-0.977,0-1.279,0.012l-0.279,0.012V95.76
						c0.547-0.047,0.756-0.326,0.803-0.861c0.035-0.349,0.046-0.559,0.046-1.71v-1.955c0-0.303-0.012-0.617-0.012-0.955
						c0-0.616-0.023-0.896-0.116-1.14c-0.105-0.303-0.326-0.442-0.721-0.489v-0.325l0.279,0.011
						c0.302,0.013,0.721,0.013,1.279,0.013c0.547,0,0.978,0,1.269-0.013l0.279-0.011v0.325c-0.5,0.035-0.756,0.35-0.803,0.873
						c-0.035,0.338-0.035,0.663-0.035,1.711v1.955c0,1.524,0.012,1.78,0.128,2.083c0.104,0.302,0.314,0.454,0.71,0.488v0.326
						L62.221,96.075L62.221,96.075z"/>
					<path d="M73.097,98.181c-0.907,0-1.873-0.279-2.792-0.792c-0.524-0.291-1.257-0.791-1.792-1.233
						c-0.396,0.059-0.547,0.07-0.919,0.07c-2.351,0-3.91-1.536-3.91-3.852c0-2.479,1.687-4.189,4.154-4.189
						c2.396,0,3.991,1.535,3.991,3.84c0,1.641-0.837,3.096-2.164,3.771c0.418,0.209,0.837,0.442,1.245,0.687
						c1.187,0.722,2.001,1.024,2.77,1.024c0.477,0,0.873-0.105,1.338-0.338l0.151,0.407C74.598,97.971,73.888,98.181,73.097,98.181
						L73.097,98.181z M67.605,88.976c-1.42,0-2.432,1.187-2.432,2.851c0,2.025,1.198,3.619,2.722,3.619
						c1.431,0,2.443-1.21,2.443-2.897C70.339,90.547,69.141,88.976,67.605,88.976L67.605,88.976z"/>
					<path d="M79.891,88.906c-0.128,0.175-0.186,0.407-0.209,0.873c-0.023,0.5-0.035,0.885-0.035,1.606
						c0,0.268,0.012,1.07,0.012,1.873c0,0.814-0.128,1.304-0.466,1.792c-0.535,0.779-1.419,1.176-2.583,1.176
						c-0.733,0-1.292-0.14-1.815-0.489c-0.814-0.523-1.129-1.21-1.129-2.443c0-1.257,0.023-1.804,0.023-2.211
						c0-0.594,0.035-1.211-0.07-1.792c-0.07-0.419-0.291-0.594-0.78-0.641v-0.325l0.268,0.011c0.303,0.013,0.733,0.013,1.292,0.013
						c0.558,0,0.989,0,1.291-0.013l0.268-0.011v0.325c-0.36,0.047-0.535,0.14-0.651,0.338c-0.104,0.174-0.151,0.407-0.163,0.919
						c-0.023,0.733-0.035,1.455-0.035,2.188c0,2.002,0.046,2.386,0.407,2.805c0.279,0.326,0.757,0.547,1.315,0.547
						c0.779,0,1.535-0.396,1.768-1.175c0.151-0.5,0.174-0.861,0.174-2.177v-1.151c0-1.327-0.034-1.734-0.163-1.932
						c-0.128-0.21-0.302-0.326-0.605-0.361v-0.325c0.465,0.023,0.628,0.023,1.21,0.023c0.593,0,0.756,0,1.222-0.023v0.325
						C80.182,88.685,80.019,88.755,79.891,88.906L79.891,88.906z"/>
					<path d="M86.987,95.912c-0.104,0.175-0.222,0.209-0.861,0.209c-0.396,0-0.779-0.022-1.175-0.034
						c-0.559-0.012-1.117-0.035-1.676-0.035s-1.117,0.012-1.675,0.035V95.76c0.524-0.047,0.756-0.349,0.803-0.861
						c0.035-0.349,0.035-0.722,0.035-1.326v-3.294c0-0.616-0.035-0.896-0.128-1.14c-0.104-0.303-0.314-0.442-0.709-0.489v-0.325
						h5.445c0,0.337-0.012,0.687-0.012,1.023c0,0.279-0.012,0.547,0.012,0.826h-0.418c-0.082-0.896-0.466-1.14-1.851-1.14
						c-0.256,0-0.593,0.011-0.873,0.022c-0.023,0.454-0.035,0.605-0.035,1.28v1.35c0.174,0.012,0.314,0.012,0.523,0.012
						c1.21,0,1.582-0.174,1.652-0.803h0.419c-0.023,0.187-0.023,0.57-0.023,1.152c0,0.593,0.012,0.942,0.023,1.129h-0.419
						c-0.035-0.663-0.35-0.826-1.548-0.826c-0.209,0-0.419,0.011-0.628,0.011c0,0.733,0.012,1.467,0.012,2.2
						c0,0.488,0.081,0.651,0.36,0.722c0.175,0.046,0.442,0.058,0.803,0.058c1.257,0,1.698-0.279,1.966-1.233l0.455,0.093
						C87.301,95.015,87.115,95.691,86.987,95.912L86.987,95.912z"/>
					<path d="M97.752,88.958c-0.014-1.015-0.605-1.409-2.197-1.409c-0.324,0-0.634,0.015-0.985,0.043
						c-0.028,0.972-0.028,1.647-0.028,3.184c0.338,0.014,0.507,0.027,0.746,0.027c1.311,0,1.704-0.225,1.775-0.985h0.506
						c0,0.395-0.027,0.803-0.027,1.197c0,0.521,0.027,1.057,0.027,1.578h-0.506c-0.1-0.846-0.424-1.015-1.902-1.015
						c-0.253,0-0.352,0-0.619,0.014v1.578c0,0.31,0,0.647,0.014,1.015c0.028,0.774,0.085,1.45,1,1.507v0.395l-0.338-0.015
						c-0.352-0.014-0.873-0.014-1.535-0.014c-0.676,0-1.183,0-1.549,0.014l-0.339,0.015v-0.395c0.634-0.057,0.916-0.423,0.973-1.042
						c0.042-0.423,0.042-0.677,0.042-2.071v-3.521c0-0.747-0.042-1.085-0.154-1.381c-0.127-0.366-0.381-0.535-0.86-0.592V86.69
						h6.479c-0.028,0.268-0.028,0.719-0.028,1.311c0,0.563,0,0.647,0.028,0.958H97.752L97.752,88.958z"/>
					<path d="M105.54,96.179c-0.431,0-0.675-0.059-0.919-0.222c-0.385-0.256-0.791-0.953-1.023-1.35
						c-0.396-0.687-0.838-1.419-1.258-2.036c-0.069,0.012-0.127,0.012-0.174,0.012c-0.116,0-0.209-0.012-0.326-0.012v0.617
						c0,0.313,0.012,0.628,0.012,0.942c0.012,0.628,0.023,0.896,0.117,1.141c0.115,0.302,0.325,0.454,0.709,0.488v0.326
						l-0.268-0.012c-0.303-0.012-0.721,0-1.268,0c-0.535,0-0.954-0.012-1.258,0l-0.278,0.012V95.76
						c0.29-0.023,0.431-0.081,0.569-0.232c0.129-0.151,0.211-0.361,0.233-0.629c0.034-0.349,0.046-0.559,0.046-1.71v-1.955
						c0-1.42-0.046-1.77-0.127-2.095c-0.082-0.314-0.326-0.442-0.722-0.489v-0.325c0.232,0.023,0.466,0.011,0.698,0.011
						c0.605,0,0.791,0,1.512-0.034c0.629-0.023,0.989-0.035,1.269-0.035c0.791,0,1.269,0.116,1.663,0.396
						c0.443,0.314,0.734,0.92,0.734,1.524c0,0.954-0.629,1.734-1.699,2.13c0.441,0.559,0.791,1.117,1.198,1.757
						c0.372,0.594,0.745,1.105,1.036,1.396c0.162,0.175,0.268,0.232,0.488,0.291v0.326C106.203,96.156,105.9,96.179,105.54,96.179
						L105.54,96.179z M102.55,88.894c-0.232,0-0.442,0.035-0.698,0.094c0,0.687-0.012,1.932-0.012,2.897
						c0.129,0.023,0.361,0.035,0.512,0.035c0.955,0,1.595-0.594,1.595-1.501C103.946,89.535,103.353,88.894,102.55,88.894
						L102.55,88.894z"/>
					<path d="M113.937,96.075c-0.29-0.012-0.71-0.012-1.245-0.012c-0.547,0-0.965,0-1.256,0.012l-0.268,0.012V95.76
						c0.372-0.023,0.594-0.221,0.594-0.547c0-0.116-0.035-0.279-0.152-0.628c-0.139-0.431-0.232-0.722-0.371-1.118h-2.234
						l-0.233,0.676c-0.175,0.523-0.267,0.907-0.267,1.105c0,0.337,0.15,0.488,0.523,0.512v0.326
						c-0.443-0.012-0.605-0.023-1.164-0.023c-0.547,0-0.709,0.012-1.152,0.023V95.76c0.175-0.023,0.233-0.047,0.361-0.163
						c0.221-0.197,0.442-0.604,0.791-1.489l1.105-2.816c0.303-0.756,0.756-1.979,1.07-2.967h0.791c0.105,0.36,0.35,0.931,0.512,1.35
						l1.641,4.2c0.279,0.711,0.477,1.13,0.629,1.397c0.162,0.279,0.325,0.419,0.604,0.488v0.326L113.937,96.075L113.937,96.075z
						 M110.167,90.373c-0.302,0.791-0.722,1.815-0.896,2.386h1.722L110.167,90.373L110.167,90.373z"/>
					<path d="M122.219,89c-0.129,0.209-0.151,0.407-0.175,1.013c-0.035,1.047-0.046,2.676-0.046,3.455v1.781
						c0,0.268,0.034,0.675,0.034,0.838h-0.791c-0.757-0.989-2.327-2.909-2.327-2.909c-0.186-0.233-1.641-2.025-2.373-2.921
						c0,0.244-0.012,0.093-0.012,0.849v0.757c0,0.873,0.012,1.734,0.047,2.607c0.023,0.488,0.069,0.732,0.186,0.953
						c0.116,0.233,0.291,0.326,0.629,0.338v0.326c-0.408-0.023-0.826-0.023-1.234-0.023c-0.418,0-0.826,0-1.244,0.023V95.76
						c0.768-0.023,0.791-0.663,0.814-1.269c0.012-0.488,0.023-0.896,0.023-1.641v-2.455c0-0.966-0.047-1.199-0.222-1.455
						c-0.116-0.186-0.268-0.256-0.616-0.291v-0.325c0.384,0.023,0.523,0.023,1.012,0.023c0.478,0,0.617,0,1.001-0.023
						c0.14,0.256,0.36,0.488,1.163,1.466c1.141,1.385,2.164,2.561,3.13,3.771v-2.537c0-1.163-0.022-1.454-0.081-1.757
						c-0.082-0.373-0.303-0.559-0.733-0.617v-0.325c0.478,0.023,0.64,0.023,1.233,0.023s0.756,0,1.233-0.023v0.325
						C122.557,88.662,122.381,88.72,122.219,89L122.219,89z"/>
					<path d="M130.338,95.807c-0.756,0.303-1.42,0.419-2.339,0.419l-0.104,0.465c0.059-0.012,0.174,0,0.221,0
						c0.442,0,0.733,0.314,0.733,0.698c0,0.629-0.501,1.071-1.292,1.071c-0.232,0-0.441-0.047-0.697-0.151l0.162-0.454
						c0.152,0.059,0.291,0.093,0.42,0.093c0.325,0,0.547-0.163,0.547-0.453c0-0.233-0.117-0.373-0.291-0.373
						c-0.094,0-0.176,0.035-0.256,0.093l-0.257-0.069l0.233-0.942c-1.024-0.093-1.77-0.431-2.397-1.082
						c-0.722-0.733-1.104-1.734-1.104-2.909c0-2.514,1.617-4.026,4.281-4.026c0.803,0,1.582,0.116,2.257,0.337
						c-0.023,0.268-0.023,0.535-0.023,0.791c0,0.198,0.012,0.617,0.023,0.885H130c-0.186-0.826-0.85-1.269-1.908-1.269
						c-1.64,0-2.641,1.094-2.641,2.909c0,2.095,1.176,3.619,2.793,3.619c0.977,0,1.641-0.488,1.908-1.42l0.441,0.094
						C130.488,94.527,130.385,95.19,130.338,95.807L130.338,95.807z"/>
					<path d="M138.41,96.075c-0.291-0.012-0.709-0.012-1.244-0.012c-0.547,0-0.967,0-1.257,0.012l-0.268,0.012V95.76
						c0.372-0.023,0.593-0.221,0.593-0.547c0-0.116-0.035-0.279-0.15-0.628c-0.141-0.431-0.233-0.722-0.373-1.118h-2.233
						l-0.233,0.676c-0.174,0.523-0.268,0.907-0.268,1.105c0,0.337,0.152,0.488,0.523,0.512v0.326
						c-0.441-0.012-0.604-0.023-1.163-0.023c-0.547,0-0.71,0.012-1.151,0.023V95.76c0.174-0.023,0.232-0.047,0.36-0.163
						c0.222-0.197,0.442-0.604,0.791-1.489l1.105-2.816c0.302-0.756,0.757-1.979,1.07-2.967h0.791
						c0.104,0.36,0.349,0.931,0.513,1.35l1.641,4.2c0.278,0.711,0.477,1.13,0.627,1.397c0.164,0.279,0.326,0.419,0.605,0.488v0.326
						L138.41,96.075L138.41,96.075z M134.641,90.373c-0.303,0.791-0.721,1.815-0.896,2.386h1.723L134.641,90.373L134.641,90.373z"/>
					<path d="M142.213,96.075c-0.291-0.012-0.722-0.012-1.268-0.012c-0.559,0-0.979,0-1.281,0.012l-0.278,0.012V95.76
						c0.547-0.047,0.757-0.326,0.803-0.861c0.034-0.349,0.046-0.559,0.046-1.71v-1.955c0-0.303-0.012-0.617-0.012-0.955
						c0-0.616-0.023-0.896-0.115-1.14c-0.105-0.303-0.326-0.442-0.722-0.489v-0.325l0.278,0.011
						c0.303,0.013,0.723,0.013,1.281,0.013c0.546,0,0.977,0,1.268-0.013l0.279-0.011v0.325c-0.5,0.035-0.756,0.35-0.803,0.873
						c-0.035,0.338-0.035,0.663-0.035,1.711v1.955c0,1.524,0.012,1.78,0.128,2.083c0.104,0.302,0.314,0.454,0.71,0.488v0.326
						L142.213,96.075L142.213,96.075z"/>
					<path d="M145.829,96.226c-0.675,0-1.163-0.093-1.954-0.396c-0.035-0.441-0.117-1.116-0.211-1.675l0.443-0.07
						c0.279,0.942,0.896,1.432,1.791,1.432c0.826,0,1.385-0.431,1.385-1.082c0-0.524-0.36-0.885-0.885-1.211l-1.221-0.779
						c-0.838-0.535-1.326-1.094-1.326-2.118c0-1.303,0.988-2.141,2.524-2.141c0.745,0,1.361,0.14,1.908,0.419
						c-0.012,0.279-0.012,0.372-0.012,0.732c0,0.419,0,0.535,0.012,0.861h-0.442c-0.163-0.838-0.687-1.304-1.489-1.304
						c-0.722,0-1.245,0.454-1.245,1.095c0,0.559,0.385,0.931,1,1.326l0.99,0.64c0.941,0.617,1.477,1.211,1.477,2.142
						C148.574,95.365,147.458,96.226,145.829,96.226L145.829,96.226z"/>
					<path d="M155.184,95.912c-0.105,0.175-0.221,0.209-0.861,0.209c-0.395,0-0.779-0.022-1.175-0.034
						c-0.559-0.012-1.117-0.035-1.676-0.035c-0.558,0-1.116,0.012-1.675,0.035V95.76c0.523-0.047,0.756-0.349,0.803-0.861
						c0.035-0.349,0.035-0.722,0.035-1.326v-3.294c0-0.616-0.035-0.896-0.129-1.14c-0.104-0.303-0.313-0.442-0.709-0.489v-0.325
						h5.445c0,0.337-0.012,0.687-0.012,1.023c0,0.279-0.012,0.547,0.012,0.826h-0.42c-0.08-0.896-0.465-1.14-1.85-1.14
						c-0.256,0-0.594,0.011-0.873,0.022c-0.023,0.454-0.034,0.605-0.034,1.28v1.35c0.175,0.012,0.313,0.012,0.523,0.012
						c1.21,0,1.583-0.174,1.652-0.803h0.419c-0.023,0.187-0.023,0.57-0.023,1.152c0,0.593,0.012,0.942,0.023,1.129h-0.419
						c-0.035-0.663-0.349-0.826-1.548-0.826c-0.209,0-0.419,0.011-0.628,0.011c0,0.733,0.011,1.467,0.011,2.2
						c0,0.488,0.082,0.651,0.361,0.722c0.175,0.046,0.441,0.058,0.803,0.058c1.257,0,1.699-0.279,1.967-1.233l0.453,0.093
						C155.498,95.015,155.312,95.691,155.184,95.912L155.184,95.912z"/>
					<path d="M17.82,76.167c-0.102,0.137-0.272,0.182-0.68,0.182c-0.555,0-1.099-0.034-1.654-0.045
						c-0.476-0.012-0.838-0.023-1.087-0.023c-0.34,0-1.167,0.012-1.405,0.023l-0.158,0.011l0.045-0.238
						c0.34-0.033,0.544-0.136,0.703-0.351c0.181-0.227,0.294-0.544,0.453-1.179c0.147-0.623,0.216-0.997,0.453-2.164l0.182-0.895
						c0.181-0.907,0.249-1.439,0.249-1.723c0-0.498-0.181-0.702-0.668-0.759l0.045-0.25c0.068,0.012,0.125,0.012,0.159,0.012
						c0.419,0,0.827,0.012,1.246,0.012c0.657,0,1.087-0.012,1.28-0.012c0.034,0,0.102,0,0.181-0.012l-0.045,0.25
						c-0.351,0.022-0.543,0.113-0.713,0.34c-0.283,0.362-0.442,0.85-0.861,3.036l-0.147,0.76c-0.181,0.929-0.249,1.246-0.306,1.665
						c-0.022,0.136-0.034,0.283-0.034,0.352c0,0.441,0.226,0.578,0.952,0.578c1.28,0,1.756-0.262,2.175-1.19l0.306,0.113
						C18.217,75.409,17.956,75.987,17.82,76.167L17.82,76.167z"/>
					<path d="M21.184,70.65c-0.352,0-0.578-0.215-0.578-0.544c0-0.407,0.295-0.691,0.702-0.691c0.34,0,0.556,0.204,0.556,0.533
						C21.863,70.355,21.58,70.65,21.184,70.65L21.184,70.65z M19.948,76.44c-0.227,0-0.374-0.125-0.374-0.329
						c0-0.102,0.034-0.283,0.09-0.532c0.147-0.601,0.352-1.416,0.465-1.847c0.158-0.589,0.227-0.997,0.227-1.156
						c0-0.147-0.068-0.215-0.192-0.215c-0.103,0-0.204,0.034-0.442,0.102l-0.079,0.023l-0.034-0.317
						c0.623-0.238,1.235-0.386,1.541-0.386c0.17,0,0.238,0.057,0.238,0.193c0,0.136-0.057,0.498-0.26,1.291l-0.17,0.669
						c-0.283,1.099-0.352,1.484-0.352,1.665c0,0.17,0.091,0.272,0.261,0.272c0.102,0,0.306-0.046,0.623-0.159l0.022,0.317
						C20.911,76.27,20.266,76.44,19.948,76.44L19.948,76.44z"/>
					<path d="M26.188,75.908c-0.442,0.385-0.963,0.543-1.768,0.543c-0.884,0-1.416-0.146-1.416-0.374c0-0.09,0.012-0.203,0.125-0.68
						l0.589-2.571c0.192-0.827,0.34-1.484,0.543-2.414c0.114-0.544,0.159-0.838,0.159-0.985c0-0.136-0.068-0.215-0.192-0.215
						c-0.079,0-0.329,0.057-0.499,0.113l-0.011-0.329l0.136-0.045c0.612-0.204,1.122-0.317,1.359-0.317
						c0.147,0,0.238,0.067,0.238,0.192s-0.056,0.408-0.249,1.246l-0.34,1.496c-0.113,0.487-0.147,0.668-0.181,0.827
						c0.714-0.419,1.337-0.612,1.903-0.612c0.691,0,1.031,0.352,1.031,1.065C27.615,73.902,27.015,75.193,26.188,75.908
						L26.188,75.908z M26.177,72.27c-0.204,0-0.453,0.079-0.771,0.249c-0.328,0.171-0.566,0.352-0.691,0.521
						c-0.147,0.204-0.272,0.556-0.442,1.303c-0.17,0.703-0.249,1.145-0.249,1.304c0,0.215,0.249,0.34,0.702,0.34
						c0.465,0,0.861-0.216,1.156-0.635c0.453-0.646,0.793-1.677,0.793-2.413C26.675,72.508,26.505,72.27,26.177,72.27L26.177,72.27z
						"/>
					<path d="M30.085,74.502c-0.079,0-0.182,0-0.329-0.012c-0.034,0.204-0.045,0.374-0.045,0.544c0,0.578,0.204,0.884,0.601,0.884
						c0.362,0,0.815-0.192,1.484-0.611l0.125,0.385c-0.838,0.521-1.473,0.759-2.05,0.759c-0.703,0-1.087-0.419-1.087-1.178
						c0-1.87,1.269-3.49,2.73-3.49c0.713,0,1.133,0.329,1.133,0.896C32.646,73.72,31.535,74.502,30.085,74.502L30.085,74.502z
						 M31.252,72.236c-0.544,0-1.122,0.748-1.405,1.848h0.113c1.053,0,1.846-0.556,1.846-1.281
						C31.807,72.486,31.558,72.236,31.252,72.236L31.252,72.236z"/>
					<path d="M37.188,73.245l-0.374-0.034c0.022-0.136,0.034-0.295,0.034-0.441c0-0.204-0.181-0.352-0.464-0.352
						c-0.17,0-0.34,0.102-0.487,0.272c-0.431,0.486-0.601,1.257-0.85,2.515l-0.215,1.1c-0.43,0.022-0.543,0.034-0.985,0.09
						c0.113-0.431,0.192-0.771,0.283-1.155l0.25-1.054c0.169-0.714,0.249-1.156,0.249-1.394c0-0.283-0.068-0.408-0.204-0.408
						c-0.068,0-0.17,0.022-0.283,0.057l-0.283,0.091l-0.034-0.34c0.556-0.227,1.189-0.408,1.473-0.408
						c0.113,0,0.182,0.046,0.204,0.159c0.034,0.136,0.057,0.294,0.068,0.486c0.51-0.419,0.963-0.656,1.28-0.656
						c0.215,0,0.487,0.113,0.748,0.306C37.415,72.486,37.278,72.86,37.188,73.245L37.188,73.245z"/>
					<path d="M41.027,72.474l-0.94-0.022l-0.476,2.322c-0.124,0.601-0.136,0.771-0.136,0.861c0,0.158,0.079,0.249,0.227,0.249
						c0.079,0,0.249-0.045,0.521-0.124l0.113-0.034l0.034,0.329c-0.589,0.237-1.201,0.396-1.529,0.396
						c-0.238,0-0.385-0.112-0.385-0.328c0-0.192,0.045-0.476,0.136-0.827c0.103-0.396,0.182-0.726,0.272-1.167l0.351-1.677
						l-0.601,0.011l0.08-0.362c0.77-0.136,1.03-0.748,1.246-1.404l0.544-0.114l-0.283,1.337l0.94-0.011L41.027,72.474L41.027,72.474
						z"/>
					<path d="M44.505,71.081l-0.362-0.295l1.382-1.563l1.02,0.249L44.505,71.081L44.505,71.081z M43.248,74.502
						c-0.08,0-0.182,0-0.329-0.012c-0.034,0.204-0.045,0.374-0.045,0.544c0,0.578,0.204,0.884,0.601,0.884
						c0.362,0,0.815-0.192,1.483-0.611l0.125,0.385c-0.838,0.521-1.473,0.759-2.051,0.759c-0.702,0-1.087-0.419-1.087-1.178
						c0-1.87,1.269-3.49,2.729-3.49c0.714,0,1.133,0.329,1.133,0.896C45.808,73.72,44.698,74.502,43.248,74.502L43.248,74.502z
						 M44.415,72.236c-0.543,0-1.122,0.748-1.405,1.848h0.113c1.054,0,1.847-0.556,1.847-1.281
						C44.97,72.486,44.721,72.236,44.415,72.236L44.415,72.236z"/>
					<path d="M63.97,67.999l-0.362-0.295l1.382-1.563l1.031,0.25L63.97,67.999L63.97,67.999z M66.122,70.412h-0.328
						c0.011-0.124,0.022-0.17,0.022-0.249c0-0.623-0.408-0.838-1.541-0.838c-0.374,0-0.736,0-1.11,0.033
						c-0.238,0.94-0.396,1.757-0.589,2.765c0.182,0,0.238,0,0.419,0c0.725,0,1.031-0.011,1.292-0.057
						c0.419-0.079,0.668-0.328,0.793-0.781h0.306c-0.159,0.668-0.351,1.62-0.431,2.198h-0.306c0.012-0.08,0.022-0.147,0.022-0.193
						c0-0.487-0.306-0.646-1.234-0.646c-0.555,0-0.759,0.011-0.963,0.022c-0.057,0.283,0,0.034-0.261,1.337
						c-0.125,0.635-0.17,1.031-0.17,1.235c0,0.396,0.204,0.499,0.963,0.499c1.428,0,1.869-0.227,2.311-1.201l0.283,0.113
						c-0.25,0.747-0.521,1.348-0.68,1.541c-0.113,0.124-0.26,0.158-0.736,0.158c-0.396,0-0.804-0.011-1.201-0.022
						c-0.521-0.012-1.054-0.022-1.575-0.022c-0.533,0-1.053,0.011-1.586,0.011l0.045-0.238c0.34-0.033,0.543-0.136,0.702-0.351
						c0.181-0.227,0.295-0.544,0.453-1.179c0.147-0.634,0.192-0.895,0.453-2.164l0.181-0.895c0.181-0.884,0.25-1.439,0.25-1.723
						c0-0.498-0.182-0.702-0.668-0.759l0.045-0.25h5.154C66.314,69.268,66.201,69.879,66.122,70.412L66.122,70.412z"/>
					<path d="M71.718,72.462l-0.77-0.011c0.136,0.238,0.181,0.419,0.181,0.68c0,1.042-0.872,1.847-2.005,1.847
						c-0.215,0-0.374-0.022-0.612-0.091c-0.283,0.17-0.374,0.25-0.374,0.352c0,0.125,0.124,0.182,0.623,0.34l0.906,0.283
						c0.906,0.283,1.348,0.556,1.348,1.213c0,1.2-1.189,2.141-2.707,2.141c-1.246,0-2.005-0.589-2.005-1.552
						c0-0.884,0.566-1.303,1.496-1.541c-0.566-0.204-0.691-0.295-0.691-0.487c0-0.249,0.329-0.555,1.008-0.929
						c-0.351-0.25-0.521-0.578-0.521-1.031c0-1.076,0.861-1.893,1.994-1.893c0.294,0,0.51,0.034,0.759,0.125h1.495L71.718,72.462
						L71.718,72.462z M69.555,72.213c-0.612,0-1.11,0.646-1.11,1.416c0,0.533,0.306,0.896,0.748,0.896
						c0.6,0,1.087-0.623,1.087-1.394C70.279,72.565,69.996,72.213,69.555,72.213L69.555,72.213z M69.725,76.802
						c-0.385-0.147-0.85-0.306-1.326-0.441c-0.782,0.192-1.325,0.771-1.325,1.427c0,0.612,0.521,1.021,1.336,1.021
						c0.986,0,1.892-0.669,1.892-1.394C70.302,77.142,70.132,76.961,69.725,76.802L69.725,76.802z"/>
					<path d="M75.975,76.451c-0.204,0-0.271-0.124-0.374-0.68c-0.838,0.477-1.45,0.691-2.05,0.691c-0.68,0-1.076-0.352-1.076-0.975
						c0-0.601,0.294-1.45,0.747-2.152c0.612-0.952,1.371-1.553,2.526-1.553c0.51,0,0.975,0.091,1.461,0.216l-0.057,0.181
						c-0.408,1.304-0.703,2.742-0.703,3.229c0,0.306,0.068,0.476,0.204,0.476c0.091,0,0.329-0.067,0.612-0.17l0.034,0.352
						C76.723,76.281,76.167,76.451,75.975,76.451L75.975,76.451z M75.454,72.259c-0.453,0-0.906,0.34-1.292,0.975
						c-0.431,0.69-0.736,1.608-0.736,2.209c0,0.351,0.17,0.544,0.453,0.544c0.419,0,1.155-0.374,1.438-0.657
						c0.159-0.159,0.25-0.386,0.363-0.815c0.181-0.691,0.351-1.338,0.453-2.086C75.884,72.316,75.646,72.259,75.454,72.259
						L75.454,72.259z"/>
					<path d="M80.993,69.789c-0.374,1.507-0.748,3.185-1.11,4.781c-0.113,0.521-0.17,0.861-0.17,1.031s0.08,0.249,0.25,0.249
						c0.113,0,0.317-0.045,0.623-0.136l0.022,0.317c-0.578,0.227-1.28,0.419-1.585,0.419c-0.216,0-0.34-0.124-0.34-0.34
						c0-0.158,0.034-0.362,0.204-1.076c0.351-1.495,0.736-3.093,1.042-4.521c0.136-0.657,0.204-0.986,0.204-1.088
						c0-0.136-0.068-0.204-0.193-0.204c-0.113,0-0.317,0.046-0.498,0.113l-0.022-0.34c0.577-0.204,1.212-0.362,1.529-0.362
						c0.158,0,0.237,0.067,0.237,0.192C81.186,68.939,81.141,69.2,80.993,69.789L80.993,69.789z"/>
					<path d="M83.801,70.65c-0.351,0-0.578-0.215-0.578-0.544c0-0.407,0.294-0.691,0.702-0.691c0.34,0,0.555,0.204,0.555,0.533
						C84.481,70.355,84.198,70.65,83.801,70.65L83.801,70.65z M82.566,76.44c-0.227,0-0.374-0.125-0.374-0.329
						c0-0.102,0.034-0.283,0.091-0.532c0.147-0.601,0.352-1.416,0.465-1.847c0.158-0.589,0.227-0.997,0.227-1.156
						c0-0.147-0.068-0.215-0.193-0.215c-0.102,0-0.204,0.034-0.442,0.102l-0.079,0.023l-0.034-0.317
						c0.623-0.238,1.235-0.386,1.541-0.386c0.17,0,0.237,0.057,0.237,0.193c0,0.136-0.057,0.498-0.26,1.291l-0.17,0.669
						c-0.283,1.099-0.351,1.484-0.351,1.665c0,0.17,0.091,0.272,0.261,0.272c0.102,0,0.306-0.046,0.623-0.159l0.022,0.317
						C83.529,76.27,82.884,76.44,82.566,76.44L82.566,76.44z"/>
					<path d="M88.262,72.474l-0.94-0.022l-0.476,2.322c-0.125,0.601-0.136,0.771-0.136,0.861c0,0.158,0.079,0.249,0.227,0.249
						c0.079,0,0.249-0.045,0.521-0.124l0.113-0.034l0.034,0.329c-0.589,0.237-1.2,0.396-1.529,0.396
						c-0.237,0-0.385-0.112-0.385-0.328c0-0.192,0.045-0.476,0.136-0.827c0.102-0.396,0.182-0.726,0.271-1.167l0.352-1.677
						l-0.601,0.011l0.079-0.362c0.771-0.136,1.031-0.748,1.246-1.404l0.544-0.114l-0.283,1.337l0.94-0.011L88.262,72.474
						L88.262,72.474z"/>
					<path d="M91.739,71.081l-0.362-0.295l1.382-1.563l1.02,0.249L91.739,71.081L91.739,71.081z M90.481,74.502
						c-0.079,0-0.181,0-0.328-0.012c-0.034,0.204-0.046,0.374-0.046,0.544c0,0.578,0.205,0.884,0.602,0.884
						c0.361,0,0.815-0.192,1.483-0.611l0.125,0.385c-0.839,0.521-1.474,0.759-2.051,0.759c-0.702,0-1.087-0.419-1.087-1.178
						c0-1.87,1.269-3.49,2.729-3.49c0.714,0,1.133,0.329,1.133,0.896C93.042,73.72,91.932,74.502,90.481,74.502L90.481,74.502z
						 M91.648,72.236c-0.543,0-1.121,0.748-1.404,1.848h0.113c1.054,0,1.847-0.556,1.847-1.281
						C92.204,72.486,91.954,72.236,91.648,72.236L91.648,72.236z"/>
					<path d="M113.201,70.401h-0.328c0.012-0.113,0.023-0.204,0.023-0.261c0-0.227-0.08-0.408-0.217-0.544
						c-0.215-0.204-0.611-0.283-1.472-0.283c-0.238,0-0.556,0.012-0.839,0.022c-0.203,0.93-0.385,1.824-0.588,2.787
						c0.215,0,0.43,0.012,0.645,0.012c1.258,0,1.507-0.113,1.745-0.85h0.306c-0.182,0.736-0.328,1.461-0.431,2.209h-0.317
						c0.012-0.079,0.023-0.147,0.023-0.192c0-0.192-0.08-0.374-0.216-0.476c-0.192-0.147-0.419-0.182-1.099-0.182
						c-0.362,0-0.465,0.011-0.759,0.022l-0.147,0.759c-0.215,1.089-0.295,1.599-0.295,1.915c0,0.465,0.204,0.68,0.668,0.736
						l-0.045,0.238l-0.181-0.011c-0.091,0-0.589-0.012-1.021-0.012c-0.453,0-1.291,0-1.438,0.012l-0.193,0.011l0.045-0.238
						c0.341-0.033,0.545-0.136,0.703-0.351c0.182-0.227,0.306-0.544,0.453-1.179c0.158-0.646,0.215-0.985,0.453-2.164l0.182-0.895
						c0.181-0.896,0.248-1.439,0.248-1.723c0-0.498-0.181-0.702-0.668-0.759l0.046-0.25h5.029
						C113.405,69.268,113.293,69.857,113.201,70.401L113.201,70.401z"/>
					<path d="M117.061,73.245l-0.373-0.034c0.022-0.136,0.033-0.295,0.033-0.441c0-0.204-0.181-0.352-0.464-0.352
						c-0.171,0-0.34,0.102-0.487,0.272c-0.43,0.486-0.601,1.257-0.85,2.515l-0.215,1.1c-0.432,0.022-0.544,0.034-0.986,0.09
						c0.113-0.431,0.193-0.771,0.283-1.155l0.25-1.054c0.17-0.714,0.249-1.156,0.249-1.394c0-0.283-0.068-0.408-0.204-0.408
						c-0.068,0-0.17,0.022-0.283,0.057l-0.283,0.091l-0.034-0.34c0.556-0.227,1.189-0.408,1.473-0.408
						c0.114,0,0.182,0.046,0.204,0.159c0.034,0.136,0.057,0.294,0.068,0.486c0.51-0.419,0.963-0.656,1.279-0.656
						c0.216,0,0.487,0.113,0.748,0.306C117.287,72.486,117.152,72.86,117.061,73.245L117.061,73.245z"/>
					<path d="M121.53,76.451c-0.204,0-0.272-0.124-0.374-0.68c-0.838,0.477-1.449,0.691-2.051,0.691
						c-0.68,0-1.076-0.352-1.076-0.975c0-0.601,0.295-1.45,0.748-2.152c0.611-0.952,1.371-1.553,2.526-1.553
						c0.51,0,0.974,0.091,1.462,0.216l-0.057,0.181c-0.408,1.304-0.703,2.742-0.703,3.229c0,0.306,0.068,0.476,0.204,0.476
						c0.091,0,0.328-0.067,0.612-0.17l0.033,0.352C122.277,76.281,121.723,76.451,121.53,76.451L121.53,76.451z M121.01,72.259
						c-0.454,0-0.906,0.34-1.292,0.975c-0.431,0.69-0.736,1.608-0.736,2.209c0,0.351,0.17,0.544,0.453,0.544
						c0.419,0,1.155-0.374,1.438-0.657c0.158-0.159,0.25-0.386,0.363-0.815c0.181-0.691,0.351-1.338,0.453-2.086
						C121.439,72.316,121.201,72.259,121.01,72.259L121.01,72.259z"/>
					<path d="M126.934,72.474l-0.939-0.022l-0.477,2.322c-0.124,0.601-0.136,0.771-0.136,0.861c0,0.158,0.079,0.249,0.227,0.249
						c0.079,0,0.249-0.045,0.521-0.124l0.112-0.034l0.035,0.329c-0.59,0.237-1.201,0.396-1.529,0.396
						c-0.238,0-0.386-0.112-0.386-0.328c0-0.192,0.046-0.476,0.136-0.827c0.102-0.396,0.182-0.726,0.271-1.167l0.352-1.677
						l-0.6,0.011L124.6,72.1c0.771-0.136,1.031-0.748,1.246-1.404l0.545-0.114l-0.283,1.337l0.939-0.011L126.934,72.474
						L126.934,72.474z"/>
					<path d="M129.154,74.502c-0.08,0-0.182,0-0.328-0.012c-0.035,0.204-0.046,0.374-0.046,0.544c0,0.578,0.204,0.884,0.601,0.884
						c0.362,0,0.815-0.192,1.484-0.611l0.124,0.385c-0.838,0.521-1.473,0.759-2.05,0.759c-0.703,0-1.088-0.419-1.088-1.178
						c0-1.87,1.269-3.49,2.73-3.49c0.713,0,1.133,0.329,1.133,0.896C131.715,73.72,130.604,74.502,129.154,74.502L129.154,74.502z
						 M130.32,72.236c-0.543,0-1.121,0.748-1.404,1.848h0.113c1.054,0,1.847-0.556,1.847-1.281
						C130.876,72.486,130.627,72.236,130.32,72.236L130.32,72.236z"/>
					<path d="M136.257,73.245l-0.374-0.034c0.023-0.136,0.034-0.295,0.034-0.441c0-0.204-0.181-0.352-0.464-0.352
						c-0.17,0-0.34,0.102-0.487,0.272c-0.431,0.486-0.601,1.257-0.851,2.515l-0.215,1.1c-0.43,0.022-0.543,0.034-0.985,0.09
						c0.114-0.431,0.192-0.771,0.283-1.155l0.249-1.054c0.17-0.714,0.25-1.156,0.25-1.394c0-0.283-0.068-0.408-0.204-0.408
						c-0.068,0-0.17,0.022-0.283,0.057l-0.283,0.091l-0.034-0.34c0.555-0.227,1.189-0.408,1.473-0.408
						c0.113,0,0.182,0.046,0.204,0.159c0.034,0.136,0.057,0.294,0.067,0.486c0.51-0.419,0.963-0.656,1.28-0.656
						c0.216,0,0.487,0.113,0.748,0.306C136.483,72.486,136.348,72.86,136.257,73.245L136.257,73.245z"/>
					<path d="M140.774,76.451c-0.227,0-0.362-0.136-0.362-0.34c0-0.136,0.045-0.385,0.181-0.951l0.113-0.476
						c0.341-1.417,0.419-1.893,0.419-2.085c0-0.171-0.078-0.261-0.237-0.261c-0.192,0-0.511,0.113-0.85,0.316
						c-0.362,0.205-0.635,0.442-0.771,0.646c-0.102,0.17-0.182,0.465-0.317,1.065c-0.181,0.826-0.294,1.394-0.385,1.926
						c-0.442,0.034-0.556,0.046-0.997,0.102c0.227-0.85,0.396-1.552,0.566-2.334c0.17-0.771,0.238-1.133,0.238-1.337
						c0-0.261-0.08-0.385-0.25-0.385c-0.09,0-0.283,0.045-0.555,0.136l-0.022-0.317c0.544-0.215,1.133-0.374,1.404-0.374
						c0.249,0,0.329,0.147,0.329,0.68v0.091c0.861-0.487,1.744-0.771,2.355-0.771c0.374,0,0.521,0.091,0.521,0.317
						c0,0.238-0.068,0.612-0.306,1.529c-0.136,0.521-0.261,1.077-0.306,1.326c-0.068,0.328-0.103,0.532-0.103,0.657
						c0,0.17,0.091,0.261,0.249,0.261c0.103,0,0.317-0.046,0.59-0.147l0.033,0.329C141.715,76.27,141.035,76.451,140.774,76.451
						L140.774,76.451z"/>
					<path d="M145.543,70.65c-0.352,0-0.578-0.215-0.578-0.544c0-0.407,0.295-0.691,0.703-0.691c0.339,0,0.555,0.204,0.555,0.533
						C146.223,70.355,145.939,70.65,145.543,70.65L145.543,70.65z M144.309,76.44c-0.227,0-0.375-0.125-0.375-0.329
						c0-0.102,0.034-0.283,0.092-0.532c0.146-0.601,0.351-1.416,0.464-1.847c0.159-0.589,0.227-0.997,0.227-1.156
						c0-0.147-0.067-0.215-0.192-0.215c-0.102,0-0.204,0.034-0.441,0.102l-0.08,0.023l-0.034-0.317
						c0.624-0.238,1.235-0.386,1.541-0.386c0.17,0,0.237,0.057,0.237,0.193c0,0.136-0.057,0.498-0.26,1.291l-0.17,0.669
						c-0.283,1.099-0.352,1.484-0.352,1.665c0,0.17,0.091,0.272,0.261,0.272c0.103,0,0.306-0.046,0.623-0.159l0.022,0.317
						C145.271,76.27,144.625,76.44,144.309,76.44L144.309,76.44z"/>
					<path d="M150.004,72.474l-0.941-0.022l-0.475,2.322c-0.125,0.601-0.137,0.771-0.137,0.861c0,0.158,0.08,0.249,0.227,0.249
						c0.08,0,0.249-0.045,0.521-0.124l0.113-0.034l0.033,0.329c-0.588,0.237-1.2,0.396-1.529,0.396
						c-0.238,0-0.385-0.112-0.385-0.328c0-0.192,0.045-0.476,0.136-0.827c0.103-0.396,0.181-0.726,0.272-1.167l0.352-1.677
						l-0.602,0.011l0.08-0.362c0.77-0.136,1.031-0.748,1.246-1.404l0.543-0.114l-0.283,1.337l0.94-0.011L150.004,72.474
						L150.004,72.474z"/>
					<path d="M153.48,71.081l-0.362-0.295l1.382-1.563l1.02,0.249L153.48,71.081L153.48,71.081z M152.224,74.502
						c-0.079,0-0.182,0-0.329-0.012c-0.033,0.204-0.045,0.374-0.045,0.544c0,0.578,0.203,0.884,0.6,0.884
						c0.363,0,0.816-0.192,1.484-0.611l0.125,0.385c-0.838,0.521-1.473,0.759-2.051,0.759c-0.702,0-1.087-0.419-1.087-1.178
						c0-1.87,1.269-3.49,2.729-3.49c0.714,0,1.133,0.329,1.133,0.896C154.783,73.72,153.674,74.502,152.224,74.502L152.224,74.502z
						 M153.391,72.236c-0.545,0-1.122,0.748-1.404,1.848h0.112c1.054,0,1.847-0.556,1.847-1.281
						C153.945,72.486,153.696,72.236,153.391,72.236L153.391,72.236z"/>
					<path d="M100.365,74.341c0.76,0,1.375-0.616,1.375-1.375c0-0.76-0.615-1.376-1.375-1.376s-1.375,0.616-1.375,1.376
						C98.99,73.725,99.605,74.341,100.365,74.341L100.365,74.341z"/>
					<path d="M53.161,74.341c0.76,0,1.375-0.616,1.375-1.375c0-0.76-0.615-1.376-1.375-1.376c-0.759,0-1.375,0.616-1.375,1.376
						C51.786,73.725,52.402,74.341,53.161,74.341L53.161,74.341z"/>
					<line fill="none" x1="13.572" y1="81.447" x2="154.861" y2="81.447"/>
					<rect x="13.572" y="81.177" width="141.289" height="0.54"/>
					<g>
						<defs>
							<polygon id="SVGID_1_" points="13.772,62.205 13.772,14.733 155.198,14.733 155.198,62.205 13.772,62.205 							"/>
						</defs>
						<clipPath id="SVGID_2_">
							<use xlink:href="#SVGID_1_"  overflow="visible"/>
						</clipPath>
						<path clip-path="url(#SVGID_2_)" fill="#014EA2" d="M13.411,62.486c0.216-11.776,0-23.444,0.324-35.22
							c0.108-4.213-0.107-8.427-0.107-12.641c2.916-0.54,5.833-0.216,8.749-0.108c18.688,0,37.267-0.108,55.954,0
							c-1.296,0.648-2.809,1.188-3.781,2.377c-0.864,1.08-1.729,2.161-2.052,3.457c-1.404,0.864-2.268,2.161-3.025,3.457
							c-0.972,1.837-2.376,3.458-2.16,5.51c0.216,1.729,0.648,3.349,0.973,5.186c0.107,0.648,0.216,1.188,0.432,1.836
							s0,1.405,0.324,1.945c0.216,0.324,0.108,0.756,0.54,0.973c0,0.107,0,0.324,0,0.432c0.108,0.108,0.108,0.216,0.324,0.216
							c0,0.108,0,0.324,0,0.433c0.864,1.08,1.944,2.053,2.484,3.241c0.216,0.648-1.08,0.324-1.62,0.108
							c-1.08-0.541-1.729-1.405-2.593-2.161c0,0-0.108,0.108-0.108,0.216c0.432,0.756,2.052,1.729,1.188,2.269
							c-0.432,0.216-0.972-0.324-1.404,0.108c-0.108,0.216,0,0.432,0,0.648c-0.648-0.433-1.296-0.216-1.944-0.433
							c-0.432-0.107-0.54-0.972-1.08-0.972c-1.404-0.324-2.7-0.648-4.104-0.756c-1.944-0.216-3.781-0.54-5.725-0.216
							c-1.728,0.108-3.024,1.404-4.105,2.701c0,0.108,0,0.324,0,0.324c0.756,0.108,1.081-0.541,1.729-0.756
							c1.08-0.216,2.053-0.648,3.133-0.864c1.62-0.324,3.132-0.756,4.645-0.648c0.324,0,0.756-0.107,1.08,0
							c-1.944-0.107-3.672,0.541-5.509,1.081l0,0c-1.282,0.377-2.593,0.432-3.78,1.08c2.808-0.108,5.617,0.324,8.317,1.188
							c0.972,0.324,1.836,0.756,2.7,1.296c0.432,0.324,0.648,0.648,1.08,0.864c0.54,0.324,1.296,0.324,1.836,0.108
							c0.108,0,0.432,0,0.54,0c1.621-0.432,3.349-0.864,4.429-2.053c0,0.108,0.108,0.108,0.216,0.108
							c-0.324,0.864-0.324,1.836-0.973,2.593c0,0.108-0.107,0.324,0.108,0.432c0.108,0,0.108,0,0.216,0
							c-0.108,0-0.216,0-0.216,0.108c0,0.216,0.324,0,0.432,0.216c-0.541,0.108-1.081,0.217-1.405,0.648
							c0,0.108,0.217,0.108,0.324,0.108c-0.216,0.216-0.54,0.108-0.648,0.324c0,0,0.108,0.107,0.216,0.107
							c-0.108,0-0.216,0-0.216,0.108c0,0.108,0,0.216,0,0.324c-0.324,0-0.432,0.216-0.648,0.324c0.432,0.324,0.756,0,1.188,0
							c-1.188,0.432-2.161,1.08-3.349,1.404c-0.216,0,0,0.324-0.216,0.324c0.324,0.216,0.54-0.108,0.864-0.108
							c-1.512,0.864-3.024,1.621-4.645,2.593c0,0-0.216,0.216-0.216,0.433c-0.108,0-0.324,0-0.432,0
							c-0.216,0.107-0.108,0.432-0.324,0.648c0.54,0.324,1.188-0.433,1.512,0c0.108,0-0.216,0.107-0.432,0.107
							c-0.108,0-0.108,0.217-0.216,0.217s-0.216,0-0.324,0c-0.216,0.216-0.432,0.324-0.432,0.647c-0.216,0-0.432,0-0.54,0.217
							c2.377-0.324,4.861-0.108,7.129-1.297c1.728-0.864,3.349-2.053,4.752-3.565c0,0,0.108,0.108,0.108,0.216
							c-0.324,1.081-0.972,1.836-1.836,2.485c-0.648,0.324-1.08,0.864-1.621,1.08c-0.324,0.217-0.647,0.433-0.972,0.648
							c-3.997,1.404-8.75,0.757-12.206,3.457c0-0.107-0.108-0.107-0.216-0.107c-0.216,0.216-0.541,0.324-0.648,0.54
							c0,0.216,0.324,0.108,0.432,0.108c0.648-0.433,1.296-0.757,2.052-0.973c-0.864,0.432-1.729,1.08-2.592,1.296
							c-1.836,0.324-3.565,0.217-5.401,0c1.08-0.647,2.16-1.404,3.349-2.053c-0.324-0.216-0.648-0.216-0.973-0.216
							c-0.54,0.108-1.188-0.216-1.728,0c-1.621,0.757-3.781,0.54-4.645,2.269"/>
						<path clip-path="url(#SVGID_2_)" fill="#FFFFFF" d="M49.921,49.414c-0.332,0.083-0.648,0.324-0.54,0.54
							c0.324,0.433,0.972-0.108,1.512-0.108c-0.647,0.216-1.404,0.108-1.944,0.648c0.433,0.324,0.864,0.108,1.297,0.108
							c0,0.216,0.216,0.216,0.324,0.324c-0.54,0.216-0.972,0.648-1.08,0.972c-0.216,0.541-0.756,0.757-1.081,1.188
							c0,0.108,0,0.217,0,0.324c-1.08,0.973-2.268,1.621-3.132,2.81c0.108,0,0.108,0.107,0.108,0.216
							c-0.216,0.324-0.648,0.432-0.756,0.756c0,0.108,0,0.217,0.108,0.217c1.296-0.433,2.268-1.405,3.457-1.837
							c0.864-0.216,1.513-0.756,2.269-0.973c0.54-0.107,1.188-0.324,1.729-0.432c0,0.107,0,0.216,0.107,0.216
							c0.324,0,0.54,0,0.864,0c-0.108,0.216-0.54,0.108-0.432,0.216c0.324,0.324,0.972,0.216,1.404,0
							c0.324-0.216,0.647-0.216,1.08-0.216c0.108,0,0.108-0.216,0.108-0.324c0.324,0.108,0.54,0.108,0.864,0.108
							c2.593-0.541,5.077-1.081,7.454-2.27c-2.809-2.16-6.374-2.917-9.722-3.889c0.324,0,0.648,0.324,0.972,0
							c-0.54-0.433-1.188-0.216-1.729-0.54c0.108,0,0.324,0.107,0.433-0.108c-0.864-0.432-1.729-0.432-2.593-0.648
							c0.54-0.108,0.864-0.54,0.864-1.08c0-0.108-0.216-0.108-0.324-0.108c-1.296,0.648-2.16,1.837-2.7,3.241
							c0.756,0.433,1.62,0.108,2.376,0.216C50.893,49.305,50.353,49.305,49.921,49.414L49.921,49.414z"/>
						<path clip-path="url(#SVGID_2_)" fill="#FFFFFF" d="M45.492,45.2c-1.103,1.168-2.269,2.27-3.673,3.025
							c-0.972,1.944-2.052,3.673-3.457,5.51c0,0.108,0.108,0.216,0.108,0.216c2.593-2.917,4.969-5.402,8.317-7.455
							c0.216-0.108-0.324,0.324,0.108,0.216c1.404-0.324,1.836-1.729,2.484-2.809c0.864-1.405,2.376-1.945,3.456-3.133
							c0,0.108,0,0.216-0.107,0.324c0.107,0.108,0.216,0.108,0.324,0.108c0.432-0.324,0.972-0.216,1.296-0.648
							c-0.864-0.324-1.944-0.432-2.809-0.108C49.272,41.527,47.328,43.255,45.492,45.2L45.492,45.2z"/>
						<path clip-path="url(#SVGID_2_)" fill="#FFFFFF" d="M47.112,47.252c0.097-0.193,0.216-0.216,0.324-0.432
							c0-0.108,0-0.216-0.108-0.216c-0.432,0.108-0.756,0.541-0.864,0.972c0,0.108,0.108,0.108,0.216,0.108
							C46.896,47.577,47.004,47.469,47.112,47.252L47.112,47.252z"/>
						<path clip-path="url(#SVGID_2_)" fill="#FFFFFF" d="M55.754,55.463c-0.432,0.216-1.188,0.216-1.296,0.757
							c-0.108,0.216,0.324,0.107,0.54,0.107c0.756-0.324,1.621,0,2.268-0.648c-0.216-0.216-0.54-0.108-0.756-0.432
							C56.294,55.14,55.97,55.355,55.754,55.463L55.754,55.463z"/>
						<path clip-path="url(#SVGID_2_)" fill="#014EA2" d="M67.528,61.298c0.667-0.148,1.296-0.541,1.944-0.757
							c0,0.108,0,0.108,0,0.216c1.621-0.647,2.809-2.053,4.429-2.593c0.108,0,0.324,0.216,0.54,0.108
							c0.972-0.864,2.052-1.837,3.457-1.621c0,0.108,0,0.216,0.108,0.216s0.216,0,0.216-0.107c-0.432,0.324-0.864,0.648-1.296,0.973
							c-0.108,0.107,0,0.216,0.108,0.216c0.54-0.216,0.864-0.648,1.404-0.864c-0.108,0.107-0.108,0.324-0.216,0.432
							c-2.053,1.513-3.564,3.241-5.185,5.078c-1.08,0-2.268,0-3.348,0c0-0.108,0-0.216-0.108-0.216
							c-3.78,0.324-7.453,0.216-11.234,0.216c2.161-0.324,4.321-0.973,6.481-1.188C65.691,61.406,66.556,61.514,67.528,61.298
							L67.528,61.298z"/>
						<path clip-path="url(#SVGID_2_)" fill="#ED1C24" d="M110.087,55.788c0.261-0.78,0.54-1.62,0.108-2.377
							c-0.648-0.972,0.648-1.296,1.08-1.944c0.324-0.54-0.217-0.864-0.324-1.404c-0.107-0.216-0.541-0.108-0.756-0.433
							c0.756-0.324,1.943-0.972,1.404-1.944c-0.324-0.54-0.865-1.404-0.217-1.945c0.756-0.432,1.944-0.324,2.269-1.081
							c0.54-1.296-0.647-2.377-1.296-3.457c-0.324-0.648-0.756-1.08-1.188-1.729c-0.433-0.756-0.972-1.405-1.188-2.269
							c-0.324-0.865,0.108-1.621,0.108-2.485c0.108-1.62-0.324-3.241-0.756-4.861c-0.324-0.757-0.433-1.621-0.757-2.377
							c-0.107-0.433-0.216-0.864-0.539-1.297c-0.108-0.216-0.108-0.54,0-0.756c0.432-0.324,0.863-0.648,1.296-1.081
							c0.323-0.541,0.108-1.296-0.433-1.621c-0.756-0.324-0.648,0.756-1.188,0.973c-0.108,0-0.217,0-0.324,0
							c-0.108-0.324,0.107-0.433,0.324-0.648c0-0.108,0-0.324-0.108-0.324c-0.433,0-0.864-0.108-0.972-0.324
							c-1.08-1.513-2.594-2.269-4.213-2.917c0.432,0.108,0.863,0.216,1.296,0.216c0.757,0.108,1.62,0.108,2.269-0.216
							c0.54-0.216,0.648-1.08,0.863-1.621c0.217-0.432-0.107-1.081-0.323-1.404c-0.54-0.865-1.404-1.405-2.269-1.837
							c17.066,0,34.134,0,51.201,0c0.107,15.99-0.108,31.979-0.217,47.969c-20.199,0.324-40.398,0-60.598,0
							c0.647-2.161,1.836-4.214,3.78-5.618c0.433-0.216,0.972-0.324,1.513-0.433c1.836,0,3.672,0.541,5.508,0.757
							c0.217,0,0.434,0.108,0.648,0.216c0.648,0.108,1.404,0.108,2.053-0.107C108.898,57.192,109.763,56.76,110.087,55.788
							L110.087,55.788z"/>
						<path clip-path="url(#SVGID_2_)" fill="#808080" d="M105.982,34.504c-0.638-0.159-1.188,0-1.836,0
							c-0.865,0.216-1.621,0.324-2.377,0.648c0.648-0.432,1.296-0.864,2.053-1.081c0.539-0.107,1.08-0.432,1.619-0.432
							c0.648-0.108,1.297-0.324,1.837-0.108c0.54,0.216,1.404,0.216,1.513,0.54c0.216,0.648-0.324,1.297-0.973,1.729
							c-0.107,0.217,0.324,0.324,0.324,0.541c-0.107,0.216-0.432,0.324-0.648,0.324c-0.216,0.108-0.432,0.432-0.648,0.648
							c0.217,0,0,0.324,0.217,0.324c-0.432,0.54,0.216,1.621-0.432,1.837c-0.756,0.216-1.621,0.216-2.484,0
							c0.432-0.108,0.972,0.108,1.295-0.324c0-0.108,0-0.324,0-0.432s-0.107-0.108-0.215-0.108
							c-0.108,0.108-0.217,0.108-0.217,0.108c0-0.216-0.216-0.432-0.324-0.432c-0.648,0.108-1.188-0.216-1.62-0.648
							c0.324-0.108,0.648-0.216,0.972-0.108c0.324,0,0.217-0.541,0.541-0.756c0.107,0,0.216,0,0.324,0
							c0.648-0.864,1.943-1.08,2.16-1.944C107.062,34.612,106.414,34.612,105.982,34.504L105.982,34.504z"/>
					</g>
				</g>
			</g>
		</g>
	</g>
</g>
<g id="Baseline">
	<g>
		<path fill="#A7AAAC" d="M192.029,86.043V73.188h5.06c5.005,0,4.987,7.94,0,7.94h-2.485v4.915H192.029z M196.873,78.625
			c1.729,0,1.729-2.881,0-2.881h-2.269v2.881H196.873z"/>
		<path fill="#A7AAAC" d="M212.677,72.954c8.859,0,8.859,13.271,0,13.271S203.818,72.954,212.677,72.954z M212.677,75.601
			c-5.149,0-5.149,7.958,0,7.958S217.827,75.601,212.677,75.601z"/>
		<path fill="#A7AAAC" d="M231.739,86.043l-2.593-4.915h-1.243v4.915h-2.575V73.17h5.078c4.591,0,5.042,6.464,1.26,7.562
			l2.989,5.311H231.739z M227.904,78.625h2.269c1.747,0,1.747-2.881,0-2.881h-2.269V78.625z"/>
		<path fill="#A7AAAC" d="M242.087,86.043V75.745h-3.205v-2.557h8.985v2.557h-3.205v10.299H242.087z"/>
		<path fill="#A7AAAC" d="M257.676,72.702h0.271l5.419,13.342h-2.899l-0.522-1.386h-4.268l-0.504,1.386h-2.917L257.676,72.702z
			 M258.99,82.245l-1.17-3.349l-1.206,3.349H258.99z"/>
		<path fill="#A7AAAC" d="M268.763,86.043V73.17h2.575v12.873H268.763z"/>
		<path fill="#A7AAAC" d="M280.409,73.17v10.299h4.087v2.574h-6.662V73.17H280.409z"/>
		<path fill="#A7AAAC" d="M301.595,86.043h-2.575V72.9h0.685l6.5,7.562v-7.274h2.592v13.126h-0.684l-6.518-7.274V86.043z"/>
		<path fill="#A7AAAC" d="M319.559,72.702h0.271l5.42,13.342h-2.899l-0.522-1.386h-4.268l-0.504,1.386h-2.916L319.559,72.702z
			 M320.874,82.245l-1.171-3.349l-1.205,3.349H320.874z"/>
		<path fill="#A7AAAC" d="M332.771,86.043V75.745h-3.205v-2.557h8.984v2.557h-3.205v10.299H332.771z"/>
		<path fill="#A7AAAC" d="M344.092,86.043V73.17h2.575v12.873H344.092z"/>
		<path fill="#A7AAAC" d="M359.358,72.954c8.858,0,8.858,13.271,0,13.271S350.5,72.954,359.358,72.954z M359.358,75.601
			c-5.149,0-5.149,7.958,0,7.958S364.507,75.601,359.358,75.601z"/>
		<path fill="#A7AAAC" d="M374.583,86.043h-2.574V72.9h0.684l6.5,7.562v-7.274h2.594v13.126h-0.685l-6.519-7.274V86.043z"/>
		<path fill="#A7AAAC" d="M392.548,72.702h0.27l5.42,13.342h-2.898l-0.521-1.386h-4.268l-0.504,1.386h-2.918L392.548,72.702z
			 M393.863,82.245l-1.17-3.349l-1.207,3.349H393.863z"/>
		<path fill="#A7AAAC" d="M406.21,73.17v10.299h4.087v2.574h-6.662V73.17H406.21z"/>
		<path fill="#A7AAAC" d="M428.656,86.043h-3.834V73.17h3.834C437.227,73.17,437.227,86.043,428.656,86.043z M427.396,75.745v7.725
			h1.26c5.006,0,5.006-7.725,0-7.725H427.396z"/>
		<path fill="#A7AAAC" d="M441.093,86.043V73.17h6.445v2.574h-3.871v2.575h3.385v2.575h-3.385v2.574h4.088v2.574H441.093z"/>
		<path fill="#A7AAAC" d="M453.495,82.515c1.477,1.044,3.079,1.08,3.673,1.026c0.756-0.055,1.404-0.595,1.332-1.297
			c-0.053-0.738-0.611-1.062-1.332-1.314c-2.017-0.738-3.816-1.764-3.816-3.925s1.494-3.817,3.637-3.925
			c0.666-0.037,1.549-0.037,3.205,0.539l-0.324,2.485c-1.422-0.576-2.232-0.558-2.629-0.54c-0.918,0.054-1.332,0.721-1.278,1.44
			c0.071,0.72,0.702,1.044,1.44,1.296c1.998,0.738,3.727,1.891,3.727,3.943c0,2.143-1.477,3.781-3.889,3.907
			c-0.721,0.054-2.322-0.036-4.069-0.937L453.495,82.515z"/>
		<path fill="#A7AAAC" d="M479.867,72.702h0.27l5.42,13.342h-2.9l-0.521-1.386h-4.268l-0.504,1.386h-2.916L479.867,72.702z
			 M481.181,82.245l-1.172-3.349l-1.205,3.349H481.181z"/>
		<path fill="#A7AAAC" d="M497.363,86.043l-2.594-4.915h-1.242v4.915h-2.574V73.17h5.076c4.592,0,5.043,6.464,1.262,7.562
			l2.988,5.311H497.363z M493.527,78.625h2.27c1.746,0,1.746-2.881,0-2.881h-2.27V78.625z"/>
		<path fill="#A7AAAC" d="M511.546,75.601c-5.096,0-5.096,7.851,0,7.851c1.115,0,1.998-0.324,2.484-0.576l0.342,2.664
			c-0.793,0.324-1.926,0.541-2.826,0.541c-8.732,0-8.715-13.072,0-13.072c0.9,0,1.764,0.162,2.537,0.504l-0.305,2.646
			C513.292,75.907,512.662,75.601,511.546,75.601z"/>
		<path fill="#A7AAAC" d="M526.451,86.043v-5.148h-3.854v5.148h-2.574V73.17h2.574v5.149h3.854V73.17h2.574v12.873H526.451z"/>
		<path fill="#A7AAAC" d="M535.519,86.043V73.17h2.576v12.873H535.519z"/>
		<path fill="#A7AAAC" d="M548.589,86.314l-5.33-13.144h2.971l1.711,4.285l0.936,2.664l0.918-2.574l1.729-4.375h2.973l-5.33,13.144
			H548.589z"/>
		<path fill="#A7AAAC" d="M559.658,86.043V73.17h6.445v2.574h-3.871v2.575h3.385v2.575h-3.385v2.574h4.088v2.574H559.658z"/>
		<path fill="#A7AAAC" d="M572.058,82.515c1.477,1.044,3.08,1.08,3.674,1.026c0.756-0.055,1.404-0.595,1.332-1.297
			c-0.053-0.738-0.611-1.062-1.332-1.314c-2.016-0.738-3.816-1.764-3.816-3.925s1.494-3.817,3.637-3.925
			c0.666-0.037,1.549-0.037,3.205,0.539l-0.324,2.485c-1.422-0.576-2.232-0.558-2.629-0.54c-0.918,0.054-1.332,0.721-1.279,1.44
			c0.072,0.72,0.703,1.044,1.441,1.296c1.998,0.738,3.727,1.891,3.727,3.943c0,2.143-1.477,3.781-3.889,3.907
			c-0.721,0.054-2.322-0.036-4.068-0.937L572.058,82.515z"/>
	</g>
</g>
<g id="Signature">
	<g>
		<path fill="#0D4E97" d="M195.976,62.184h-5.555V27.918h19.336v4.734h-13.781v10.711h12.914v4.758h-12.914V62.184z"/>
		<path fill="#0D4E97" d="M234.291,35.793c1.109,0,2.023,0.078,2.742,0.234l-0.539,5.133c-0.781-0.188-1.594-0.281-2.438-0.281
			c-2.203,0-3.988,0.719-5.355,2.156s-2.051,3.305-2.051,5.602v13.547h-5.508V36.262h4.312l0.727,4.57h0.281
			c0.859-1.547,1.98-2.773,3.363-3.68S232.697,35.793,234.291,35.793z"/>
		<path fill="#0D4E97" d="M263.816,62.184l-1.102-3.609h-0.188c-1.25,1.578-2.508,2.652-3.773,3.223s-2.891,0.855-4.875,0.855
			c-2.547,0-4.535-0.688-5.965-2.062s-2.145-3.32-2.145-5.836c0-2.672,0.992-4.688,2.977-6.047s5.008-2.102,9.07-2.227l4.477-0.141
			v-1.383c0-1.656-0.387-2.895-1.16-3.715s-1.973-1.23-3.598-1.23c-1.328,0-2.602,0.195-3.82,0.586s-2.391,0.852-3.516,1.383
			l-1.781-3.938c1.406-0.734,2.945-1.293,4.617-1.676s3.25-0.574,4.734-0.574c3.297,0,5.785,0.719,7.465,2.156
			c1.68,1.438,2.52,3.695,2.52,6.773v17.461H263.816z M255.613,58.434c2,0,3.605-0.559,4.816-1.676
			c1.211-1.118,1.816-2.684,1.816-4.7v-2.25l-3.328,0.141c-2.594,0.094-4.48,0.527-5.66,1.301s-1.77,1.957-1.77,3.551
			c0,1.157,0.344,2.051,1.031,2.684S254.238,58.434,255.613,58.434z"/>
		<path fill="#0D4E97" d="M304.006,62.184h-5.531V46.246c0-2-0.402-3.492-1.207-4.477s-2.082-1.477-3.832-1.477
			c-2.328,0-4.031,0.688-5.109,2.062s-1.617,3.68-1.617,6.914v12.915h-5.508V36.262h4.312l0.773,3.398h0.281
			c0.781-1.234,1.891-2.188,3.328-2.859s3.031-1.008,4.781-1.008c6.219,0,9.328,3.164,9.328,9.492V62.184z"/>
		<path fill="#0D4E97" d="M327.883,62.653c-3.922,0-6.902-1.145-8.941-3.434s-3.059-5.575-3.059-9.856
			c0-4.359,1.066-7.711,3.199-10.055s5.215-3.516,9.246-3.516c2.734,0,5.195,0.508,7.383,1.523l-1.664,4.43
			c-2.328-0.906-4.25-1.359-5.766-1.359c-4.484,0-6.727,2.977-6.727,8.93c0,2.906,0.559,5.09,1.676,6.551
			c1.117,1.461,2.754,2.191,4.91,2.191c2.453,0,4.773-0.609,6.961-1.828v4.805c-0.984,0.578-2.035,0.992-3.152,1.242
			S329.477,62.653,327.883,62.653z"/>
		<path fill="#0D4E97" d="M358.276,62.653c-4.031,0-7.184-1.176-9.457-3.527s-3.41-5.59-3.41-9.715c0-4.234,1.055-7.562,3.164-9.984
			s5.008-3.633,8.695-3.633c3.422,0,6.125,1.039,8.109,3.117s2.977,4.938,2.977,8.578v2.977h-17.273
			c0.078,2.516,0.758,4.449,2.039,5.801c1.281,1.352,3.086,2.027,5.414,2.027c1.531,0,2.957-0.145,4.277-0.434
			s2.738-0.77,4.254-1.441v4.477c-1.344,0.641-2.703,1.094-4.078,1.359S360.042,62.653,358.276,62.653z M357.268,39.965
			c-1.75,0-3.152,0.555-4.207,1.664s-1.684,2.727-1.887,4.852h11.766c-0.031-2.141-0.547-3.762-1.547-4.863
			S359.018,39.965,357.268,39.965z"/>
		<path fill="#0D4E97" d="M395.301,49.996h-12l-6.727,12.188h-2.742l19.266-34.407h1.57l4.711,34.407h-2.461L395.301,49.996z
			 M395.02,47.84l-0.914-6.82c-0.484-3.781-0.789-6.922-0.914-9.422c-0.469,0.984-0.973,2-1.512,3.047s-2.934,5.445-7.184,13.195
			H395.02z"/>
		<path fill="#0D4E97" d="M423.726,36.262c1.078,0,2.039,0.109,2.883,0.328l-0.492,2.18c-0.734-0.234-1.617-0.352-2.648-0.352
			c-1.469,0-2.867,0.5-4.195,1.5s-2.523,2.5-3.586,4.5s-1.844,4.164-2.344,6.492L411,62.184h-2.297l5.414-25.477h1.875l-0.68,4.781
			h0.141c1.141-1.469,2.102-2.527,2.883-3.176s1.613-1.152,2.496-1.512S422.679,36.262,423.726,36.262z"/>
		<path fill="#0D4E97" d="M441.58,62.653c-2.719,0-4.863-0.863-6.434-2.59s-2.355-4.121-2.355-7.184c0-3.016,0.574-5.84,1.723-8.473
			s2.699-4.641,4.652-6.023s4.219-2.074,6.797-2.074c2.094,0,3.977,0.336,5.648,1.008l-0.656,2.109
			c-1.672-0.734-3.375-1.102-5.109-1.102c-2.016,0-3.832,0.602-5.449,1.805s-2.887,2.938-3.809,5.203s-1.383,4.766-1.383,7.5
			c0,2.469,0.574,4.372,1.723,5.708s2.777,2.004,4.887,2.004c1.109,0,2.137-0.102,3.082-0.305s1.973-0.562,3.082-1.078v2.156
			C446.166,62.208,444.033,62.653,441.58,62.653z"/>
		<path fill="#0D4E97" d="M474.855,62.184l3.492-16.219c0.328-1.438,0.492-2.656,0.492-3.656c0-1.25-0.34-2.227-1.02-2.93
			s-1.73-1.055-3.152-1.055c-1.75,0-3.395,0.523-4.934,1.57s-2.836,2.516-3.891,4.406s-1.863,4.125-2.426,6.703l-2.391,11.18h-2.297
			l7.781-36.469h2.25l-2.016,9.633c-0.688,3.125-1.203,5.305-1.547,6.539h0.141c1.219-1.766,2.676-3.137,4.371-4.113
			s3.488-1.465,5.379-1.465c1.938,0,3.438,0.508,4.5,1.523s1.594,2.445,1.594,4.289c0,1.094-0.188,2.516-0.562,4.266l-3.469,15.797
			H474.855z"/>
		<path fill="#0D4E97" d="M493.576,62.184h-2.297l5.414-25.477h2.25L493.576,62.184z M497.701,30.168
			c0-0.859,0.172-1.547,0.516-2.062s0.812-0.773,1.406-0.773c0.891,0,1.336,0.562,1.336,1.688c0,0.891-0.172,1.594-0.516,2.109
			s-0.789,0.773-1.336,0.773c-0.453,0-0.801-0.152-1.043-0.457S497.701,30.715,497.701,30.168z"/>
		<path fill="#0D4E97" d="M512.86,62.184l-4.031-25.477h2.367l2.531,17.227c0.406,2.579,0.664,4.563,0.773,5.954h0.141
			c0.797-1.797,1.805-3.797,3.023-6l9.516-17.18h2.391l-14.062,25.477H512.86z"/>
		<path fill="#0D4E97" d="M544.12,62.653c-2.703,0-4.812-0.855-6.328-2.566s-2.273-4.098-2.273-7.161
			c0-2.828,0.555-5.539,1.664-8.133s2.637-4.656,4.582-6.188s4.09-2.297,6.434-2.297c1.781,0,3.203,0.477,4.266,1.43
			s1.594,2.25,1.594,3.891c0,2.828-1.277,4.984-3.832,6.469s-6.348,2.227-11.379,2.227h-0.773c-0.094,0.688-0.141,1.453-0.141,2.297
			c0,2.578,0.578,4.543,1.734,5.895s2.82,2.027,4.992,2.027c2.062,0,4.219-0.57,6.469-1.711v2.203
			C548.94,62.114,546.604,62.653,544.12,62.653z M547.917,38.324c-2.047,0-3.949,0.902-5.707,2.707s-3.027,4.215-3.809,7.23h1.148
			c8.078,0,12.117-2.109,12.117-6.328c0-1.047-0.34-1.91-1.02-2.59S549.057,38.324,547.917,38.324z"/>
		<path fill="#0D4E97" d="M577.348,55.27c0,2.25-0.805,4.043-2.414,5.379s-3.797,2.004-6.562,2.004
			c-2.703,0-5.086-0.586-7.148-1.758v-2.508c1.156,0.719,2.352,1.273,3.586,1.664s2.391,0.586,3.469,0.586
			c2.156,0,3.805-0.449,4.945-1.348s1.711-2.176,1.711-3.833c0-0.656-0.121-1.234-0.363-1.734s-0.633-0.98-1.172-1.441
			s-1.574-1.129-3.105-2.004c-2.312-1.25-3.875-2.387-4.688-3.41s-1.219-2.27-1.219-3.738c0-2,0.77-3.637,2.309-4.91
			s3.566-1.91,6.082-1.91c1.172,0,2.41,0.137,3.715,0.41s2.402,0.637,3.293,1.09l-0.82,2.062c-2.125-1-4.188-1.5-6.188-1.5
			c-1.812,0-3.266,0.414-4.359,1.242s-1.641,1.906-1.641,3.234c0,0.859,0.133,1.547,0.398,2.062s0.738,1.051,1.418,1.605
			s1.613,1.152,2.801,1.793c1.781,0.984,3.043,1.793,3.785,2.426s1.289,1.309,1.641,2.027S577.348,54.316,577.348,55.27z"/>
	</g>
</g>
</svg>
