<?xml version="1.0" encoding="utf-8"?>
<!-- Generator: Adobe Illustrator 15.0.0, SVG Export Plug-In . SVG Version: 6.00 Build 0)  -->
<!DOCTYPE svg PUBLIC "-//W3C//DTD SVG 1.1//EN" "http://www.w3.org/Graphics/SVG/1.1/DTD/svg11.dtd">
<svg version="1.1" id="icon_:_gerer" xmlns="http://www.w3.org/2000/svg" xmlns:xlink="http://www.w3.org/1999/xlink" x="0px"
	 y="0px" width="56.693px" height="56.693px" viewBox="0 0 56.693 56.693" enable-background="new 0 0 56.693 56.693"
	 xml:space="preserve">
<g>
	<path fill="#104F96" d="M51.397,27.344c0.551,0.551,0.551,1.453,0,2.004l-22.048,22.05c-0.551,0.551-1.453,0.551-2.004,0
		L5.297,29.348c-0.552-0.551-0.552-1.453,0-2.004L27.345,5.295c0.551-0.551,1.453-0.551,2.004,0L51.397,27.344z"/>
</g>
<g>
	<path fill="#FFFFFF" d="M20.409,37.363h4.729V19.333h-4.729V37.363z M21.629,21.022h2.292v3.82h-2.292V21.022z M21.629,26.166
		h2.292v1.586h-2.292V26.166z M22.774,33.38c0.633,0,1.146,0.514,1.146,1.146c0,0.631-0.514,1.147-1.146,1.147
		c-0.634,0-1.146-0.517-1.146-1.147C21.629,33.893,22.142,33.38,22.774,33.38L22.774,33.38z"/>
	<path fill="#FFFFFF" d="M25.982,37.363h4.729V19.333h-4.729V37.363z M27.2,21.022h2.292v3.82H27.2V21.022z M27.2,26.166h2.292
		v1.586H27.2V26.166z M28.347,33.38c0.633,0,1.146,0.514,1.146,1.146c0,0.631-0.514,1.147-1.146,1.147S27.2,35.158,27.2,34.527
		C27.2,33.893,27.714,33.38,28.347,33.38L28.347,33.38z"/>
	<path fill="#FFFFFF" d="M31.551,19.333v18.027h4.732V19.333H31.551L31.551,19.333z M33.918,35.675
		c-0.634,0-1.149-0.518-1.149-1.148c0-0.633,0.514-1.146,1.149-1.146c0.633,0,1.146,0.514,1.146,1.146
		C35.064,35.16,34.551,35.675,33.918,35.675L33.918,35.675z M35.065,27.751h-2.296v-1.586h2.296V27.751z M35.065,24.844h-2.296
		v-3.821h2.296V24.844z"/>
</g>
</svg>
