<?xml version="1.0" encoding="utf-8"?>
<!-- Generator: Adobe Illustrator 15.0.0, SVG Export Plug-In . SVG Version: 6.00 Build 0)  -->
<!DOCTYPE svg PUBLIC "-//W3C//DTD SVG 1.1//EN" "http://www.w3.org/Graphics/SVG/1.1/DTD/svg11.dtd">
<svg version="1.1" id="Icon_:_gérer" xmlns="http://www.w3.org/2000/svg" xmlns:xlink="http://www.w3.org/1999/xlink" x="0px"
	 y="0px" width="56.693px" height="56.693px" viewBox="0 0 56.693 56.693" enable-background="new 0 0 56.693 56.693"
	 xml:space="preserve">
<g id="Gérer_:_blue_copy">
	<g id="Icon_Gérer_Trans_1_">
		<rect x="21.627" y="21.02" fill="#FFFFFF" width="2.292" height="3.82"/>
		<circle fill="#FFFFFF" cx="28.345" cy="34.525" r="1.147"/>
		<rect x="27.2" y="21.02" fill="#FFFFFF" width="2.292" height="3.82"/>
		<circle fill="#FFFFFF" cx="22.774" cy="34.525" r="1.147"/>
		<rect x="21.627" y="26.164" fill="#FFFFFF" width="2.292" height="1.586"/>
		<rect x="27.2" y="26.164" fill="#FFFFFF" width="2.292" height="1.586"/>
		<circle fill="#FFFFFF" cx="33.917" cy="34.525" r="1.147"/>
		<rect x="32.769" y="26.164" fill="#FFFFFF" width="2.296" height="1.586"/>
		<path fill="#FFFFFF" d="M51.397,27.342L29.348,5.294c-0.551-0.551-1.453-0.551-2.004,0L5.296,27.343
			c-0.551,0.551-0.551,1.453,0,2.004l22.048,22.051c0.551,0.551,1.453,0.551,2.004,0l22.049-22.051
			C51.948,28.796,51.948,27.893,51.397,27.342z M25.138,37.361h-4.729V19.332h4.729V37.361z M30.71,37.361h-4.729V19.332h4.729
			V37.361z M36.284,37.359h-4.732V19.332h4.732V37.359z"/>
		<rect x="32.769" y="21.021" fill="#FFFFFF" width="2.296" height="3.821"/>
	</g>
</g>
</svg>
