<svg width="64" height="64" viewBox="0 0 64 64" fill="none" xmlns="http://www.w3.org/2000/svg">
<circle cx="32.0918" cy="32.6367" r="17" stroke="#014EA2" stroke-width="2"/>
<line x1="24.7756" y1="53.0513" x2="36.7756" y2="49.0513" stroke="#014EA2" stroke-width="2"/>
<line x1="24.7555" y1="57.0583" x2="38.7555" y2="52.0583" stroke="#014EA2" stroke-width="2"/>
<line x1="32.7756" y1="58.0513" x2="38.7756" y2="56.0513" stroke="#014EA2" stroke-width="2"/>
<path d="M34.0918 34C34.0918 32.8954 33.1964 32 32.0918 32C30.9872 32 30.0918 32.8954 30.0918 34" stroke="#014EA2" stroke-width="2"/>
<path d="M26.0918 34C26.0918 32.8954 25.1964 32 24.0918 32C22.9872 32 22.0918 32.8954 22.0918 34" stroke="#014EA2" stroke-width="2"/>
<path d="M42.0918 34C42.0918 32.8954 41.1964 32 40.0918 32C38.9872 32 38.0918 32.8954 38.0918 34" stroke="#014EA2" stroke-width="2"/>
<path d="M26.0918 34C26.0918 35.1046 26.9872 36 28.0918 36C29.1964 36 30.0918 35.1046 30.0918 34" stroke="#014EA2" stroke-width="2"/>
<path d="M34.0918 34C34.0918 35.1046 34.9872 36 36.0918 36C37.1964 36 38.0918 35.1046 38.0918 34" stroke="#014EA2" stroke-width="2"/>
<line x1="32.0918" y1="11" x2="32.0918" y2="5" stroke="#014EA2" stroke-width="2"/>
<line x1="16.5351" y1="17.8595" x2="12.2924" y2="13.6168" stroke="#014EA2" stroke-width="2"/>
<line x1="51.8907" y1="13.6134" x2="47.6481" y2="17.856" stroke="#014EA2" stroke-width="2"/>
</svg>
