<?xml version="1.0" encoding="UTF-8" standalone="no"?>
<!-- Generator: Adobe Illustrator 15.0.0, SVG Export Plug-In . SVG Version: 6.00 Build 0)  -->

<svg
   xmlns:dc="http://purl.org/dc/elements/1.1/"
   xmlns:cc="http://creativecommons.org/ns#"
   xmlns:rdf="http://www.w3.org/1999/02/22-rdf-syntax-ns#"
   xmlns:svg="http://www.w3.org/2000/svg"
   xmlns="http://www.w3.org/2000/svg"
   xmlns:sodipodi="http://sodipodi.sourceforge.net/DTD/sodipodi-0.dtd"
   xmlns:inkscape="http://www.inkscape.org/namespaces/inkscape"
   version="1.1"
   id="icon_:_comprendre"
   x="0px"
   y="0px"
   width="56.693px"
   height="56.693px"
   viewBox="0 0 56.693 56.693"
   enable-background="new 0 0 56.693 56.693"
   xml:space="preserve"
   inkscape:version="0.48.5 r10040"
   sodipodi:docname="icon_netw_google.svg"><metadata
     id="metadata3136"><rdf:RDF><cc:Work
         rdf:about=""><dc:format>image/svg+xml</dc:format><dc:type
           rdf:resource="http://purl.org/dc/dcmitype/StillImage" /><dc:title></dc:title></cc:Work></rdf:RDF></metadata><defs
     id="defs3134" /><sodipodi:namedview
     pagecolor="#ffffff"
     bordercolor="#666666"
     borderopacity="1"
     objecttolerance="10"
     gridtolerance="10"
     guidetolerance="10"
     inkscape:pageopacity="0"
     inkscape:pageshadow="2"
     inkscape:window-width="960"
     inkscape:window-height="1134"
     id="namedview3132"
     showgrid="false"
     inkscape:zoom="14.393311"
     inkscape:cx="28.3465"
     inkscape:cy="28.3465"
     inkscape:window-x="0"
     inkscape:window-y="27"
     inkscape:window-maximized="0"
     inkscape:current-layer="icon_:_comprendre" /><g
     id="g3126"
     style="fill:#ffffff"
     transform="matrix(2.6952902,0,0,2.6952902,-53.774631,-47.28421)"><path
       d="m 33.532,17.564 h -5.007 c -2.23,0 -3.774,0.488 -5.164,1.638 -1.097,0.942 -1.746,2.312 -1.746,3.666 0,2.084 1.589,4.3 4.534,4.3 0.281,0 0.597,-0.029 0.871,-0.055 l -0.041,0.098 c -0.115,0.284 -0.229,0.551 -0.229,0.968 0,0.813 0.391,1.315 0.771,1.799 l 0.049,0.062 -0.085,0.006 c -1.219,0.083 -3.48,0.238 -5.136,1.254 -1.95,1.161 -2.104,2.852 -2.104,3.339 0,1.949 1.814,3.917 5.874,3.917 4.717,0 7.186,-2.604 7.186,-5.173 0,-1.9 -1.112,-2.84 -2.299,-3.837 L 30.01,28.77 c -0.309,-0.256 -0.691,-0.573 -0.691,-1.164 0,-0.578 0.385,-0.961 0.724,-1.299 l 0.035,-0.036 c 1.078,-0.85 2.301,-1.812 2.301,-3.895 0,-2.094 -1.309,-3.176 -1.938,-3.696 h 1.661 c 0.021,0 0.04,-0.006 0.061,-0.017 l 1.431,-0.9 c 0.04,-0.024 0.062,-0.075 0.046,-0.122 -0.019,-0.045 -0.06,-0.077 -0.108,-0.077 l 0,0 z m -6.073,19.844 c -2.875,0 -4.807,-1.342 -4.807,-3.342 0,-1.306 0.789,-2.253 2.347,-2.817 1.246,-0.419 2.854,-0.44 2.871,-0.44 0.271,0 0.409,0 0.626,0.027 2.013,1.432 2.978,2.185 2.978,3.616 0,1.824 -1.539,2.956 -4.015,2.956 l 0,0 z M 27.431,26.401 c -2.413,0 -3.415,-3.172 -3.415,-4.872 0,-0.864 0.195,-1.527 0.603,-2.027 0.438,-0.548 1.188,-0.903 1.914,-0.903 2.217,0 3.438,2.979 3.438,5.037 0,0.325 0,1.312 -0.681,1.999 -0.459,0.458 -1.206,0.766 -1.859,0.766 l 0,0 z"
       id="path3128"
       style="fill:#ffffff"
       inkscape:connector-curvature="0" /><path
       d="M 40.547,27.369 H 37.908 V 24.74 c 0,-0.061 -0.049,-0.108 -0.109,-0.108 h -1.135 c -0.06,0 -0.107,0.048 -0.107,0.108 v 2.629 h -2.625 c -0.061,0 -0.106,0.049 -0.106,0.107 v 1.15 c 0,0.061 0.049,0.109 0.106,0.109 h 2.625 v 2.645 c 0,0.06 0.052,0.108 0.107,0.108 h 1.135 c 0.062,0 0.109,-0.049 0.109,-0.108 v -2.645 h 2.639 c 0.062,0 0.107,-0.049 0.107,-0.109 v -1.15 c 0.003,-0.059 -0.045,-0.107 -0.107,-0.107 l 0,0 z"
       id="path3130"
       style="fill:#ffffff"
       inkscape:connector-curvature="0" /></g></svg>
