<?xml version="1.0" encoding="UTF-8" standalone="no"?>
<!-- Generator: Adobe Illustrator 15.0.0, SVG Export Plug-In . SVG Version: 6.00 Build 0)  -->

<svg
   xmlns:dc="http://purl.org/dc/elements/1.1/"
   xmlns:cc="http://creativecommons.org/ns#"
   xmlns:rdf="http://www.w3.org/1999/02/22-rdf-syntax-ns#"
   xmlns:svg="http://www.w3.org/2000/svg"
   xmlns="http://www.w3.org/2000/svg"
   xmlns:sodipodi="http://sodipodi.sourceforge.net/DTD/sodipodi-0.dtd"
   xmlns:inkscape="http://www.inkscape.org/namespaces/inkscape"
   version="1.1"
   id="icon_:_comprendre"
   x="0px"
   y="0px"
   width="56.693px"
   height="56.693px"
   viewBox="0 0 56.693 56.693"
   enable-background="new 0 0 56.693 56.693"
   xml:space="preserve"
   inkscape:version="0.48.5 r10040"
   sodipodi:docname="icon_netw_pinterest.svg"><metadata
     id="metadata3240"><rdf:RDF><cc:Work
         rdf:about=""><dc:format>image/svg+xml</dc:format><dc:type
           rdf:resource="http://purl.org/dc/dcmitype/StillImage" /><dc:title></dc:title></cc:Work></rdf:RDF></metadata><defs
     id="defs3238" /><sodipodi:namedview
     pagecolor="#ffffff"
     bordercolor="#666666"
     borderopacity="1"
     objecttolerance="10"
     gridtolerance="10"
     guidetolerance="10"
     inkscape:pageopacity="0"
     inkscape:pageshadow="2"
     inkscape:window-width="640"
     inkscape:window-height="480"
     id="namedview3236"
     showgrid="false"
     inkscape:zoom="4.1627714"
     inkscape:cx="28.3465"
     inkscape:cy="28.3465"
     inkscape:window-x="0"
     inkscape:window-y="27"
     inkscape:window-maximized="0"
     inkscape:current-layer="icon_:_comprendre" /><g
     id="g3232"
     style="fill:#cbcbcb"
     transform="matrix(2.4619418,0,0,2.4619418,-44.013621,-44.573015)"><path
       d="m 29.449,18.165 c -6.262,0 -11.338,5.074 -11.338,11.338 0,6.263 5.075,11.338 11.338,11.338 6.261,0 11.338,-5.075 11.338,-11.338 0,-6.263 -5.078,-11.338 -11.338,-11.338 l 0,0 z m 1.099,15.15 c -1.03,-0.08 -1.461,-0.592 -2.27,-1.082 -0.445,2.33 -0.986,4.562 -2.597,5.729 -0.494,-3.521 0.729,-6.164 1.3,-8.974 -0.974,-1.631 0.114,-4.918 2.159,-4.106 2.518,0.996 -2.18,6.067 0.974,6.703 3.292,0.66 4.636,-5.711 2.594,-7.785 -2.948,-2.99 -8.582,-0.064 -7.89,4.217 0.169,1.049 1.253,1.365 0.434,2.812 -1.888,-0.418 -2.45,-1.906 -2.378,-3.891 0.117,-3.248 2.918,-5.521 5.729,-5.84 3.557,-0.396 6.891,1.307 7.352,4.647 0.515,3.777 -1.608,7.863 -5.407,7.57 l 0,0 z"
       id="path3234"
       style="fill:#cbcbcb"
       inkscape:connector-curvature="0" /></g></svg>
