<?xml version="1.0" encoding="UTF-8" standalone="no"?>
<!-- Generator: Adobe Illustrator 15.0.0, SVG Export Plug-In . SVG Version: 6.00 Build 0)  -->

<svg
   xmlns:dc="http://purl.org/dc/elements/1.1/"
   xmlns:cc="http://creativecommons.org/ns#"
   xmlns:rdf="http://www.w3.org/1999/02/22-rdf-syntax-ns#"
   xmlns:svg="http://www.w3.org/2000/svg"
   xmlns="http://www.w3.org/2000/svg"
   xmlns:sodipodi="http://sodipodi.sourceforge.net/DTD/sodipodi-0.dtd"
   xmlns:inkscape="http://www.inkscape.org/namespaces/inkscape"
   version="1.1"
   id="icon_:_comprendre"
   x="0px"
   y="0px"
   width="56.693px"
   height="56.693px"
   viewBox="0 0 56.693 56.693"
   enable-background="new 0 0 56.693 56.693"
   xml:space="preserve"
   inkscape:version="0.48.5 r10040"
   sodipodi:docname="twitter.svg"><metadata
     id="metadata3063"><rdf:RDF><cc:Work
         rdf:about=""><dc:format>image/svg+xml</dc:format><dc:type
           rdf:resource="http://purl.org/dc/dcmitype/StillImage" /></cc:Work></rdf:RDF></metadata><defs
     id="defs3061" /><sodipodi:namedview
     pagecolor="#ffffff"
     bordercolor="#666666"
     borderopacity="1"
     objecttolerance="10"
     gridtolerance="10"
     guidetolerance="10"
     inkscape:pageopacity="0"
     inkscape:pageshadow="2"
     inkscape:window-width="960"
     inkscape:window-height="1134"
     id="namedview3059"
     showgrid="false"
     inkscape:zoom="14.393311"
     inkscape:cx="28.3465"
     inkscape:cy="28.3465"
     inkscape:window-x="0"
     inkscape:window-y="27"
     inkscape:window-maximized="0"
     inkscape:current-layer="g3055" /><g
     id="g3055"
     style="fill:#ff0000"
     transform="matrix(1.9563514,0,0,1.9563514,-27.003565,-28.255759)"><path
       d="m 42.679009,20.373602 c -1.052661,0.467849 -2.19551,0.791962 -3.384862,0.93288 1.216126,-0.731367 2.147598,-1.888308 2.598537,-3.266491 -1.144258,0.675 -2.402661,1.168215 -3.755478,1.431732 -1.069572,-1.142849 -2.609811,-1.860124 -4.300833,-1.860124 -3.258036,0 -5.901668,2.642222 -5.901668,5.898849 0,0.465031 0.05214,0.910334 0.147965,1.342953 -4.903965,-0.248016 -9.247073,-2.590082 -12.166905,-6.162366 -0.504488,0.869467 -0.793371,1.886899 -0.793371,2.966335 0,2.044727 1.042797,3.852712 2.622494,4.903964 -0.96952,-0.02678 -1.867171,-0.295929 -2.671815,-0.737004 v 0.07328 c 0,2.859236 2.036272,5.249214 4.729225,5.79175 -0.496033,0.131055 -1.023069,0.200105 -1.555741,0.200105 -0.377661,0 -0.745458,-0.02959 -1.114665,-0.102871 0.753914,2.343475 2.932514,4.044362 5.512732,4.097911 -2.020771,1.578287 -4.562941,2.518213 -7.329172,2.518213 -0.473486,0 -0.938517,-0.02677 -1.403548,-0.07891 2.614038,1.675521 5.717064,2.647859 9.048378,2.647859 10.847907,0 16.779167,-8.986374 16.779167,-16.777758 l -0.01691,-0.763779 c 1.168214,-0.835646 2.167327,-1.868579 2.95647,-3.056522 l 0,0 z"
       id="path3057"
       style="fill:#ffffff;fill-opacity:1"
       inkscape:connector-curvature="0" /></g></svg>
