<?xml version="1.0" encoding="UTF-8" standalone="no"?>
<!-- Generator: Adobe Illustrator 15.0.0, SVG Export Plug-In . SVG Version: 6.00 Build 0)  -->

<svg
   xmlns:dc="http://purl.org/dc/elements/1.1/"
   xmlns:cc="http://creativecommons.org/ns#"
   xmlns:rdf="http://www.w3.org/1999/02/22-rdf-syntax-ns#"
   xmlns:svg="http://www.w3.org/2000/svg"
   xmlns="http://www.w3.org/2000/svg"
   xmlns:sodipodi="http://sodipodi.sourceforge.net/DTD/sodipodi-0.dtd"
   xmlns:inkscape="http://www.inkscape.org/namespaces/inkscape"
   version="1.1"
   id="icon_:_comprendre"
   x="0px"
   y="0px"
   width="56.693px"
   height="56.693px"
   viewBox="0 0 56.693 56.693"
   enable-background="new 0 0 56.693 56.693"
   xml:space="preserve"
   inkscape:version="0.48.5 r10040"
   sodipodi:docname="header_topbar_social-youtube-white.svg"><metadata
     id="metadata13"><rdf:RDF><cc:Work
         rdf:about=""><dc:format>image/svg+xml</dc:format><dc:type
           rdf:resource="http://purl.org/dc/dcmitype/StillImage" /></cc:Work></rdf:RDF></metadata><defs
     id="defs11" /><sodipodi:namedview
     pagecolor="#ffffff"
     bordercolor="#666666"
     borderopacity="1"
     objecttolerance="10"
     gridtolerance="10"
     guidetolerance="10"
     inkscape:pageopacity="0"
     inkscape:pageshadow="2"
     inkscape:window-width="946"
     inkscape:window-height="799"
     id="namedview9"
     showgrid="false"
     inkscape:zoom="4.1627714"
     inkscape:cx="28.3465"
     inkscape:cy="28.3465"
     inkscape:window-x="180"
     inkscape:window-y="231"
     inkscape:window-maximized="0"
     inkscape:current-layer="icon_:_comprendre" /><g
     id="g5"
     style="fill:#ffffff;fill-opacity:1"
     transform="matrix(2.3901289,0,0,2.3901289,-38.948486,-38.408541)"><path
       d="M 35.074,33.462 H 33.793 L 33.8,32.719 c 0,-0.33 0.271,-0.603 0.604,-0.603 h 0.082 c 0.332,0 0.604,0.271 0.604,0.603 l -0.016,0.743 z m -4.808,-1.593 c -0.32,0 -0.588,0.219 -0.588,0.483 v 3.617 c 0,0.266 0.268,0.483 0.588,0.483 0.327,0 0.597,-0.22 0.597,-0.483 v -3.617 c 0,-0.265 -0.269,-0.483 -0.597,-0.483 l 0,0 z m 7.803,-2.024 v 6.881 c 0,1.647 -1.435,3 -3.185,3 H 21.807 c -1.75,0 -3.181,-1.353 -3.181,-3 v -6.881 c 0,-1.649 1.431,-3 3.181,-3 h 13.078 c 1.75,0 3.184,1.349 3.184,3 l 0,0 z M 22.68,37.472 v -7.246 h 1.621 v -1.074 l -4.323,-0.006 v 1.056 l 1.352,0.004 v 7.271 h 1.353 l -0.003,-0.005 0,0 z m 4.861,-6.166 h -1.352 v 3.869 c 0,0.562 0.03,0.838 -0.005,0.938 -0.106,0.301 -0.604,0.618 -0.797,0.032 -0.029,-0.104 -0.004,-0.412 -0.004,-0.942 l -0.006,-3.896 h -1.344 l 0.004,3.834 c 0.001,0.588 -0.014,1.024 0.006,1.228 0.031,0.354 0.021,0.762 0.347,0.996 0.608,0.438 1.773,-0.066 2.063,-0.693 l -10e-4,0.804 h 1.086 l 0.003,-6.17 0,0 z m 4.325,4.431 -0.003,-3.222 c -0.001,-1.229 -0.919,-1.963 -2.167,-0.972 l 0.007,-2.396 -1.353,0.003 -0.006,8.267 1.11,-0.017 0.101,-0.516 c 1.418,1.305 2.312,0.415 2.311,-1.147 l 0,0 z m 4.228,-0.427 -1.015,0.006 c -10e-4,0.039 -0.002,0.087 -0.002,0.138 v 0.563 c 0,0.306 -0.25,0.549 -0.555,0.549 h -0.199 c -0.306,0 -0.556,-0.243 -0.556,-0.549 V 34.53 h 2.32 v -0.871 c 0,-0.64 -0.018,-1.277 -0.065,-1.644 -0.169,-1.153 -1.787,-1.34 -2.607,-0.748 -0.256,0.187 -0.451,0.433 -0.566,0.767 -0.111,0.332 -0.17,0.782 -0.17,1.36 v 1.92 c 0,3.193 3.876,2.742 3.415,-0.004 l 0,0 z m -5.2,-10.428 c 0.07,0.17 0.181,0.307 0.326,0.409 0.146,0.104 0.33,0.151 0.556,0.151 0.192,0 0.364,-0.051 0.518,-0.159 0.148,-0.106 0.275,-0.271 0.379,-0.483 l -0.022,0.53 h 1.506 v -6.41 h -1.188 v 4.988 c 0,0.271 -0.223,0.489 -0.495,0.489 -0.271,0 -0.491,-0.221 -0.491,-0.489 V 18.92 h -1.236 v 4.322 c 0,0.551 0.01,0.918 0.023,1.104 0.014,0.187 0.057,0.366 0.124,0.536 l 0,0 z m -4.563,-3.619 c 0,-0.613 0.052,-1.097 0.152,-1.44 0.103,-0.347 0.285,-0.623 0.555,-0.832 0.267,-0.209 0.604,-0.313 1.021,-0.313 0.351,0 0.646,0.067 0.896,0.2 0.251,0.138 0.444,0.312 0.577,0.525 0.137,0.217 0.229,0.438 0.278,0.668 0.05,0.229 0.074,0.579 0.074,1.049 v 1.621 c 0,0.594 -0.022,1.03 -0.067,1.309 -0.048,0.279 -0.146,0.537 -0.3,0.779 -0.148,0.239 -0.344,0.418 -0.578,0.533 -0.237,0.114 -0.512,0.172 -0.815,0.172 -0.344,0 -0.633,-0.047 -0.872,-0.146 C 27.013,25.289 26.829,25.14 26.697,24.945 26.562,24.747 26.468,24.507 26.413,24.226 26.354,23.945 26.33,23.523 26.33,22.961 l 0.001,-1.698 0,0 z m 1.178,2.545 c 0,0.362 0.271,0.66 0.604,0.66 0.326,0 0.596,-0.298 0.596,-0.66 v -3.41 c 0,-0.362 -0.27,-0.657 -0.596,-0.657 -0.33,0 -0.604,0.295 -0.604,0.657 v 3.41 z m -4.168,1.723 h 1.42 l 0.002,-4.914 1.683,-4.209 h -1.558 l -0.893,3.125 -0.906,-3.136 H 21.55 l 1.788,4.222 0.003,4.912 z"
       id="path7"
       style="fill:#ffffff;fill-opacity:1"
       inkscape:connector-curvature="0" /></g></svg>
