<svg width="32" height="32" viewBox="0 0 32 32" fill="none" xmlns="http://www.w3.org/2000/svg">
<circle cx="16" cy="16" r="16" fill="#014EA2"/>
<path d="M12.5718 25.2378C19.6678 25.2378 23.5478 19.2603 23.5478 14.0799C23.5478 13.9091 23.5478 13.7383 23.5398 13.5757C24.2918 13.0227 24.9478 12.3314 25.4678 11.5425C24.7798 11.8516 24.0358 12.063 23.2518 12.1606C24.0518 11.6727 24.6598 10.9082 24.9478 9.98923C24.2038 10.4365 23.3798 10.7618 22.4998 10.9407C21.7958 10.1763 20.7958 9.70459 19.6838 9.70459C17.5558 9.70459 15.8278 11.4612 15.8278 13.6245C15.8278 13.9335 15.8598 14.2344 15.9318 14.5191C12.7238 14.3564 9.88378 12.795 7.97978 10.4203C7.65178 10.9977 7.45978 11.6727 7.45978 12.3883C7.45978 13.7465 8.13978 14.9501 9.17978 15.6495C8.54778 15.6332 7.95578 15.4543 7.43578 15.1615C7.43578 15.1778 7.43578 15.1941 7.43578 15.2103C7.43578 17.1133 8.76378 18.6911 10.5318 19.057C10.2118 19.1465 9.86778 19.1953 9.51578 19.1953C9.26778 19.1953 9.02778 19.1709 8.78778 19.1221C9.27578 20.6835 10.6998 21.814 12.3878 21.8465C11.0678 22.8956 9.40378 23.5218 7.59578 23.5218C7.28378 23.5218 6.97978 23.5055 6.67578 23.4649C8.36378 24.5872 10.3958 25.2378 12.5718 25.2378Z" fill="white"/>
</svg>
