<svg width="435" height="68" viewBox="0 0 435 68" fill="none" xmlns="http://www.w3.org/2000/svg">
<path d="M1.79932 67.3988V53.0371H7.45237C13.044 53.0371 13.0239 61.9077 7.45237 61.9077H4.67611V67.3988H1.79932ZM7.21105 59.1113C9.14269 59.1113 9.14269 55.8927 7.21105 55.8927H4.67611V59.1113H7.21105Z" fill="#A7AAAC"/>
<path d="M24.8683 52.7764C34.7656 52.7764 34.7656 67.6028 24.8683 67.6028C14.971 67.6028 14.971 52.7764 24.8683 52.7764ZM24.8683 55.7336C19.1158 55.7336 19.1158 64.6243 24.8683 64.6243C30.6208 64.6243 30.6219 55.7336 24.8683 55.7336Z" fill="#A7AAAC"/>
<path d="M46.1644 67.4002L43.2674 61.9091H41.8788V67.4002H39.002V53.0184H44.6751C49.8042 53.0184 50.3081 60.24 46.0828 61.4667L49.4221 67.4002H46.1644ZM41.8799 59.1128H44.4148C46.3666 59.1128 46.3666 55.8941 44.4148 55.8941H41.8799V59.1128Z" fill="#A7AAAC"/>
<path d="M57.7257 67.3988V55.8938H54.145V53.0371H64.1831V55.8938H60.6024V67.3999H57.7257V67.3988Z" fill="#A7AAAC"/>
<path d="M75.1382 52.4933H75.441L81.4951 67.399H78.2564L77.6732 65.8506H72.905L72.3419 67.399H69.083L75.1382 52.4933ZM76.6062 63.1548L75.2991 59.4132L73.9518 63.1548H76.6062Z" fill="#A7AAAC"/>
<path d="M87.5278 67.4002V53.0184H90.4047V67.4002H87.5278Z" fill="#A7AAAC"/>
<path d="M100.536 53.0184V64.5245H105.102V67.4002H97.6592V53.0184H100.536Z" fill="#A7AAAC"/>
<path d="M124.207 67.4002H121.33V52.7168H122.095L129.357 61.1651V53.0386H132.253V67.703H131.489L124.207 59.5764V67.4002Z" fill="#A7AAAC"/>
<path d="M144.275 52.4933H144.577L150.633 67.399H147.394L146.811 65.8506H142.043L141.479 67.399H138.222L144.275 52.4933ZM145.744 63.1548L144.436 59.4132L143.089 63.1548H145.744Z" fill="#A7AAAC"/>
<path d="M159.038 67.3988V55.8938H155.458V53.0371H165.495V55.8938H161.914V67.3999H159.038V67.3988Z" fill="#A7AAAC"/>
<path d="M171.687 67.4002V53.0184H174.563V67.4002H171.687Z" fill="#A7AAAC"/>
<path d="M188.74 52.7764C198.637 52.7764 198.637 67.6028 188.74 67.6028C178.844 67.6028 178.844 52.7764 188.74 52.7764ZM188.74 55.7336C182.988 55.7336 182.988 64.6243 188.74 64.6243C194.493 64.6243 194.493 55.7336 188.74 55.7336Z" fill="#A7AAAC"/>
<path d="M205.751 67.4002H202.875V52.7168H203.64L210.901 61.1651V53.0386H213.799V67.703H213.034L205.751 59.5764V67.4002Z" fill="#A7AAAC"/>
<path d="M225.821 52.4933H226.123L232.178 67.399H228.94L228.358 65.8506H223.59L223.027 67.399H219.767L225.821 52.4933ZM227.29 63.1548L225.983 59.4132L224.635 63.1548H227.29Z" fill="#A7AAAC"/>
<path d="M241.081 53.0184V64.5245H245.647V67.4002H238.205V53.0184H241.081Z" fill="#A7AAAC"/>
<path d="M266.159 67.4002H261.875V53.0184H266.159C275.734 53.0184 275.734 67.4002 266.159 67.4002ZM264.751 55.8952V64.5256H266.159C271.752 64.5256 271.752 55.8952 266.159 55.8952H264.751Z" fill="#A7AAAC"/>
<path d="M280.054 67.4002V53.0184H287.254V55.8941H282.929V58.7709H286.711V61.6477H282.929V64.5234H287.497V67.3991H280.054V67.4002Z" fill="#A7AAAC"/>
<path d="M293.91 63.4551C295.56 64.6215 297.35 64.6617 298.013 64.6014C298.858 64.5399 299.582 63.9367 299.501 63.1524C299.442 62.3279 298.819 61.9659 298.013 61.6844C295.76 60.8599 293.75 59.7136 293.75 57.2993C293.75 54.8851 295.419 53.035 297.813 52.9143C298.557 52.873 299.544 52.873 301.394 53.5165L301.032 56.2927C299.443 55.6492 298.538 55.6693 298.095 55.6895C297.069 55.7498 296.607 56.495 296.667 57.2982C296.746 58.1026 297.451 58.4646 298.276 58.7461C300.508 59.5706 302.44 60.8587 302.44 63.1513C302.44 65.5454 300.789 67.3754 298.095 67.5162C297.289 67.5765 295.501 67.4759 293.549 66.4693L293.91 63.4551Z" fill="#A7AAAC"/>
<path d="M323.372 52.4933H323.674L329.729 67.399H326.489L325.907 65.8506H321.139L320.576 67.399H317.318L323.372 52.4933ZM324.84 63.1548L323.531 59.4132L322.184 63.1548H324.84Z" fill="#A7AAAC"/>
<path d="M342.921 67.4002L340.023 61.9091H338.635V67.4002H335.759V53.0184H341.43C346.56 53.0184 347.064 60.24 342.84 61.4667L346.178 67.4002H342.921ZM338.635 59.1128H341.171C343.122 59.1128 343.122 55.8941 341.171 55.8941H338.635V59.1128Z" fill="#A7AAAC"/>
<path d="M358.763 55.7355C353.07 55.7355 353.07 64.5067 358.763 64.5067C360.009 64.5067 360.995 64.1447 361.538 63.8632L361.92 66.8394C361.034 67.2014 359.769 67.4438 358.763 67.4438C349.008 67.4438 349.027 52.8397 358.763 52.8397C359.769 52.8397 360.734 53.0207 361.597 53.4028L361.257 56.3589C360.714 56.0774 360.01 55.7355 358.763 55.7355Z" fill="#A7AAAC"/>
<path d="M375.417 67.4002V61.6488H371.111V67.4002H368.235V53.0184H371.111V58.7709H375.417V53.0184H378.292V67.4002H375.417Z" fill="#A7AAAC"/>
<path d="M385.548 67.4002V53.0184H388.426V67.4002H385.548Z" fill="#A7AAAC"/>
<path d="M400.15 67.703L394.195 53.0184H397.514L399.426 57.8057L400.471 60.7819L401.497 57.9062L403.429 53.0184H406.75L400.795 67.703H400.15Z" fill="#A7AAAC"/>
<path d="M412.515 67.4002V53.0184H419.715V55.8941H415.39V58.7709H419.172V61.6477H415.39V64.5234H419.957V67.3991H412.515V67.4002Z" fill="#A7AAAC"/>
<path d="M426.37 63.4551C428.02 64.6215 429.811 64.6617 430.475 64.6014C431.32 64.5399 432.044 63.9367 431.963 63.1524C431.904 62.3279 431.28 61.9659 430.475 61.6844C428.223 60.8599 426.212 59.7136 426.212 57.2993C426.212 54.8851 427.881 53.035 430.275 52.9143C431.019 52.873 432.006 52.873 433.856 53.5165L433.494 56.2927C431.905 55.6492 431 55.6693 430.556 55.6895C429.531 55.7498 429.068 56.495 429.128 57.2982C429.208 58.1026 429.913 58.4646 430.737 58.7461C432.97 59.5706 434.901 60.8587 434.901 63.1513C434.901 65.5454 433.251 67.3754 430.556 67.5162C429.751 67.5765 427.962 67.4759 426.012 66.4693L426.37 63.4551Z" fill="#A7AAAC"/>
<path d="M6.20606 40.7441H0V2.46204H21.6022V7.75088H6.20606V19.7172H20.6336V25.0329H6.20606V40.7441Z" fill="#014EA2"/>
<path d="M49.0119 11.2599C50.2508 11.2599 51.272 11.347 52.0752 11.5213L51.4731 17.2559C50.6005 17.0459 49.6922 16.942 48.7493 16.942C46.2881 16.942 44.2939 17.7453 42.7667 19.3507C41.2395 20.9561 40.4753 23.043 40.4753 25.6093V40.744H34.3218V11.7839H39.1391L39.9514 16.8895H40.2653C41.225 15.1612 42.4774 13.7915 44.0224 12.7782C45.5675 11.7649 47.2311 11.2599 49.0119 11.2599Z" fill="#014EA2"/>
<path d="M81.9958 40.744L80.7646 36.712H80.5546C79.1581 38.475 77.7527 39.6748 76.3394 40.3128C74.9261 40.9507 73.1096 41.268 70.893 41.268C68.0475 41.268 65.8265 40.4993 64.2289 38.9643C62.6313 37.4293 61.8325 35.2552 61.8325 32.4443C61.8325 29.4591 62.9408 27.2069 65.1584 25.6886C67.3761 24.1703 70.7534 23.3402 75.2915 23.2006L80.2932 23.043V21.4979C80.2932 19.6479 79.8608 18.2636 78.9972 17.3475C78.1336 16.4314 76.793 15.9734 74.9775 15.9734C73.4939 15.9734 72.0706 16.1912 70.7098 16.6281C69.3491 17.0649 68.0386 17.5799 66.7817 18.1731L64.792 13.7736C66.3628 12.9536 68.0821 12.3291 69.9501 11.9012C71.8181 11.4733 73.581 11.2599 75.239 11.2599C78.9224 11.2599 81.702 12.0632 83.5789 13.6686C85.4558 15.2751 86.3942 17.7966 86.3942 21.2354V40.7429H81.9958V40.744ZM72.8314 36.5545C75.0658 36.5545 76.8589 35.93 78.2118 34.6821C79.5648 33.433 80.2407 31.6835 80.2407 29.4312V26.9175L76.5226 27.075C73.6246 27.18 71.5176 27.6638 70.1993 28.5285C68.881 29.3932 68.2218 30.7149 68.2218 32.4957C68.2218 33.7883 68.6061 34.7871 69.3736 35.4943C70.1412 36.2015 71.2952 36.5545 72.8314 36.5545Z" fill="#014EA2"/>
<path d="M126.898 40.744H120.718V22.938C120.718 20.7036 120.269 19.0367 119.37 17.9363C118.471 16.8359 117.044 16.2862 115.089 16.2862C112.488 16.2862 110.585 17.0548 109.381 18.5899C108.177 20.1249 107.574 22.7012 107.574 26.3142V40.7429H101.421V11.7839H106.238L107.102 15.5801H107.416C108.288 14.2015 109.528 13.1357 111.134 12.386C112.739 11.6364 114.52 11.2599 116.475 11.2599C123.423 11.2599 126.897 14.7947 126.897 21.8644V40.744H126.898Z" fill="#014EA2"/>
<path d="M153.572 41.2691C149.19 41.2691 145.861 39.9899 143.583 37.4326C141.305 34.8753 140.166 31.2042 140.166 26.4215C140.166 21.5516 141.356 17.8067 143.739 15.188C146.122 12.5692 149.566 11.2599 154.069 11.2599C157.124 11.2599 159.873 11.8274 162.317 12.9614L160.458 17.9106C157.858 16.8984 155.71 16.3923 154.017 16.3923C149.007 16.3923 146.501 19.7182 146.501 26.369C146.501 29.6155 147.126 32.0555 148.374 33.6877C149.622 35.32 151.45 36.1355 153.859 36.1355C156.6 36.1355 159.192 35.4552 161.636 34.0933V39.4615C160.537 40.1072 159.362 40.5697 158.115 40.849C156.867 41.1283 155.353 41.2691 153.572 41.2691Z" fill="#014EA2"/>
<path d="M187.529 41.2669C183.025 41.2669 179.503 39.953 176.963 37.3265C174.424 34.6999 173.154 31.0813 173.154 26.4728C173.154 21.7426 174.332 18.0246 176.689 15.3187C179.045 12.6128 182.284 11.2599 186.403 11.2599C190.226 11.2599 193.246 12.4207 195.462 14.7422C197.679 17.0638 198.788 20.259 198.788 24.3256V27.6515H179.491C179.578 30.4624 180.337 32.6219 181.769 34.1324C183.2 35.6429 185.216 36.397 187.817 36.397C189.528 36.397 191.121 36.235 192.595 35.9121C194.07 35.5892 195.654 35.0519 197.348 34.3022V39.3039C195.846 40.0201 194.328 40.5262 192.792 40.8222C191.256 41.1183 189.502 41.2669 187.529 41.2669ZM186.403 15.9197C184.448 15.9197 182.881 16.5398 181.703 17.7788C180.524 19.0178 179.821 20.8254 179.595 23.1994H192.74C192.705 20.8075 192.128 18.9965 191.011 17.7665C189.894 16.5364 188.358 15.9197 186.403 15.9197Z" fill="#014EA2"/>
<path d="M228.892 27.1325H215.486L207.971 40.7489H204.907L226.431 2.30933H228.185L233.448 40.7489H230.699L228.892 27.1325ZM228.578 24.7238L227.557 17.1045C227.017 12.8803 226.676 9.37117 226.536 6.57816C226.012 7.67749 225.449 8.81257 224.847 9.98228C224.245 11.152 221.569 16.0655 216.821 24.7238H228.578Z" fill="#014EA2"/>
<path d="M260.65 11.785C261.854 11.785 262.928 11.9068 263.871 12.1515L263.321 14.587C262.501 14.3256 261.515 14.1937 260.363 14.1937C258.722 14.1937 257.16 14.7523 255.676 15.8695C254.193 16.9867 252.857 18.6625 251.67 20.8969C250.482 23.1314 249.61 25.549 249.051 28.1498L246.432 40.7452H243.866L249.915 12.2822H252.01L251.25 17.6235H251.407C252.682 15.9824 253.756 14.8004 254.628 14.0753C255.501 13.3502 256.43 12.7883 257.417 12.3861C258.403 11.9839 259.48 11.785 260.65 11.785Z" fill="#014EA2"/>
<path d="M280.594 41.2651C277.557 41.2651 275.162 40.301 273.406 38.3715C271.651 36.4421 270.775 33.7676 270.775 30.3456C270.775 26.9761 271.417 23.8211 272.7 20.8795C273.984 17.9379 275.716 15.6946 277.898 14.1506C280.079 12.6066 282.611 11.8335 285.491 11.8335C287.831 11.8335 289.934 12.2089 291.801 12.9596L291.068 15.3158C289.2 14.4958 287.298 14.0847 285.36 14.0847C283.108 14.0847 281.079 14.7572 279.273 16.1012C277.466 17.4452 276.047 19.3836 275.017 21.914C273.987 24.4445 273.472 27.2386 273.472 30.2931C273.472 33.0514 274.114 35.1775 275.397 36.67C276.681 38.1626 278.5 38.9089 280.857 38.9089C282.096 38.9089 283.245 38.795 284.3 38.5682C285.356 38.3414 286.505 37.9403 287.743 37.3638V39.7725C285.718 40.768 283.335 41.2651 280.594 41.2651Z" fill="#014EA2"/>
<path d="M317.771 40.7444L321.672 22.6245C322.039 21.018 322.222 19.6572 322.222 18.54C322.222 17.1435 321.842 16.052 321.082 15.2666C320.323 14.4812 319.15 14.0879 317.561 14.0879C315.606 14.0879 313.768 14.6722 312.049 15.8419C310.329 17.0117 308.88 18.6528 307.702 20.7643C306.523 22.8759 305.62 25.3728 304.991 28.253L302.32 40.7433H299.754L308.447 0H310.961L308.708 10.762C307.94 14.2533 307.364 16.6888 306.98 18.0674H307.138C308.499 16.0944 310.127 14.5627 312.021 13.4724C313.915 12.382 315.918 11.8357 318.03 11.8357C320.195 11.8357 321.871 12.4032 323.058 13.5372C324.244 14.6711 324.839 16.2687 324.839 18.3288C324.839 19.5511 324.628 21.1397 324.211 23.0948L320.335 40.7433H317.771V40.7444Z" fill="#014EA2"/>
<path d="M338.686 40.7422H336.12L342.169 12.2792H344.682L338.686 40.7422ZM343.295 4.97379C343.295 4.01411 343.487 3.24548 343.871 2.67012C344.256 2.09476 344.779 1.80652 345.442 1.80652C346.438 1.80652 346.935 2.43439 346.935 3.69236C346.935 4.68779 346.743 5.47318 346.358 6.04854C345.974 6.6239 345.477 6.91214 344.866 6.91214C344.36 6.91214 343.971 6.74232 343.7 6.40158C343.43 6.06083 343.295 5.5849 343.295 4.97379Z" fill="#014EA2"/>
<path d="M360.23 40.7435L355.727 12.2805H358.371L361.199 31.5266C361.653 34.4078 361.941 36.6244 362.063 38.1784H362.22C363.111 36.1708 364.237 33.9364 365.598 31.4752L376.229 12.2816H378.9L363.19 40.7446H360.23V40.7435Z" fill="#014EA2"/>
<path d="M395.153 41.2662C392.133 41.2662 389.777 40.311 388.083 38.3995C386.39 36.4879 385.544 33.8212 385.544 30.3992C385.544 27.2397 386.164 24.211 387.403 21.313C388.642 18.4149 390.349 16.1113 392.522 14.3997C394.695 12.6882 397.091 11.8335 399.71 11.8335C401.7 11.8335 403.288 12.3664 404.476 13.4311C405.664 14.4958 406.257 15.9448 406.257 17.7781C406.257 20.9376 404.83 23.3463 401.976 25.0053C399.121 26.6644 394.884 27.4933 389.263 27.4933H388.4C388.295 28.262 388.242 29.1166 388.242 30.0596C388.242 32.9397 388.888 35.135 390.179 36.6455C391.471 38.1559 393.33 38.91 395.756 38.91C398.06 38.91 400.47 38.2732 402.983 36.9985V39.4597C400.538 40.6641 397.928 41.2662 395.153 41.2662ZM399.395 14.0858C397.108 14.0858 394.983 15.0935 393.019 17.11C391.055 19.1266 389.637 21.8191 388.764 25.1874H390.046C399.071 25.1874 403.583 22.8312 403.583 18.1178C403.583 16.9481 403.204 15.9839 402.444 15.2242C401.684 14.4645 400.669 14.0858 399.395 14.0858Z" fill="#014EA2"/>
<path d="M432.276 33.0168C432.276 35.5305 431.376 37.5336 429.579 39.0262C427.781 40.5188 425.337 41.2651 422.248 41.2651C419.228 41.2651 416.565 40.6104 414.262 39.3011V36.4991C415.553 37.3024 416.889 37.9213 418.268 38.3581C419.647 38.795 420.939 39.0128 422.144 39.0128C424.552 39.0128 426.395 38.5112 427.668 37.5068C428.942 36.5025 429.58 35.0758 429.58 33.2246C429.58 32.4917 429.445 31.846 429.174 31.2874C428.904 30.7288 428.467 30.1925 427.865 29.6775C427.263 29.1624 426.106 28.4161 424.396 27.4386C421.813 26.0421 420.067 24.7718 419.158 23.6289C418.25 22.486 417.797 21.0929 417.797 19.4528C417.797 17.2184 418.657 15.3896 420.376 13.9674C422.096 12.5452 424.36 11.8335 427.171 11.8335C428.48 11.8335 429.864 11.9866 431.321 12.2916C432.779 12.5966 434.005 13.0032 435 13.5093L434.084 15.813C431.71 14.6958 429.405 14.1372 427.171 14.1372C425.147 14.1372 423.522 14.5997 422.301 15.5247C421.08 16.4498 420.468 17.6541 420.468 19.1378C420.468 20.0975 420.616 20.8661 420.912 21.4414C421.209 22.0168 421.737 22.6156 422.497 23.2346C423.256 23.8535 424.299 24.5216 425.626 25.2377C427.616 26.337 429.026 27.2409 429.855 27.948C430.684 28.6552 431.295 29.4105 431.688 30.2126C432.081 31.0148 432.276 31.951 432.276 33.0168Z" fill="#014EA2"/>
</svg>
