<?xml version="1.0" encoding="utf-8"?>
<!-- Generator: Adobe Illustrator 15.0.0, SVG Export Plug-In . SVG Version: 6.00 Build 0)  -->
<!DOCTYPE svg PUBLIC "-//W3C//DTD SVG 1.1//EN" "http://www.w3.org/Graphics/SVG/1.1/DTD/svg11.dtd">
<svg version="1.1" id="icon_:_search" xmlns="http://www.w3.org/2000/svg" xmlns:xlink="http://www.w3.org/1999/xlink" x="0px"
	 y="0px" width="56.693px" height="56.693px" viewBox="0 0 56.693 56.693" enable-background="new 0 0 56.693 56.693"
	 xml:space="preserve">
<rect x="11.339" y="11.338" fill="#104F96" width="34.015" height="34.016"/>
<path fill="#FFFFFF" d="M26.702,35.129c1.884,0,3.596-0.668,4.932-1.798l5.992,5.993c0.137,0.136,0.308,0.205,0.496,0.205
	s0.359-0.069,0.496-0.205c0.273-0.274,0.273-0.721,0-0.994l-5.992-5.991c1.113-1.336,1.799-3.064,1.799-4.932
	c0-4.263-3.459-7.722-7.723-7.722c-4.246,0-7.721,3.476-7.721,7.722C18.981,31.671,22.456,35.129,26.702,35.129L26.702,35.129z
	 M26.702,21.09c3.493,0,6.318,2.842,6.318,6.317c0,3.492-2.825,6.318-6.318,6.318c-3.492,0-6.317-2.843-6.317-6.318
	S23.227,21.09,26.702,21.09L26.702,21.09z M26.702,21.09"/>
</svg>
