<svg width="32" height="32" viewBox="0 0 32 32" fill="none" xmlns="http://www.w3.org/2000/svg">
<circle cx="16" cy="16" r="16" fill="#014EA2"/>
<path d="M11.2857 12C8.91878 12 7 13.7909 7 16C7 18.2091 8.91878 20 11.2857 20H14.7143C17.0812 20 19 18.2091 19 16C19 14.2531 17.8002 12.7678 16.1278 12.2227" stroke="white" stroke-width="2"/>
<path d="M20.7143 20C23.0812 20 25 18.2091 25 16C25 13.7909 23.0812 12 20.7143 12L17.2857 12C14.9188 12 13 13.7909 13 16C13 17.7469 14.1998 19.2322 15.8722 19.7773" stroke="white" stroke-width="2"/>
</svg>
