<svg width="18" height="19" viewBox="0 0 18 19" fill="none" xmlns="http://www.w3.org/2000/svg">
<path fill-rule="evenodd" clip-rule="evenodd" d="M17.0955 3.53702C17.0955 5.14875 16.0175 6.5087 14.5431 6.93516L14.7928 11.9856C16.4386 12.2884 17.6855 13.7306 17.6855 15.464C17.6855 17.4175 16.1019 19.0011 14.1485 19.0011C12.1951 19.0011 10.6115 17.4175 10.6115 15.464C10.6115 15.1242 10.6594 14.7956 10.7488 14.4846L6.22472 12.0485C5.576 12.8061 4.61257 13.2862 3.53702 13.2862C1.58358 13.2862 0 11.7026 0 9.74916C0 7.79572 1.58358 6.21214 3.53702 6.21214C4.53036 6.21214 5.42806 6.62163 6.07053 7.281L10.2201 4.70864C10.0914 4.34196 10.0215 3.94766 10.0215 3.53702C10.0215 1.58358 11.605 0 13.5585 0C15.5119 0 17.0955 1.58358 17.0955 3.53702ZM6.84923 8.50556C6.99455 8.89243 7.07403 9.31151 7.07403 9.74916C7.07403 10.1064 7.02108 10.4512 6.9226 10.7763L11.4287 13.2026C11.9128 12.6211 12.5799 12.1972 13.3416 12.0195L13.0957 7.04403C12.2614 6.935 11.5185 6.53523 10.9721 5.94975L6.84923 8.50556Z" fill="#014EA2"/>
</svg>
